{"glyphs":{"0":{"ha":847,"x_min":63,"x_max":785,"o":"m 424 849 q 688 750 592 849 q 785 408 785 651 q 688 69 785 168 q 424 -31 590 -31 q 159 68 256 -31 q 63 408 63 167 q 159 750 63 651 q 424 849 256 849 m 424 686 q 333 667 371 686 q 273 586 296 647 q 250 408 250 525 q 273 233 250 293 q 333 152 296 172 q 424 132 371 132 q 514 152 476 132 q 574 233 551 172 q 597 408 597 293 q 574 586 597 525 q 514 667 551 647 q 424 686 476 686 z "},"1":{"ha":686,"x_min":28,"x_max":668,"o":"m 344 849 l 461 849 l 461 156 l 668 156 l 668 0 l 64 0 l 64 156 l 282 156 l 282 583 l 131 457 l 28 585 l 344 849 z "},"2":{"ha":760,"x_min":35,"x_max":725,"o":"m 46 119 l 371 429 q 463 597 463 517 q 433 667 463 640 q 347 693 403 693 q 240 666 294 693 q 143 594 186 639 l 35 708 q 192 816 118 783 q 360 849 267 849 q 511 816 444 849 q 615 724 578 783 q 651 592 651 665 q 606 465 651 529 q 474 331 560 401 l 279 156 l 528 156 l 593 257 l 725 181 l 614 0 l 81 0 l 46 119 z "},"3":{"ha":724,"x_min":17,"x_max":671,"o":"m 340 499 q 428 526 393 499 q 464 596 464 554 q 425 668 464 642 q 324 694 386 694 q 219 675 271 694 q 135 622 168 656 l 26 728 q 160 819 82 789 q 326 849 239 849 q 490 819 421 849 q 596 736 560 789 q 632 615 632 683 q 590 499 632 553 q 485 432 549 446 q 622 360 572 411 q 671 231 671 308 q 585 40 671 111 q 349 -31 500 -31 q 169 -1 242 -31 q 17 92 96 29 l 117 222 q 221 149 168 172 q 342 126 274 126 q 447 156 407 126 q 488 235 488 186 q 447 315 488 285 q 338 344 407 344 l 242 344 l 242 499 l 340 499 z "},"4":{"ha":790,"x_min":28,"x_max":739,"o":"m 290 0 l 290 156 l 460 156 l 460 233 l 28 233 l 28 379 l 360 869 l 496 793 l 207 379 l 460 379 l 460 643 l 638 643 l 638 379 l 739 379 l 739 233 l 638 233 l 638 156 l 733 156 l 733 0 l 290 0 z "},"5":{"ha":751,"x_min":56,"x_max":703,"o":"m 261 513 q 426 558 338 558 q 563 524 500 558 q 665 424 626 489 q 703 272 703 358 q 608 49 703 126 q 350 -28 514 -28 q 197 -1 272 -28 q 56 79 121 26 l 158 201 q 263 142 211 163 q 358 121 315 121 q 487 159 443 121 q 531 271 531 197 q 486 376 531 336 q 376 417 442 417 q 285 395 331 417 q 203 329 240 374 l 96 381 l 96 818 l 631 818 l 631 663 l 261 663 l 261 513 z "},"6":{"ha":790,"x_min":57,"x_max":746,"o":"m 633 646 q 551 681 599 669 q 461 693 504 693 q 349 663 399 693 q 272 579 300 632 q 244 465 244 526 q 351 521 294 501 q 464 540 407 540 q 665 474 585 540 q 746 263 746 408 q 716 131 746 197 q 611 17 686 64 q 410 -31 536 -31 q 144 78 232 -31 q 57 407 57 188 q 106 636 57 536 q 247 792 156 736 q 458 849 338 849 q 583 828 518 849 q 686 783 649 808 l 633 646 m 428 406 q 329 385 379 406 q 249 336 279 365 q 419 118 269 118 q 526 163 488 118 q 564 263 564 208 q 526 372 564 338 q 428 406 489 406 z "},"7":{"ha":696,"x_min":24,"x_max":690,"o":"m 690 713 q 489 364 557 533 q 421 46 421 194 q 422 0 421 15 l 242 0 q 298 319 243 167 q 483 663 353 471 l 206 663 l 185 561 l 24 597 l 65 818 l 690 818 l 690 713 z "},"8":{"ha":765,"x_min":57,"x_max":707,"o":"m 382 849 q 601 788 517 849 q 686 604 686 728 q 647 497 686 550 q 543 425 608 443 q 669 343 631 399 q 707 226 707 288 q 616 32 707 94 q 385 -31 525 -31 q 149 32 242 -31 q 57 226 57 94 q 96 344 57 289 q 222 425 135 399 q 118 497 157 443 q 79 604 79 550 q 163 788 79 728 q 382 849 247 849 m 381 704 q 290 677 322 704 q 258 604 258 650 q 291 524 258 557 q 381 492 324 492 q 472 524 439 492 q 506 604 506 556 q 473 677 506 650 q 381 704 440 704 m 385 347 q 281 313 317 347 q 244 226 244 278 q 282 144 244 175 q 381 114 319 114 q 483 144 444 114 q 521 226 521 175 q 485 313 521 278 q 385 347 450 347 z "},"9":{"ha":776,"x_min":44,"x_max":733,"o":"m 156 172 q 238 137 190 149 q 328 125 285 125 q 440 156 390 125 q 518 238 490 186 q 546 351 546 290 q 326 278 440 278 q 125 343 206 278 q 44 554 44 408 q 74 687 44 619 q 179 801 104 754 q 381 849 254 849 q 646 740 558 849 q 733 411 733 631 q 684 182 733 282 q 544 26 635 82 q 331 -31 453 -31 q 206 -11 271 -31 q 104 33 142 8 l 156 172 m 369 699 q 264 654 301 699 q 226 554 226 610 q 264 447 226 481 q 361 413 301 413 q 460 433 410 413 q 540 482 510 453 q 483 651 529 604 q 369 699 438 699 z "},"\u0000":{"ha":0,"x_min":0,"x_max":0,"o":""},"\r":{"ha":325,"x_min":0,"x_max":0,"o":""}," ":{"ha":325,"x_min":0,"x_max":0,"o":""},"A":{"ha":958,"x_min":7,"x_max":951,"o":"m 7 0 l 7 156 l 144 156 l 347 663 l 239 663 l 239 818 l 572 818 l 829 156 l 951 156 l 951 0 l 583 0 l 583 156 l 651 156 l 610 274 l 342 274 l 300 156 l 376 156 l 376 0 l 7 0 m 383 388 l 571 388 l 478 653 l 383 388 z "},"Á":{"ha":958,"x_min":7,"x_max":951,"o":"m 7 0 l 7 156 l 144 156 l 347 663 l 239 663 l 239 818 l 572 818 l 829 156 l 951 156 l 951 0 l 583 0 l 583 156 l 651 156 l 610 274 l 342 274 l 300 156 l 376 156 l 376 0 l 7 0 m 383 388 l 571 388 l 478 653 l 383 388 m 685 1113 l 724 969 l 372 919 l 347 986 l 685 1113 z "},"Ă":{"ha":958,"x_min":7,"x_max":951,"o":"m 7 0 l 7 156 l 144 156 l 347 663 l 239 663 l 239 818 l 572 818 l 829 156 l 951 156 l 951 0 l 583 0 l 583 156 l 651 156 l 610 274 l 342 274 l 300 156 l 376 156 l 376 0 l 7 0 m 383 388 l 571 388 l 478 653 l 383 388 m 465 918 q 291 969 354 918 q 217 1122 228 1021 l 331 1136 q 368 1054 333 1082 q 465 1026 403 1026 q 565 1054 531 1026 q 603 1136 600 1082 l 717 1122 q 642 969 706 1021 q 465 918 578 918 z "},"Ắ":{"ha":958,"x_min":7,"x_max":951,"o":"m 7 0 l 7 156 l 144 156 l 347 663 l 239 663 l 239 818 l 572 818 l 829 156 l 951 156 l 951 0 l 583 0 l 583 156 l 651 156 l 610 274 l 342 274 l 300 156 l 376 156 l 376 0 l 7 0 m 383 388 l 571 388 l 478 653 l 383 388 m 465 918 q 291 969 354 918 q 217 1122 228 1021 l 331 1136 q 368 1054 333 1082 q 465 1026 403 1026 q 565 1054 531 1026 q 603 1136 600 1082 l 717 1122 q 642 969 706 1021 q 465 918 578 918 m 685 1361 l 724 1218 l 372 1168 l 347 1235 l 685 1361 z "},"Ặ":{"ha":958,"x_min":7,"x_max":951,"o":"m 7 0 l 7 156 l 144 156 l 347 663 l 239 663 l 239 818 l 572 818 l 829 156 l 951 156 l 951 0 l 583 0 l 583 156 l 651 156 l 610 274 l 342 274 l 300 156 l 376 156 l 376 0 l 7 0 m 383 388 l 571 388 l 478 653 l 383 388 m 479 -81 q 551 -108 524 -81 q 579 -181 579 -136 q 551 -252 579 -225 q 479 -279 524 -279 q 408 -252 435 -279 q 381 -181 381 -225 q 408 -108 381 -136 q 479 -81 435 -81 m 465 918 q 291 969 354 918 q 217 1122 228 1021 l 331 1136 q 368 1054 333 1082 q 465 1026 403 1026 q 565 1054 531 1026 q 603 1136 600 1082 l 717 1122 q 642 969 706 1021 q 465 918 578 918 z "},"Ằ":{"ha":958,"x_min":7,"x_max":951,"o":"m 7 0 l 7 156 l 144 156 l 347 663 l 239 663 l 239 818 l 572 818 l 829 156 l 951 156 l 951 0 l 583 0 l 583 156 l 651 156 l 610 274 l 342 274 l 300 156 l 376 156 l 376 0 l 7 0 m 383 388 l 571 388 l 478 653 l 383 388 m 465 918 q 291 969 354 918 q 217 1122 228 1021 l 331 1136 q 368 1054 333 1082 q 465 1026 403 1026 q 565 1054 531 1026 q 603 1136 600 1082 l 717 1122 q 642 969 706 1021 q 465 918 578 918 m 232 1365 l 572 1240 l 547 1172 l 193 1224 l 232 1365 z "},"Ẳ":{"ha":958,"x_min":7,"x_max":951,"o":"m 7 0 l 7 156 l 144 156 l 347 663 l 239 663 l 239 818 l 572 818 l 829 156 l 951 156 l 951 0 l 583 0 l 583 156 l 651 156 l 610 274 l 342 274 l 300 156 l 376 156 l 376 0 l 7 0 m 383 388 l 571 388 l 478 653 l 383 388 m 465 918 q 291 969 354 918 q 217 1122 228 1021 l 331 1136 q 368 1054 333 1082 q 465 1026 403 1026 q 565 1054 531 1026 q 603 1136 600 1082 l 717 1122 q 642 969 706 1021 q 465 918 578 918 m 404 1179 q 447 1224 432 1200 q 461 1268 461 1247 q 449 1297 461 1286 q 415 1308 438 1308 q 380 1298 397 1308 q 342 1267 363 1288 l 275 1340 q 356 1403 317 1383 q 436 1422 394 1422 q 535 1388 500 1422 q 571 1301 571 1354 q 543 1208 571 1256 q 461 1128 515 1161 l 404 1179 z "},"Ẵ":{"ha":958,"x_min":7,"x_max":951,"o":"m 7 0 l 7 156 l 144 156 l 347 663 l 239 663 l 239 818 l 572 818 l 829 156 l 951 156 l 951 0 l 583 0 l 583 156 l 651 156 l 610 274 l 342 274 l 300 156 l 376 156 l 376 0 l 7 0 m 383 388 l 571 388 l 478 653 l 383 388 m 229 1288 q 302 1331 271 1318 q 374 1344 333 1344 q 423 1336 400 1344 q 474 1314 446 1328 q 519 1294 501 1300 q 556 1288 536 1288 q 609 1296 586 1288 q 671 1329 632 1304 l 685 1232 q 618 1186 649 1200 q 542 1172 588 1172 q 501 1179 521 1172 q 454 1200 482 1186 q 364 1229 401 1229 q 324 1223 342 1229 q 283 1206 306 1217 q 249 1190 260 1196 l 229 1288 m 465 918 q 291 969 354 918 q 217 1122 228 1021 l 331 1136 q 368 1054 333 1082 q 465 1026 403 1026 q 565 1054 531 1026 q 603 1136 600 1082 l 717 1122 q 642 969 706 1021 q 465 918 578 918 z "},"Â":{"ha":958,"x_min":7,"x_max":951,"o":"m 7 0 l 7 156 l 144 156 l 347 663 l 239 663 l 239 818 l 572 818 l 829 156 l 951 156 l 951 0 l 583 0 l 583 156 l 651 156 l 610 274 l 342 274 l 300 156 l 376 156 l 376 0 l 7 0 m 383 388 l 571 388 l 478 653 l 383 388 m 465 1111 l 721 964 l 671 899 l 467 982 l 256 899 l 211 964 l 465 1111 z "},"Ấ":{"ha":958,"x_min":7,"x_max":951,"o":"m 7 0 l 7 156 l 144 156 l 347 663 l 239 663 l 239 818 l 572 818 l 829 156 l 951 156 l 951 0 l 583 0 l 583 156 l 651 156 l 610 274 l 342 274 l 300 156 l 376 156 l 376 0 l 7 0 m 383 388 l 571 388 l 478 653 l 383 388 m 560 1361 l 631 1242 l 343 1119 l 311 1181 l 560 1361 m 465 1111 l 721 964 l 671 899 l 467 982 l 256 899 l 211 964 l 465 1111 z "},"Ậ":{"ha":958,"x_min":7,"x_max":951,"o":"m 7 0 l 7 156 l 144 156 l 347 663 l 239 663 l 239 818 l 572 818 l 829 156 l 951 156 l 951 0 l 583 0 l 583 156 l 651 156 l 610 274 l 342 274 l 300 156 l 376 156 l 376 0 l 7 0 m 383 388 l 571 388 l 478 653 l 383 388 m 479 -81 q 551 -108 524 -81 q 579 -181 579 -136 q 551 -252 579 -225 q 479 -279 524 -279 q 408 -252 435 -279 q 381 -181 381 -225 q 408 -108 381 -136 q 479 -81 435 -81 m 465 1111 l 721 964 l 671 899 l 467 982 l 256 899 l 211 964 l 465 1111 z "},"Ầ":{"ha":958,"x_min":7,"x_max":951,"o":"m 7 0 l 7 156 l 144 156 l 347 663 l 239 663 l 239 818 l 572 818 l 829 156 l 951 156 l 951 0 l 583 0 l 583 156 l 651 156 l 610 274 l 342 274 l 300 156 l 376 156 l 376 0 l 7 0 m 383 388 l 571 388 l 478 653 l 383 388 m 393 1347 l 642 1167 l 610 1106 l 322 1228 l 393 1347 m 465 1111 l 721 964 l 671 899 l 467 982 l 256 899 l 211 964 l 465 1111 z "},"Ẩ":{"ha":958,"x_min":7,"x_max":951,"o":"m 7 0 l 7 156 l 144 156 l 347 663 l 239 663 l 239 818 l 572 818 l 829 156 l 951 156 l 951 0 l 583 0 l 583 156 l 651 156 l 610 274 l 342 274 l 300 156 l 376 156 l 376 0 l 7 0 m 383 388 l 571 388 l 478 653 l 383 388 m 465 1111 l 721 964 l 671 899 l 467 982 l 256 899 l 211 964 l 465 1111 m 594 1096 q 637 1140 622 1117 q 651 1185 651 1164 q 640 1214 651 1203 q 606 1225 628 1225 q 570 1215 588 1225 q 532 1183 553 1204 l 465 1257 q 546 1319 507 1300 q 626 1339 585 1339 q 726 1305 690 1339 q 761 1218 761 1271 q 733 1125 761 1172 q 651 1044 706 1078 l 594 1096 z "},"Ẫ":{"ha":958,"x_min":7,"x_max":951,"o":"m 7 0 l 7 156 l 144 156 l 347 663 l 239 663 l 239 818 l 572 818 l 829 156 l 951 156 l 951 0 l 583 0 l 583 156 l 651 156 l 610 274 l 342 274 l 300 156 l 376 156 l 376 0 l 7 0 m 383 388 l 571 388 l 478 653 l 383 388 m 249 1244 q 322 1288 290 1275 q 393 1301 353 1301 q 442 1293 419 1301 q 493 1271 465 1285 q 538 1251 521 1257 q 575 1244 556 1244 q 628 1253 606 1244 q 690 1286 651 1261 l 704 1189 q 638 1143 668 1157 q 561 1129 607 1129 q 521 1136 540 1129 q 474 1157 501 1143 q 383 1186 421 1186 q 343 1180 361 1186 q 302 1163 325 1174 q 268 1147 279 1153 l 249 1244 m 465 1111 l 721 964 l 671 899 l 467 982 l 256 899 l 211 964 l 465 1111 z "},"Ȁ":{"ha":958,"x_min":7,"x_max":951,"o":"m 7 0 l 7 156 l 144 156 l 347 663 l 239 663 l 239 818 l 572 818 l 829 156 l 951 156 l 951 0 l 583 0 l 583 156 l 651 156 l 610 274 l 342 274 l 300 156 l 376 156 l 376 0 l 7 0 m 383 388 l 571 388 l 478 653 l 383 388 m 413 1169 l 604 956 l 557 910 l 324 1069 l 413 1169 m 164 1113 l 413 971 l 379 914 l 106 992 l 164 1113 z "},"Ä":{"ha":958,"x_min":7,"x_max":951,"o":"m 7 0 l 7 156 l 144 156 l 347 663 l 239 663 l 239 818 l 572 818 l 829 156 l 951 156 l 951 0 l 583 0 l 583 156 l 651 156 l 610 274 l 342 274 l 300 156 l 376 156 l 376 0 l 7 0 m 383 388 l 571 388 l 478 653 l 383 388 m 328 1121 q 399 1090 368 1121 q 429 1019 429 1060 q 399 948 429 978 q 328 918 368 918 q 256 948 286 918 q 226 1019 226 978 q 256 1090 226 1060 q 328 1121 286 1121 m 600 1121 q 670 1090 640 1121 q 700 1019 700 1060 q 670 948 700 978 q 600 918 640 918 q 527 948 557 918 q 497 1019 497 978 q 527 1091 497 1061 q 600 1121 557 1121 z "},"Ạ":{"ha":958,"x_min":7,"x_max":951,"o":"m 7 0 l 7 156 l 144 156 l 347 663 l 239 663 l 239 818 l 572 818 l 829 156 l 951 156 l 951 0 l 583 0 l 583 156 l 651 156 l 610 274 l 342 274 l 300 156 l 376 156 l 376 0 l 7 0 m 383 388 l 571 388 l 478 653 l 383 388 m 479 -81 q 551 -108 524 -81 q 579 -181 579 -136 q 551 -252 579 -225 q 479 -279 524 -279 q 408 -252 435 -279 q 381 -181 381 -225 q 408 -108 381 -136 q 479 -81 435 -81 z "},"À":{"ha":958,"x_min":7,"x_max":951,"o":"m 7 0 l 7 156 l 144 156 l 347 663 l 239 663 l 239 818 l 572 818 l 829 156 l 951 156 l 951 0 l 583 0 l 583 156 l 651 156 l 610 274 l 342 274 l 300 156 l 376 156 l 376 0 l 7 0 m 383 388 l 571 388 l 478 653 l 383 388 m 232 1117 l 572 992 l 547 924 l 193 975 l 232 1117 z "},"Ả":{"ha":958,"x_min":7,"x_max":951,"o":"m 7 0 l 7 156 l 144 156 l 347 663 l 239 663 l 239 818 l 572 818 l 829 156 l 951 156 l 951 0 l 583 0 l 583 156 l 651 156 l 610 274 l 342 274 l 300 156 l 376 156 l 376 0 l 7 0 m 383 388 l 571 388 l 478 653 l 383 388 m 439 931 q 481 975 467 951 q 496 1019 496 999 q 484 1049 496 1038 q 450 1060 472 1060 q 415 1049 432 1060 q 376 1018 397 1039 l 310 1092 q 390 1154 351 1135 q 471 1174 429 1174 q 570 1140 535 1174 q 606 1053 606 1106 q 578 960 606 1007 q 496 879 550 913 l 439 931 z "},"Ȃ":{"ha":958,"x_min":7,"x_max":951,"o":"m 7 0 l 7 156 l 144 156 l 347 663 l 239 663 l 239 818 l 572 818 l 829 156 l 951 156 l 951 0 l 583 0 l 583 156 l 651 156 l 610 274 l 342 274 l 300 156 l 376 156 l 376 0 l 7 0 m 383 388 l 571 388 l 478 653 l 383 388 m 465 1150 q 642 1099 578 1150 q 717 946 706 1047 l 603 932 q 565 1014 600 986 q 465 1042 531 1042 q 368 1014 403 1042 q 331 932 333 986 l 217 946 q 291 1099 228 1047 q 465 1150 354 1150 z "},"Ā":{"ha":958,"x_min":7,"x_max":951,"o":"m 7 0 l 7 156 l 144 156 l 347 663 l 239 663 l 239 818 l 572 818 l 829 156 l 951 156 l 951 0 l 583 0 l 583 156 l 651 156 l 610 274 l 342 274 l 300 156 l 376 156 l 376 0 l 7 0 m 383 388 l 571 388 l 478 653 l 383 388 m 225 1061 l 707 1061 l 707 947 l 225 947 l 225 1061 z "},"Ą":{"ha":958,"x_min":7,"x_max":951,"o":"m 796 0 q 703 -71 731 -33 q 675 -153 675 -108 q 699 -203 675 -183 q 758 -222 722 -222 q 826 -207 789 -222 l 826 -312 q 697 -339 765 -339 q 561 -302 608 -339 q 514 -207 514 -265 q 649 0 514 -83 l 583 0 l 583 156 l 651 156 l 610 274 l 342 274 l 300 156 l 376 156 l 376 0 l 7 0 l 7 156 l 144 156 l 347 663 l 239 663 l 239 818 l 572 818 l 829 156 l 951 156 l 951 0 l 796 0 m 383 388 l 571 388 l 478 653 l 383 388 z "},"Å":{"ha":969,"x_min":7,"x_max":951,"o":"m 951 156 l 951 0 l 583 0 l 583 156 l 651 156 l 610 274 l 342 274 l 300 156 l 376 156 l 376 0 l 7 0 l 7 156 l 144 156 l 347 663 l 239 663 l 239 818 l 390 818 q 342 935 342 860 q 383 1047 342 1004 q 494 1089 425 1089 q 606 1047 564 1089 q 649 935 649 1004 q 630 856 649 890 q 578 803 611 822 l 829 156 l 951 156 m 494 1008 q 441 988 461 1008 q 421 935 421 968 q 441 883 421 903 q 494 863 461 863 q 548 883 528 863 q 568 935 568 903 q 548 988 568 968 q 494 1008 528 1008 m 383 388 l 571 388 l 478 653 l 383 388 z "},"Ǻ":{"ha":969,"x_min":7,"x_max":951,"o":"m 951 156 l 951 0 l 583 0 l 583 156 l 651 156 l 610 274 l 342 274 l 300 156 l 376 156 l 376 0 l 7 0 l 7 156 l 144 156 l 347 663 l 239 663 l 239 818 l 390 818 q 342 935 342 860 q 383 1047 342 1004 q 494 1089 425 1089 q 606 1047 564 1089 q 649 935 649 1004 q 630 856 649 890 q 578 803 611 822 l 829 156 l 951 156 m 494 1008 q 441 988 461 1008 q 421 935 421 968 q 441 883 421 903 q 494 863 461 863 q 548 883 528 863 q 568 935 568 903 q 548 988 568 968 q 494 1008 528 1008 m 383 388 l 571 388 l 478 653 l 383 388 m 715 1338 l 754 1194 l 403 1144 l 378 1211 l 715 1338 z "},"Ã":{"ha":958,"x_min":7,"x_max":951,"o":"m 7 0 l 7 156 l 144 156 l 347 663 l 239 663 l 239 818 l 572 818 l 829 156 l 951 156 l 951 0 l 583 0 l 583 156 l 651 156 l 610 274 l 342 274 l 300 156 l 376 156 l 376 0 l 7 0 m 383 388 l 571 388 l 478 653 l 383 388 m 219 1033 q 306 1088 269 1072 q 392 1104 343 1104 q 441 1096 418 1104 q 492 1074 464 1088 q 536 1053 518 1060 q 574 1047 554 1047 q 627 1056 604 1047 q 689 1089 650 1064 l 728 996 q 649 939 686 956 q 557 922 611 922 q 517 929 536 922 q 469 950 497 936 q 379 979 417 979 q 339 973 357 979 q 298 956 321 967 q 264 940 275 946 l 219 1033 z "},"Æ":{"ha":1314,"x_min":40,"x_max":1272,"o":"m 40 0 l 40 156 l 169 156 l 476 663 l 351 663 l 351 818 l 1153 818 l 1239 561 l 1090 511 l 1040 663 l 810 663 l 810 492 l 1035 492 l 1035 338 l 810 338 l 810 156 l 1076 156 l 1126 292 l 1272 240 l 1189 0 l 515 0 l 515 156 l 631 156 l 631 246 l 393 246 l 340 156 l 411 156 l 411 0 l 40 0 m 481 400 l 631 400 l 631 663 l 481 400 z "},"Ǽ":{"ha":1314,"x_min":40,"x_max":1272,"o":"m 40 0 l 40 156 l 169 156 l 476 663 l 351 663 l 351 818 l 1153 818 l 1239 561 l 1090 511 l 1040 663 l 810 663 l 810 492 l 1035 492 l 1035 338 l 810 338 l 810 156 l 1076 156 l 1126 292 l 1272 240 l 1189 0 l 515 0 l 515 156 l 631 156 l 631 246 l 393 246 l 340 156 l 411 156 l 411 0 l 40 0 m 481 400 l 631 400 l 631 663 l 481 400 m 958 1113 l 997 969 l 646 919 l 621 986 l 958 1113 z "},"B":{"ha":842,"x_min":60,"x_max":793,"o":"m 60 156 l 172 156 l 172 663 l 60 663 l 60 818 l 428 818 q 681 760 593 818 q 768 596 768 703 q 740 488 768 533 q 658 415 711 442 q 758 348 724 396 q 793 225 793 300 q 722 58 793 117 q 514 0 650 0 l 60 0 l 60 156 m 492 479 q 559 503 536 479 q 582 569 582 526 q 547 639 582 615 q 443 663 511 663 l 351 663 l 351 479 l 492 479 m 482 156 q 576 179 543 156 q 608 249 608 203 q 578 316 608 293 q 490 339 547 339 l 351 339 l 351 156 l 482 156 z "},"C":{"ha":860,"x_min":58,"x_max":801,"o":"m 619 676 q 572 689 619 679 q 486 699 525 699 q 307 624 369 699 q 244 411 244 550 q 308 195 244 271 q 486 119 371 119 q 547 127 517 119 q 595 143 576 135 q 619 154 614 151 l 650 279 l 800 244 l 756 35 q 716 16 756 33 q 617 -16 676 -1 q 486 -31 557 -31 q 173 79 288 -31 q 58 411 58 189 q 111 646 58 547 q 260 797 164 744 q 485 849 357 849 q 622 832 561 849 q 722 797 683 815 q 760 775 760 778 l 801 567 l 650 533 l 619 676 z "},"Ć":{"ha":860,"x_min":58,"x_max":801,"o":"m 619 676 q 572 689 619 679 q 486 699 525 699 q 307 624 369 699 q 244 411 244 550 q 308 195 244 271 q 486 119 371 119 q 547 127 517 119 q 595 143 576 135 q 619 154 614 151 l 650 279 l 800 244 l 756 35 q 716 16 756 33 q 617 -16 676 -1 q 486 -31 557 -31 q 173 79 288 -31 q 58 411 58 189 q 111 646 58 547 q 260 797 164 744 q 485 849 357 849 q 622 832 561 849 q 722 797 683 815 q 760 775 760 778 l 801 567 l 650 533 l 619 676 m 699 1113 l 738 969 l 386 919 l 361 986 l 699 1113 z "},"Č":{"ha":860,"x_min":58,"x_max":801,"o":"m 619 676 q 572 689 619 679 q 486 699 525 699 q 307 624 369 699 q 244 411 244 550 q 308 195 244 271 q 486 119 371 119 q 547 127 517 119 q 595 143 576 135 q 619 154 614 151 l 650 279 l 800 244 l 756 35 q 716 16 756 33 q 617 -16 676 -1 q 486 -31 557 -31 q 173 79 288 -31 q 58 411 58 189 q 111 646 58 547 q 260 797 164 744 q 485 849 357 849 q 622 832 561 849 q 722 797 683 815 q 760 775 760 778 l 801 567 l 650 533 l 619 676 m 481 894 l 240 1061 l 289 1135 l 482 1025 l 661 1135 l 717 1061 l 481 894 z "},"Ç":{"ha":860,"x_min":58,"x_max":801,"o":"m 650 279 l 800 244 l 756 35 q 720 17 749 31 q 642 -10 692 4 q 533 -29 593 -24 l 533 -65 q 673 -92 628 -62 q 718 -187 718 -121 q 665 -296 718 -260 q 531 -332 611 -332 q 433 -313 476 -332 q 347 -265 389 -294 l 397 -193 q 460 -224 431 -214 q 529 -235 489 -235 q 570 -219 557 -235 q 583 -179 583 -204 q 568 -148 583 -161 q 515 -135 553 -135 l 425 -135 l 425 -28 q 156 98 253 -11 q 58 411 58 207 q 111 646 58 547 q 260 797 164 744 q 485 849 357 849 q 622 832 561 849 q 722 797 683 815 q 760 775 760 778 l 801 567 l 650 533 l 619 676 q 572 689 619 679 q 486 699 525 699 q 307 624 369 699 q 244 411 244 550 q 308 195 244 271 q 486 119 371 119 q 547 127 517 119 q 595 143 576 135 q 619 154 614 151 l 650 279 z "},"Ḉ":{"ha":860,"x_min":58,"x_max":801,"o":"m 738 969 l 386 919 l 361 986 l 699 1113 l 738 969 m 650 279 l 800 244 l 756 35 q 720 17 749 31 q 642 -10 692 4 q 533 -29 593 -24 l 533 -65 q 673 -92 628 -62 q 718 -187 718 -121 q 665 -296 718 -260 q 531 -332 611 -332 q 433 -313 476 -332 q 347 -265 389 -294 l 397 -193 q 460 -224 431 -214 q 529 -235 489 -235 q 570 -219 557 -235 q 583 -179 583 -204 q 568 -148 583 -161 q 515 -135 553 -135 l 425 -135 l 425 -28 q 156 98 253 -11 q 58 411 58 207 q 111 646 58 547 q 260 797 164 744 q 485 849 357 849 q 622 832 561 849 q 722 797 683 815 q 760 775 760 778 l 801 567 l 650 533 l 619 676 q 572 689 619 679 q 486 699 525 699 q 307 624 369 699 q 244 411 244 550 q 308 195 244 271 q 486 119 371 119 q 547 127 517 119 q 595 143 576 135 q 619 154 614 151 l 650 279 z "},"Ĉ":{"ha":860,"x_min":58,"x_max":801,"o":"m 619 676 q 572 689 619 679 q 486 699 525 699 q 307 624 369 699 q 244 411 244 550 q 308 195 244 271 q 486 119 371 119 q 547 127 517 119 q 595 143 576 135 q 619 154 614 151 l 650 279 l 800 244 l 756 35 q 716 16 756 33 q 617 -16 676 -1 q 486 -31 557 -31 q 173 79 288 -31 q 58 411 58 189 q 111 646 58 547 q 260 797 164 744 q 485 849 357 849 q 622 832 561 849 q 722 797 683 815 q 760 775 760 778 l 801 567 l 650 533 l 619 676 m 479 1111 l 735 964 l 685 899 l 481 982 l 269 899 l 225 964 l 479 1111 z "},"Ċ":{"ha":860,"x_min":58,"x_max":801,"o":"m 619 676 q 572 689 619 679 q 486 699 525 699 q 307 624 369 699 q 244 411 244 550 q 308 195 244 271 q 486 119 371 119 q 547 127 517 119 q 595 143 576 135 q 619 154 614 151 l 650 279 l 800 244 l 756 35 q 716 16 756 33 q 617 -16 676 -1 q 486 -31 557 -31 q 173 79 288 -31 q 58 411 58 189 q 111 646 58 547 q 260 797 164 744 q 485 849 357 849 q 622 832 561 849 q 722 797 683 815 q 760 775 760 778 l 801 567 l 650 533 l 619 676 m 479 1121 q 551 1093 524 1121 q 579 1021 579 1065 q 551 949 579 976 q 479 922 524 922 q 408 949 435 922 q 381 1021 381 976 q 408 1093 381 1065 q 479 1121 435 1121 z "},"D":{"ha":940,"x_min":60,"x_max":885,"o":"m 443 818 q 768 706 651 818 q 885 393 885 593 q 771 103 885 207 q 454 0 657 0 l 60 0 l 60 156 l 172 156 l 172 663 l 60 663 l 60 818 l 443 818 m 429 156 q 630 215 561 156 q 699 392 699 275 q 634 594 699 525 q 443 663 569 663 l 351 663 l 351 156 l 429 156 z "},"Ð":{"ha":965,"x_min":82,"x_max":907,"o":"m 465 818 q 792 717 678 818 q 907 393 907 617 q 793 91 907 182 q 476 0 679 0 l 82 0 l 82 156 l 194 156 l 194 346 l 82 346 l 82 500 l 194 500 l 194 663 l 82 663 l 82 818 l 465 818 m 451 156 q 608 174 550 156 q 693 244 665 193 q 721 392 721 296 q 660 602 721 542 q 465 663 600 663 l 374 663 l 374 500 l 499 500 l 499 346 l 374 346 l 374 156 l 451 156 z "},"Ď":{"ha":940,"x_min":60,"x_max":885,"o":"m 443 818 q 768 706 651 818 q 885 393 885 593 q 771 103 885 207 q 454 0 657 0 l 60 0 l 60 156 l 172 156 l 172 663 l 60 663 l 60 818 l 443 818 m 429 156 q 630 215 561 156 q 699 392 699 275 q 634 594 699 525 q 443 663 569 663 l 351 663 l 351 156 l 429 156 m 422 882 l 168 1029 l 213 1094 l 424 1011 l 628 1094 l 678 1029 l 422 882 z "},"Đ":{"ha":965,"x_min":82,"x_max":907,"o":"m 465 818 q 792 717 678 818 q 907 393 907 617 q 793 91 907 182 q 476 0 679 0 l 82 0 l 82 156 l 194 156 l 194 346 l 82 346 l 82 500 l 194 500 l 194 663 l 82 663 l 82 818 l 465 818 m 451 156 q 608 174 550 156 q 693 244 665 193 q 721 392 721 296 q 660 602 721 542 q 465 663 600 663 l 374 663 l 374 500 l 499 500 l 499 346 l 374 346 l 374 156 l 451 156 z "},"Ḍ":{"ha":940,"x_min":60,"x_max":885,"o":"m 443 818 q 768 706 651 818 q 885 393 885 593 q 771 103 885 207 q 454 0 657 0 l 60 0 l 60 156 l 172 156 l 172 663 l 60 663 l 60 818 l 443 818 m 429 156 q 630 215 561 156 q 699 392 699 275 q 634 594 699 525 q 443 663 569 663 l 351 663 l 351 156 l 429 156 m 436 -81 q 508 -108 481 -81 q 536 -181 536 -136 q 508 -252 536 -225 q 436 -279 481 -279 q 365 -252 392 -279 q 338 -181 338 -225 q 365 -108 338 -136 q 436 -81 392 -81 z "},"Ḏ":{"ha":940,"x_min":60,"x_max":885,"o":"m 443 818 q 768 706 651 818 q 885 393 885 593 q 771 103 885 207 q 454 0 657 0 l 60 0 l 60 156 l 172 156 l 172 663 l 60 663 l 60 818 l 443 818 m 429 156 q 630 215 561 156 q 699 392 699 275 q 634 594 699 525 q 443 663 569 663 l 351 663 l 351 156 l 429 156 m 204 -83 l 669 -83 l 669 -196 l 204 -196 l 204 -83 z "},"E":{"ha":857,"x_min":60,"x_max":815,"o":"m 61 818 l 696 818 l 782 561 l 635 511 l 583 663 l 353 663 l 353 492 l 579 492 l 579 338 l 353 338 l 353 156 l 621 156 l 669 292 l 815 240 l 732 0 l 60 0 l 60 156 l 172 156 l 174 663 l 61 663 l 61 818 z "},"É":{"ha":857,"x_min":60,"x_max":815,"o":"m 61 818 l 696 818 l 782 561 l 635 511 l 583 663 l 353 663 l 353 492 l 579 492 l 579 338 l 353 338 l 353 156 l 621 156 l 669 292 l 815 240 l 732 0 l 60 0 l 60 156 l 172 156 l 174 663 l 61 663 l 61 818 m 636 1113 l 675 969 l 324 919 l 299 986 l 636 1113 z "},"Ĕ":{"ha":857,"x_min":60,"x_max":815,"o":"m 61 818 l 696 818 l 782 561 l 635 511 l 583 663 l 353 663 l 353 492 l 579 492 l 579 338 l 353 338 l 353 156 l 621 156 l 669 292 l 815 240 l 732 0 l 60 0 l 60 156 l 172 156 l 174 663 l 61 663 l 61 818 m 417 918 q 242 969 306 918 q 168 1122 179 1021 l 282 1136 q 319 1054 285 1082 q 417 1026 354 1026 q 517 1054 482 1026 q 554 1136 551 1082 l 668 1122 q 593 969 657 1021 q 417 918 529 918 z "},"Ě":{"ha":857,"x_min":60,"x_max":815,"o":"m 61 818 l 696 818 l 782 561 l 635 511 l 583 663 l 353 663 l 353 492 l 579 492 l 579 338 l 353 338 l 353 156 l 621 156 l 669 292 l 815 240 l 732 0 l 60 0 l 60 156 l 172 156 l 174 663 l 61 663 l 61 818 m 418 894 l 178 1061 l 226 1135 l 419 1025 l 599 1135 l 654 1061 l 418 894 z "},"Ḝ":{"ha":857,"x_min":60,"x_max":815,"o":"m 61 818 l 696 818 l 782 561 l 635 511 l 583 663 l 353 663 l 353 492 l 579 492 l 579 338 l 353 338 l 353 156 l 621 156 l 669 292 l 815 240 l 732 0 l 60 0 l 60 156 l 172 156 l 174 663 l 61 663 l 61 818 m 524 -332 q 426 -313 469 -332 q 340 -265 382 -294 l 390 -193 q 453 -224 424 -214 q 522 -235 482 -235 q 563 -219 550 -235 q 576 -179 576 -204 q 561 -148 576 -161 q 508 -135 546 -135 l 418 -135 l 418 0 l 526 0 l 526 -65 q 666 -92 621 -62 q 711 -187 711 -121 q 658 -296 711 -260 q 524 -332 604 -332 m 417 918 q 242 969 306 918 q 168 1122 179 1021 l 282 1136 q 319 1054 285 1082 q 417 1026 354 1026 q 517 1054 482 1026 q 554 1136 551 1082 l 668 1122 q 593 969 657 1021 q 417 918 529 918 z "},"Ê":{"ha":857,"x_min":60,"x_max":815,"o":"m 61 818 l 696 818 l 782 561 l 635 511 l 583 663 l 353 663 l 353 492 l 579 492 l 579 338 l 353 338 l 353 156 l 621 156 l 669 292 l 815 240 l 732 0 l 60 0 l 60 156 l 172 156 l 174 663 l 61 663 l 61 818 m 417 1111 l 672 964 l 622 899 l 418 982 l 207 899 l 163 964 l 417 1111 z "},"Ế":{"ha":857,"x_min":60,"x_max":815,"o":"m 61 818 l 696 818 l 782 561 l 635 511 l 583 663 l 353 663 l 353 492 l 579 492 l 579 338 l 353 338 l 353 156 l 621 156 l 669 292 l 815 240 l 732 0 l 60 0 l 60 156 l 172 156 l 174 663 l 61 663 l 61 818 m 511 1361 l 582 1242 l 294 1119 l 263 1181 l 511 1361 m 417 1111 l 672 964 l 622 899 l 418 982 l 207 899 l 163 964 l 417 1111 z "},"Ệ":{"ha":857,"x_min":60,"x_max":815,"o":"m 61 818 l 696 818 l 782 561 l 635 511 l 583 663 l 353 663 l 353 492 l 579 492 l 579 338 l 353 338 l 353 156 l 621 156 l 669 292 l 815 240 l 732 0 l 60 0 l 60 156 l 172 156 l 174 663 l 61 663 l 61 818 m 417 -81 q 489 -108 461 -81 q 517 -181 517 -136 q 489 -252 517 -225 q 417 -279 461 -279 q 345 -252 372 -279 q 318 -181 318 -225 q 345 -108 318 -136 q 417 -81 372 -81 m 417 1111 l 672 964 l 622 899 l 418 982 l 207 899 l 163 964 l 417 1111 z "},"Ề":{"ha":857,"x_min":60,"x_max":815,"o":"m 61 818 l 696 818 l 782 561 l 635 511 l 583 663 l 353 663 l 353 492 l 579 492 l 579 338 l 353 338 l 353 156 l 621 156 l 669 292 l 815 240 l 732 0 l 60 0 l 60 156 l 172 156 l 174 663 l 61 663 l 61 818 m 344 1347 l 593 1167 l 561 1106 l 274 1228 l 344 1347 m 417 1111 l 672 964 l 622 899 l 418 982 l 207 899 l 163 964 l 417 1111 z "},"Ể":{"ha":857,"x_min":60,"x_max":815,"o":"m 61 818 l 696 818 l 782 561 l 635 511 l 583 663 l 353 663 l 353 492 l 579 492 l 579 338 l 353 338 l 353 156 l 621 156 l 669 292 l 815 240 l 732 0 l 60 0 l 60 156 l 172 156 l 174 663 l 61 663 l 61 818 m 417 1111 l 672 964 l 622 899 l 418 982 l 207 899 l 163 964 l 417 1111 m 546 1096 q 588 1140 574 1117 q 603 1185 603 1164 q 591 1214 603 1203 q 557 1225 579 1225 q 522 1215 539 1225 q 483 1183 504 1204 l 417 1257 q 497 1319 458 1300 q 578 1339 536 1339 q 677 1305 642 1339 q 713 1218 713 1271 q 685 1125 713 1172 q 603 1044 657 1078 l 546 1096 z "},"Ễ":{"ha":857,"x_min":60,"x_max":815,"o":"m 61 818 l 696 818 l 782 561 l 635 511 l 583 663 l 353 663 l 353 492 l 579 492 l 579 338 l 353 338 l 353 156 l 621 156 l 669 292 l 815 240 l 732 0 l 60 0 l 60 156 l 172 156 l 174 663 l 61 663 l 61 818 m 200 1244 q 273 1288 242 1275 q 344 1301 304 1301 q 394 1293 371 1301 q 444 1271 417 1285 q 490 1251 472 1257 q 526 1244 507 1244 q 580 1253 557 1244 q 642 1286 603 1261 l 656 1189 q 589 1143 619 1157 q 513 1129 558 1129 q 472 1136 492 1129 q 425 1157 453 1143 q 335 1186 372 1186 q 294 1180 313 1186 q 253 1163 276 1174 q 219 1147 231 1153 l 200 1244 m 417 1111 l 672 964 l 622 899 l 418 982 l 207 899 l 163 964 l 417 1111 z "},"Ȅ":{"ha":857,"x_min":24,"x_max":815,"o":"m 61 818 l 696 818 l 782 561 l 635 511 l 583 663 l 353 663 l 353 492 l 579 492 l 579 338 l 353 338 l 353 156 l 621 156 l 669 292 l 815 240 l 732 0 l 60 0 l 60 156 l 172 156 l 174 663 l 61 663 l 61 818 m 408 1257 l 590 956 l 517 907 l 292 1171 l 408 1257 m 119 1228 l 357 969 l 294 907 l 24 1124 l 119 1228 z "},"Ë":{"ha":857,"x_min":60,"x_max":815,"o":"m 61 818 l 696 818 l 782 561 l 635 511 l 583 663 l 353 663 l 353 492 l 579 492 l 579 338 l 353 338 l 353 156 l 621 156 l 669 292 l 815 240 l 732 0 l 60 0 l 60 156 l 172 156 l 174 663 l 61 663 l 61 818 m 279 1121 q 350 1090 319 1121 q 381 1019 381 1060 q 350 948 381 978 q 279 918 319 918 q 208 948 238 918 q 178 1019 178 978 q 208 1090 178 1060 q 279 1121 238 1121 m 551 1121 q 622 1090 592 1121 q 651 1019 651 1060 q 622 948 651 978 q 551 918 592 918 q 478 948 508 918 q 449 1019 449 978 q 478 1091 449 1061 q 551 1121 508 1121 z "},"Ė":{"ha":857,"x_min":60,"x_max":815,"o":"m 61 818 l 696 818 l 782 561 l 635 511 l 583 663 l 353 663 l 353 492 l 579 492 l 579 338 l 353 338 l 353 156 l 621 156 l 669 292 l 815 240 l 732 0 l 60 0 l 60 156 l 172 156 l 174 663 l 61 663 l 61 818 m 417 1121 q 489 1093 461 1121 q 517 1021 517 1065 q 489 949 517 976 q 417 922 461 922 q 345 949 372 922 q 318 1021 318 976 q 345 1093 318 1065 q 417 1121 372 1121 z "},"Ẹ":{"ha":857,"x_min":60,"x_max":815,"o":"m 61 818 l 696 818 l 782 561 l 635 511 l 583 663 l 353 663 l 353 492 l 579 492 l 579 338 l 353 338 l 353 156 l 621 156 l 669 292 l 815 240 l 732 0 l 60 0 l 60 156 l 172 156 l 174 663 l 61 663 l 61 818 m 417 -81 q 489 -108 461 -81 q 517 -181 517 -136 q 489 -252 517 -225 q 417 -279 461 -279 q 345 -252 372 -279 q 318 -181 318 -225 q 345 -108 318 -136 q 417 -81 372 -81 z "},"È":{"ha":857,"x_min":60,"x_max":815,"o":"m 61 818 l 696 818 l 782 561 l 635 511 l 583 663 l 353 663 l 353 492 l 579 492 l 579 338 l 353 338 l 353 156 l 621 156 l 669 292 l 815 240 l 732 0 l 60 0 l 60 156 l 172 156 l 174 663 l 61 663 l 61 818 m 183 1117 l 524 992 l 499 924 l 144 975 l 183 1117 z "},"Ẻ":{"ha":857,"x_min":60,"x_max":815,"o":"m 61 818 l 696 818 l 782 561 l 635 511 l 583 663 l 353 663 l 353 492 l 579 492 l 579 338 l 353 338 l 353 156 l 621 156 l 669 292 l 815 240 l 732 0 l 60 0 l 60 156 l 172 156 l 174 663 l 61 663 l 61 818 m 390 931 q 433 975 418 951 q 447 1019 447 999 q 435 1049 447 1038 q 401 1060 424 1060 q 366 1049 383 1060 q 328 1018 349 1039 l 261 1092 q 342 1154 303 1135 q 422 1174 381 1174 q 522 1140 486 1174 q 557 1053 557 1106 q 529 960 557 1007 q 447 879 501 913 l 390 931 z "},"Ȇ":{"ha":857,"x_min":60,"x_max":815,"o":"m 61 818 l 696 818 l 782 561 l 635 511 l 583 663 l 353 663 l 353 492 l 579 492 l 579 338 l 353 338 l 353 156 l 621 156 l 669 292 l 815 240 l 732 0 l 60 0 l 60 156 l 172 156 l 174 663 l 61 663 l 61 818 m 417 1150 q 593 1099 529 1150 q 668 946 657 1047 l 554 932 q 517 1014 551 986 q 417 1042 482 1042 q 319 1014 354 1042 q 282 932 285 986 l 168 946 q 242 1099 179 1047 q 417 1150 306 1150 z "},"Ē":{"ha":857,"x_min":60,"x_max":815,"o":"m 61 818 l 696 818 l 782 561 l 635 511 l 583 663 l 353 663 l 353 492 l 579 492 l 579 338 l 353 338 l 353 156 l 621 156 l 669 292 l 815 240 l 732 0 l 60 0 l 60 156 l 172 156 l 174 663 l 61 663 l 61 818 m 176 1061 l 658 1061 l 658 947 l 176 947 l 176 1061 z "},"Ḗ":{"ha":857,"x_min":60,"x_max":815,"o":"m 61 818 l 696 818 l 782 561 l 635 511 l 583 663 l 353 663 l 353 492 l 579 492 l 579 338 l 353 338 l 353 156 l 621 156 l 669 292 l 815 240 l 732 0 l 60 0 l 60 156 l 172 156 l 174 663 l 61 663 l 61 818 m 176 1061 l 658 1061 l 658 947 l 176 947 l 176 1061 m 635 1314 l 674 1171 l 322 1121 l 297 1188 l 635 1314 z "},"Ḕ":{"ha":857,"x_min":60,"x_max":815,"o":"m 61 818 l 696 818 l 782 561 l 635 511 l 583 663 l 353 663 l 353 492 l 579 492 l 579 338 l 353 338 l 353 156 l 621 156 l 669 292 l 815 240 l 732 0 l 60 0 l 60 156 l 172 156 l 174 663 l 61 663 l 61 818 m 176 1061 l 658 1061 l 658 947 l 176 947 l 176 1061 m 182 1318 l 522 1193 l 497 1125 l 143 1176 l 182 1318 z "},"Ę":{"ha":857,"x_min":60,"x_max":815,"o":"m 611 -153 q 635 -203 611 -183 q 694 -222 658 -222 q 763 -207 725 -222 l 763 -312 q 633 -339 701 -339 q 497 -302 544 -339 q 450 -207 450 -265 q 585 0 450 -83 l 60 0 l 60 156 l 172 156 l 174 663 l 61 663 l 61 818 l 696 818 l 782 561 l 635 511 l 583 663 l 353 663 l 353 492 l 579 492 l 579 338 l 353 338 l 353 156 l 621 156 l 669 292 l 815 240 l 732 0 q 639 -71 667 -33 q 611 -153 611 -108 z "},"Ẽ":{"ha":857,"x_min":60,"x_max":815,"o":"m 61 818 l 696 818 l 782 561 l 635 511 l 583 663 l 353 663 l 353 492 l 579 492 l 579 338 l 353 338 l 353 156 l 621 156 l 669 292 l 815 240 l 732 0 l 60 0 l 60 156 l 172 156 l 174 663 l 61 663 l 61 818 m 171 1033 q 258 1088 221 1072 q 343 1104 294 1104 q 392 1096 369 1104 q 443 1074 415 1088 q 488 1053 469 1060 q 525 1047 506 1047 q 578 1056 556 1047 q 640 1089 601 1064 l 679 996 q 600 939 638 956 q 508 922 563 922 q 468 929 488 922 q 421 950 449 936 q 331 979 368 979 q 290 973 308 979 q 249 956 272 967 q 215 940 226 946 l 171 1033 z "},"F":{"ha":822,"x_min":60,"x_max":786,"o":"m 60 818 l 697 818 l 786 550 l 639 500 l 585 663 l 351 663 l 351 489 l 560 489 l 560 333 l 350 333 l 350 156 l 529 156 l 529 0 l 60 0 l 60 156 l 174 156 l 175 663 l 60 663 l 60 818 z "},"G":{"ha":886,"x_min":57,"x_max":813,"o":"m 801 83 q 653 -2 722 26 q 485 -31 583 -31 q 261 24 358 -31 q 110 178 164 79 q 57 408 57 278 q 108 640 57 540 q 257 793 160 739 q 488 847 354 847 q 641 825 569 847 q 767 764 713 803 l 813 564 l 667 526 l 633 671 q 492 701 574 701 q 368 665 425 701 q 277 561 311 628 q 243 408 243 494 q 309 202 243 281 q 482 124 375 124 q 631 157 551 124 l 631 289 l 453 289 l 453 428 l 801 428 l 801 83 z "},"Ğ":{"ha":886,"x_min":57,"x_max":813,"o":"m 801 83 q 653 -2 722 26 q 485 -31 583 -31 q 261 24 358 -31 q 110 178 164 79 q 57 408 57 278 q 108 640 57 540 q 257 793 160 739 q 488 847 354 847 q 641 825 569 847 q 767 764 713 803 l 813 564 l 667 526 l 633 671 q 492 701 574 701 q 368 665 425 701 q 277 561 311 628 q 243 408 243 494 q 309 202 243 281 q 482 124 375 124 q 631 157 551 124 l 631 289 l 453 289 l 453 428 l 801 428 l 801 83 m 489 918 q 315 969 378 918 q 240 1122 251 1021 l 354 1136 q 392 1054 357 1082 q 489 1026 426 1026 q 589 1054 554 1026 q 626 1136 624 1082 l 740 1122 q 665 969 729 1021 q 489 918 601 918 z "},"Ǧ":{"ha":886,"x_min":57,"x_max":813,"o":"m 801 83 q 653 -2 722 26 q 485 -31 583 -31 q 261 24 358 -31 q 110 178 164 79 q 57 408 57 278 q 108 640 57 540 q 257 793 160 739 q 488 847 354 847 q 641 825 569 847 q 767 764 713 803 l 813 564 l 667 526 l 633 671 q 492 701 574 701 q 368 665 425 701 q 277 561 311 628 q 243 408 243 494 q 309 202 243 281 q 482 124 375 124 q 631 157 551 124 l 631 289 l 453 289 l 453 428 l 801 428 l 801 83 m 490 894 l 250 1061 l 299 1135 l 492 1025 l 671 1135 l 726 1061 l 490 894 z "},"Ĝ":{"ha":886,"x_min":57,"x_max":813,"o":"m 801 83 q 653 -2 722 26 q 485 -31 583 -31 q 261 24 358 -31 q 110 178 164 79 q 57 408 57 278 q 108 640 57 540 q 257 793 160 739 q 488 847 354 847 q 641 825 569 847 q 767 764 713 803 l 813 564 l 667 526 l 633 671 q 492 701 574 701 q 368 665 425 701 q 277 561 311 628 q 243 408 243 494 q 309 202 243 281 q 482 124 375 124 q 631 157 551 124 l 631 289 l 453 289 l 453 428 l 801 428 l 801 83 m 489 1111 l 744 964 l 694 899 l 490 982 l 279 899 l 235 964 l 489 1111 z "},"Ģ":{"ha":886,"x_min":57,"x_max":813,"o":"m 801 83 q 653 -2 722 26 q 485 -31 583 -31 q 261 24 358 -31 q 110 178 164 79 q 57 408 57 278 q 108 640 57 540 q 257 793 160 739 q 488 847 354 847 q 641 825 569 847 q 767 764 713 803 l 813 564 l 667 526 l 633 671 q 492 701 574 701 q 368 665 425 701 q 277 561 311 628 q 243 408 243 494 q 309 202 243 281 q 482 124 375 124 q 631 157 551 124 l 631 289 l 453 289 l 453 428 l 801 428 l 801 83 m 389 -417 q 420 -374 397 -407 q 457 -311 443 -340 q 392 -271 413 -300 q 371 -206 371 -242 q 403 -123 371 -154 q 489 -92 436 -92 q 572 -128 535 -92 q 608 -212 608 -164 q 566 -343 608 -285 q 487 -435 524 -401 q 442 -476 450 -468 l 389 -417 z "},"Ġ":{"ha":886,"x_min":57,"x_max":813,"o":"m 801 83 q 653 -2 722 26 q 485 -31 583 -31 q 261 24 358 -31 q 110 178 164 79 q 57 408 57 278 q 108 640 57 540 q 257 793 160 739 q 488 847 354 847 q 641 825 569 847 q 767 764 713 803 l 813 564 l 667 526 l 633 671 q 492 701 574 701 q 368 665 425 701 q 277 561 311 628 q 243 408 243 494 q 309 202 243 281 q 482 124 375 124 q 631 157 551 124 l 631 289 l 453 289 l 453 428 l 801 428 l 801 83 m 489 1121 q 561 1093 533 1121 q 589 1021 589 1065 q 561 949 589 976 q 489 922 533 922 q 417 949 444 922 q 390 1021 390 976 q 417 1093 390 1065 q 489 1121 444 1121 z "},"Ḡ":{"ha":886,"x_min":57,"x_max":813,"o":"m 801 83 q 653 -2 722 26 q 485 -31 583 -31 q 261 24 358 -31 q 110 178 164 79 q 57 408 57 278 q 108 640 57 540 q 257 793 160 739 q 488 847 354 847 q 641 825 569 847 q 767 764 713 803 l 813 564 l 667 526 l 633 671 q 492 701 574 701 q 368 665 425 701 q 277 561 311 628 q 243 408 243 494 q 309 202 243 281 q 482 124 375 124 q 631 157 551 124 l 631 289 l 453 289 l 453 428 l 801 428 l 801 83 m 249 1061 l 731 1061 l 731 947 l 249 947 l 249 1061 z "},"H":{"ha":1035,"x_min":60,"x_max":975,"o":"m 60 818 l 428 817 l 428 663 l 351 663 l 351 490 l 683 490 l 683 663 l 607 663 l 607 818 l 975 818 l 975 663 l 863 663 l 863 156 l 975 156 l 975 0 l 610 0 l 610 156 l 683 156 l 683 335 l 351 335 l 351 156 l 425 156 l 425 0 l 60 0 l 60 156 l 172 156 l 172 663 l 60 663 l 60 818 z "},"Ħ":{"ha":1035,"x_min":60,"x_max":975,"o":"m 975 663 l 863 663 l 863 625 l 957 625 l 957 543 l 863 543 l 863 156 l 975 156 l 975 0 l 610 0 l 610 156 l 683 156 l 683 335 l 351 335 l 351 156 l 425 156 l 425 0 l 60 0 l 60 156 l 172 156 l 172 543 l 72 543 l 72 625 l 172 625 l 172 663 l 60 663 l 60 818 l 428 817 l 428 663 l 351 663 l 351 625 l 683 625 l 683 663 l 607 663 l 607 818 l 975 818 l 975 663 m 683 490 l 683 543 l 351 543 l 351 490 l 683 490 z "},"Ḫ":{"ha":1035,"x_min":60,"x_max":975,"o":"m 60 818 l 428 817 l 428 663 l 351 663 l 351 490 l 683 490 l 683 663 l 607 663 l 607 818 l 975 818 l 975 663 l 863 663 l 863 156 l 975 156 l 975 0 l 610 0 l 610 156 l 683 156 l 683 335 l 351 335 l 351 156 l 425 156 l 425 0 l 60 0 l 60 156 l 172 156 l 172 663 l 60 663 l 60 818 m 517 -297 q 342 -246 406 -297 q 268 -93 279 -194 l 382 -79 q 419 -161 385 -133 q 517 -189 454 -189 q 617 -161 582 -189 q 654 -79 651 -133 l 768 -93 q 693 -246 757 -194 q 517 -297 629 -297 z "},"Ĥ":{"ha":1035,"x_min":60,"x_max":975,"o":"m 60 818 l 428 817 l 428 663 l 351 663 l 351 490 l 683 490 l 683 663 l 607 663 l 607 818 l 975 818 l 975 663 l 863 663 l 863 156 l 975 156 l 975 0 l 610 0 l 610 156 l 683 156 l 683 335 l 351 335 l 351 156 l 425 156 l 425 0 l 60 0 l 60 156 l 172 156 l 172 663 l 60 663 l 60 818 m 517 1111 l 772 964 l 722 899 l 518 982 l 307 899 l 263 964 l 517 1111 z "},"Ḥ":{"ha":1035,"x_min":60,"x_max":975,"o":"m 60 818 l 428 817 l 428 663 l 351 663 l 351 490 l 683 490 l 683 663 l 607 663 l 607 818 l 975 818 l 975 663 l 863 663 l 863 156 l 975 156 l 975 0 l 610 0 l 610 156 l 683 156 l 683 335 l 351 335 l 351 156 l 425 156 l 425 0 l 60 0 l 60 156 l 172 156 l 172 663 l 60 663 l 60 818 m 517 -81 q 589 -108 561 -81 q 617 -181 617 -136 q 589 -252 617 -225 q 517 -279 561 -279 q 445 -252 472 -279 q 418 -181 418 -225 q 445 -108 418 -136 q 517 -81 472 -81 z "},"I":{"ha":563,"x_min":60,"x_max":503,"o":"m 61 818 l 503 818 l 503 663 l 371 663 l 371 156 l 503 156 l 503 0 l 60 0 l 60 156 l 193 156 l 193 663 l 61 663 l 61 818 z "},"Í":{"ha":563,"x_min":60,"x_max":539,"o":"m 61 818 l 503 818 l 503 663 l 371 663 l 371 156 l 503 156 l 503 0 l 60 0 l 60 156 l 193 156 l 193 663 l 61 663 l 61 818 m 500 1113 l 539 969 l 188 919 l 163 986 l 500 1113 z "},"Ĭ":{"ha":563,"x_min":32,"x_max":532,"o":"m 61 818 l 503 818 l 503 663 l 371 663 l 371 156 l 503 156 l 503 0 l 60 0 l 60 156 l 193 156 l 193 663 l 61 663 l 61 818 m 281 918 q 106 969 169 918 q 32 1122 43 1021 l 146 1136 q 183 1054 149 1082 q 281 1026 218 1026 q 381 1054 346 1026 q 418 1136 415 1082 l 532 1122 q 457 969 521 1021 q 281 918 393 918 z "},"Î":{"ha":563,"x_min":26,"x_max":536,"o":"m 61 818 l 503 818 l 503 663 l 371 663 l 371 156 l 503 156 l 503 0 l 60 0 l 60 156 l 193 156 l 193 663 l 61 663 l 61 818 m 281 1111 l 536 964 l 486 899 l 282 982 l 71 899 l 26 964 l 281 1111 z "},"Ȉ":{"ha":563,"x_min":-112,"x_max":503,"o":"m 61 818 l 503 818 l 503 663 l 371 663 l 371 156 l 503 156 l 503 0 l 60 0 l 60 156 l 193 156 l 193 663 l 61 663 l 61 818 m 272 1257 l 454 956 l 381 907 l 156 1171 l 272 1257 m -17 1228 l 221 969 l 158 907 l -112 1124 l -17 1228 z "},"Ï":{"ha":563,"x_min":42,"x_max":515,"o":"m 61 818 l 503 818 l 503 663 l 371 663 l 371 156 l 503 156 l 503 0 l 60 0 l 60 156 l 193 156 l 193 663 l 61 663 l 61 818 m 143 1121 q 214 1090 183 1121 q 244 1019 244 1060 q 214 948 244 978 q 143 918 183 918 q 72 948 101 918 q 42 1019 42 978 q 72 1090 42 1060 q 143 1121 101 1121 m 415 1121 q 485 1090 456 1121 q 515 1019 515 1060 q 485 948 515 978 q 415 918 456 918 q 342 948 372 918 q 313 1019 313 978 q 342 1091 313 1061 q 415 1121 372 1121 z "},"Ḯ":{"ha":563,"x_min":42,"x_max":539,"o":"m 61 818 l 503 818 l 503 663 l 371 663 l 371 156 l 503 156 l 503 0 l 60 0 l 60 156 l 193 156 l 193 663 l 61 663 l 61 818 m 143 1121 q 214 1090 183 1121 q 244 1019 244 1060 q 214 948 244 978 q 143 918 183 918 q 72 948 101 918 q 42 1019 42 978 q 72 1090 42 1060 q 143 1121 101 1121 m 415 1121 q 485 1090 456 1121 q 515 1019 515 1060 q 485 948 515 978 q 415 918 456 918 q 342 948 372 918 q 313 1019 313 978 q 342 1091 313 1061 q 415 1121 372 1121 m 500 1346 l 539 1203 l 188 1153 l 163 1219 l 500 1346 z "},"İ":{"ha":563,"x_min":60,"x_max":503,"o":"m 61 818 l 503 818 l 503 663 l 371 663 l 371 156 l 503 156 l 503 0 l 60 0 l 60 156 l 193 156 l 193 663 l 61 663 l 61 818 m 281 1121 q 353 1093 325 1121 q 381 1021 381 1065 q 353 949 381 976 q 281 922 325 922 q 209 949 236 922 q 182 1021 182 976 q 209 1093 182 1065 q 281 1121 236 1121 z "},"Ị":{"ha":563,"x_min":60,"x_max":503,"o":"m 61 818 l 503 818 l 503 663 l 371 663 l 371 156 l 503 156 l 503 0 l 60 0 l 60 156 l 193 156 l 193 663 l 61 663 l 61 818 m 281 -81 q 353 -108 325 -81 q 381 -181 381 -136 q 353 -252 381 -225 q 281 -279 325 -279 q 209 -252 236 -279 q 182 -181 182 -225 q 209 -108 182 -136 q 281 -81 236 -81 z "},"Ì":{"ha":563,"x_min":8,"x_max":503,"o":"m 61 818 l 503 818 l 503 663 l 371 663 l 371 156 l 503 156 l 503 0 l 60 0 l 60 156 l 193 156 l 193 663 l 61 663 l 61 818 m 47 1117 l 388 992 l 363 924 l 8 975 l 47 1117 z "},"Ỉ":{"ha":563,"x_min":60,"x_max":503,"o":"m 61 818 l 503 818 l 503 663 l 371 663 l 371 156 l 503 156 l 503 0 l 60 0 l 60 156 l 193 156 l 193 663 l 61 663 l 61 818 m 254 931 q 297 975 282 951 q 311 1019 311 999 q 299 1049 311 1038 q 265 1060 288 1060 q 230 1049 247 1060 q 192 1018 213 1039 l 125 1092 q 206 1154 167 1135 q 286 1174 244 1174 q 385 1140 350 1174 q 421 1053 421 1106 q 393 960 421 1007 q 311 879 365 913 l 254 931 z "},"Ȋ":{"ha":563,"x_min":32,"x_max":532,"o":"m 61 818 l 503 818 l 503 663 l 371 663 l 371 156 l 503 156 l 503 0 l 60 0 l 60 156 l 193 156 l 193 663 l 61 663 l 61 818 m 281 1150 q 457 1099 393 1150 q 532 946 521 1047 l 418 932 q 381 1014 415 986 q 281 1042 346 1042 q 183 1014 218 1042 q 146 932 149 986 l 32 946 q 106 1099 43 1047 q 281 1150 169 1150 z "},"Ī":{"ha":563,"x_min":40,"x_max":522,"o":"m 61 818 l 503 818 l 503 663 l 371 663 l 371 156 l 503 156 l 503 0 l 60 0 l 60 156 l 193 156 l 193 663 l 61 663 l 61 818 m 40 1061 l 522 1061 l 522 947 l 40 947 l 40 1061 z "},"Į":{"ha":563,"x_min":60,"x_max":533,"o":"m 465 -222 q 533 -207 496 -222 l 533 -312 q 404 -339 472 -339 q 268 -302 315 -339 q 221 -207 221 -265 q 356 0 221 -83 l 60 0 l 60 156 l 193 156 l 193 663 l 61 663 l 61 818 l 503 818 l 503 663 l 371 663 l 371 156 l 503 156 l 503 0 q 410 -71 438 -33 q 382 -153 382 -108 q 406 -203 382 -183 q 465 -222 429 -222 z "},"Ĩ":{"ha":563,"x_min":35,"x_max":543,"o":"m 61 818 l 503 818 l 503 663 l 371 663 l 371 156 l 503 156 l 503 0 l 60 0 l 60 156 l 193 156 l 193 663 l 61 663 l 61 818 m 35 1033 q 122 1088 85 1072 q 207 1104 158 1104 q 256 1096 233 1104 q 307 1074 279 1088 q 351 1053 333 1060 q 389 1047 369 1047 q 442 1056 419 1047 q 504 1089 465 1064 l 543 996 q 464 939 501 956 q 372 922 426 922 q 332 929 351 922 q 285 950 313 936 q 194 979 232 979 q 154 973 172 979 q 113 956 136 967 q 79 940 90 946 l 35 1033 z "},"J":{"ha":740,"x_min":31,"x_max":700,"o":"m 585 333 q 517 63 585 156 q 297 -31 450 -31 q 183 -13 232 -31 q 75 36 133 4 l 31 239 l 183 275 l 213 133 q 282 118 251 118 q 374 168 342 118 q 406 301 406 218 l 406 663 l 236 663 l 236 818 l 700 818 l 700 663 l 585 663 l 585 333 z "},"Ĵ":{"ha":740,"x_min":31,"x_max":736,"o":"m 585 333 q 517 63 585 156 q 297 -31 450 -31 q 183 -13 232 -31 q 75 36 133 4 l 31 239 l 183 275 l 213 133 q 282 118 251 118 q 374 168 342 118 q 406 301 406 218 l 406 663 l 236 663 l 236 818 l 700 818 l 700 663 l 585 663 l 585 333 m 481 1111 l 736 964 l 686 899 l 482 982 l 271 899 l 226 964 l 481 1111 z "},"K":{"ha":974,"x_min":60,"x_max":924,"o":"m 60 818 l 426 818 l 426 663 l 350 663 l 350 481 l 444 481 l 578 663 l 521 663 l 521 818 l 889 818 l 889 663 l 758 663 l 574 433 l 783 156 l 924 156 l 924 0 l 500 0 l 500 156 l 592 156 l 461 331 l 350 331 l 350 156 l 426 156 l 426 0 l 60 0 l 60 156 l 172 156 l 172 663 l 60 663 l 60 818 z "},"Ķ":{"ha":974,"x_min":60,"x_max":924,"o":"m 60 818 l 426 818 l 426 663 l 350 663 l 350 481 l 444 481 l 578 663 l 521 663 l 521 818 l 889 818 l 889 663 l 758 663 l 574 433 l 783 156 l 924 156 l 924 0 l 500 0 l 500 156 l 592 156 l 461 331 l 350 331 l 350 156 l 426 156 l 426 0 l 60 0 l 60 156 l 172 156 l 172 663 l 60 663 l 60 818 m 365 -417 q 397 -374 374 -407 q 433 -311 419 -340 q 368 -271 389 -300 q 347 -206 347 -242 q 380 -123 347 -154 q 465 -92 413 -92 q 548 -128 511 -92 q 585 -212 585 -164 q 542 -343 585 -285 q 463 -435 500 -401 q 418 -476 426 -468 l 365 -417 z "},"L":{"ha":785,"x_min":60,"x_max":761,"o":"m 60 818 l 497 818 l 497 663 l 360 663 l 360 156 l 565 156 l 614 292 l 761 240 l 678 0 l 60 0 l 60 156 l 183 156 l 183 663 l 60 663 l 60 818 z "},"Ĺ":{"ha":785,"x_min":60,"x_max":761,"o":"m 60 818 l 497 818 l 497 663 l 360 663 l 360 156 l 565 156 l 614 292 l 761 240 l 678 0 l 60 0 l 60 156 l 183 156 l 183 663 l 60 663 l 60 818 m 521 1113 l 560 969 l 208 919 l 183 986 l 521 1113 z "},"Ľ":{"ha":785,"x_min":60,"x_max":761,"o":"m 60 818 l 497 818 l 497 663 l 360 663 l 360 156 l 565 156 l 614 292 l 761 240 l 678 0 l 60 0 l 60 156 l 183 156 l 183 663 l 60 663 l 60 818 m 619 889 l 761 857 l 660 525 l 574 540 l 619 889 z "},"Ļ":{"ha":785,"x_min":60,"x_max":761,"o":"m 60 818 l 497 818 l 497 663 l 360 663 l 360 156 l 565 156 l 614 292 l 761 240 l 678 0 l 60 0 l 60 156 l 183 156 l 183 663 l 60 663 l 60 818 m 285 -417 q 316 -374 293 -407 q 353 -311 339 -340 q 288 -271 308 -300 q 267 -206 267 -242 q 299 -123 267 -154 q 385 -92 332 -92 q 467 -128 431 -92 q 504 -212 504 -164 q 462 -343 504 -285 q 383 -435 419 -401 q 338 -476 346 -468 l 285 -417 z "},"Ŀ":{"ha":833,"x_min":60,"x_max":761,"o":"m 60 818 l 497 818 l 497 663 l 360 663 l 360 156 l 565 156 l 614 292 l 761 240 l 678 0 l 60 0 l 60 156 l 183 156 l 183 663 l 60 663 l 60 818 m 531 586 q 615 550 579 586 q 650 465 650 514 q 615 381 650 415 q 531 346 579 346 q 445 381 481 346 q 410 465 410 415 q 445 550 410 514 q 531 586 481 586 z "},"Ḷ":{"ha":785,"x_min":60,"x_max":761,"o":"m 60 818 l 497 818 l 497 663 l 360 663 l 360 156 l 565 156 l 614 292 l 761 240 l 678 0 l 60 0 l 60 156 l 183 156 l 183 663 l 60 663 l 60 818 m 385 -81 q 457 -108 429 -81 q 485 -181 485 -136 q 457 -252 485 -225 q 385 -279 429 -279 q 313 -252 340 -279 q 286 -181 286 -225 q 313 -108 286 -136 q 385 -81 340 -81 z "},"Ḻ":{"ha":785,"x_min":60,"x_max":761,"o":"m 60 818 l 497 818 l 497 663 l 360 663 l 360 156 l 565 156 l 614 292 l 761 240 l 678 0 l 60 0 l 60 156 l 183 156 l 183 663 l 60 663 l 60 818 m 153 -83 l 618 -83 l 618 -196 l 153 -196 l 153 -83 z "},"Ł":{"ha":785,"x_min":60,"x_max":761,"o":"m 614 292 l 761 240 l 678 0 l 60 0 l 60 156 l 183 156 l 183 267 l 101 225 l 101 351 l 183 393 l 183 663 l 60 663 l 60 818 l 497 818 l 497 663 l 360 663 l 360 482 l 640 625 l 640 499 l 360 356 l 360 156 l 565 156 l 614 292 z "},"M":{"ha":1219,"x_min":60,"x_max":1160,"o":"m 60 818 l 449 818 l 617 343 l 763 818 l 1160 818 l 1160 663 l 1047 663 l 1047 156 l 1160 156 l 1160 0 l 779 0 l 779 156 l 868 156 l 868 697 l 814 510 l 675 99 l 558 99 l 392 532 l 339 685 l 339 156 l 431 156 l 431 0 l 60 0 l 60 156 l 172 156 l 172 663 l 60 663 l 60 818 z "},"Ṃ":{"ha":1219,"x_min":60,"x_max":1160,"o":"m 60 818 l 449 818 l 617 343 l 763 818 l 1160 818 l 1160 663 l 1047 663 l 1047 156 l 1160 156 l 1160 0 l 779 0 l 779 156 l 868 156 l 868 697 l 814 510 l 675 99 l 558 99 l 392 532 l 339 685 l 339 156 l 431 156 l 431 0 l 60 0 l 60 156 l 172 156 l 172 663 l 60 663 l 60 818 m 611 -81 q 683 -108 656 -81 q 711 -181 711 -136 q 683 -252 711 -225 q 611 -279 656 -279 q 540 -252 567 -279 q 513 -181 513 -225 q 540 -108 513 -136 q 611 -81 567 -81 z "},"N":{"ha":1039,"x_min":60,"x_max":999,"o":"m 61 818 l 439 818 l 714 253 l 714 663 l 611 663 l 611 818 l 999 818 l 999 663 l 871 663 l 871 0 l 665 0 l 331 664 l 331 156 l 447 156 l 447 0 l 60 0 l 60 156 l 175 156 l 175 663 l 61 663 l 61 818 z "},"Ń":{"ha":1039,"x_min":60,"x_max":999,"o":"m 61 818 l 439 818 l 714 253 l 714 663 l 611 663 l 611 818 l 999 818 l 999 663 l 871 663 l 871 0 l 665 0 l 331 664 l 331 156 l 447 156 l 447 0 l 60 0 l 60 156 l 175 156 l 175 663 l 61 663 l 61 818 m 747 1113 l 786 969 l 435 919 l 410 986 l 747 1113 z "},"Ň":{"ha":1039,"x_min":60,"x_max":999,"o":"m 61 818 l 439 818 l 714 253 l 714 663 l 611 663 l 611 818 l 999 818 l 999 663 l 871 663 l 871 0 l 665 0 l 331 664 l 331 156 l 447 156 l 447 0 l 60 0 l 60 156 l 175 156 l 175 663 l 61 663 l 61 818 m 529 894 l 289 1061 l 338 1135 l 531 1025 l 710 1135 l 765 1061 l 529 894 z "},"Ņ":{"ha":1039,"x_min":60,"x_max":999,"o":"m 61 818 l 439 818 l 714 253 l 714 663 l 611 663 l 611 818 l 999 818 l 999 663 l 871 663 l 871 0 l 665 0 l 331 664 l 331 156 l 447 156 l 447 0 l 60 0 l 60 156 l 175 156 l 175 663 l 61 663 l 61 818 m 428 -417 q 459 -374 436 -407 q 496 -311 482 -340 q 431 -271 451 -300 q 410 -206 410 -242 q 442 -123 410 -154 q 528 -92 475 -92 q 610 -128 574 -92 q 647 -212 647 -164 q 605 -343 647 -285 q 526 -435 563 -401 q 481 -476 489 -468 l 428 -417 z "},"Ṅ":{"ha":1039,"x_min":60,"x_max":999,"o":"m 61 818 l 439 818 l 714 253 l 714 663 l 611 663 l 611 818 l 999 818 l 999 663 l 871 663 l 871 0 l 665 0 l 331 664 l 331 156 l 447 156 l 447 0 l 60 0 l 60 156 l 175 156 l 175 663 l 61 663 l 61 818 m 528 1121 q 600 1093 572 1121 q 628 1021 628 1065 q 600 949 628 976 q 528 922 572 922 q 456 949 483 922 q 429 1021 429 976 q 456 1093 429 1065 q 528 1121 483 1121 z "},"Ṇ":{"ha":1039,"x_min":60,"x_max":999,"o":"m 61 818 l 439 818 l 714 253 l 714 663 l 611 663 l 611 818 l 999 818 l 999 663 l 871 663 l 871 0 l 665 0 l 331 664 l 331 156 l 447 156 l 447 0 l 60 0 l 60 156 l 175 156 l 175 663 l 61 663 l 61 818 m 528 -81 q 600 -108 572 -81 q 628 -181 628 -136 q 600 -252 628 -225 q 528 -279 572 -279 q 456 -252 483 -279 q 429 -181 429 -225 q 456 -108 429 -136 q 528 -81 483 -81 z "},"Ŋ":{"ha":1039,"x_min":60,"x_max":999,"o":"m 594 -344 q 475 -335 528 -344 q 367 -301 422 -325 l 411 -178 q 554 -206 482 -206 q 658 -173 617 -206 q 710 -82 700 -140 l 331 664 l 331 156 l 447 156 l 447 0 l 60 0 l 60 156 l 175 156 l 175 663 l 61 663 l 61 818 l 439 818 l 714 253 l 714 663 l 611 663 l 611 818 l 999 818 l 999 663 l 871 663 l 871 -12 q 798 -259 871 -174 q 594 -344 725 -344 z "},"Ṉ":{"ha":1039,"x_min":60,"x_max":999,"o":"m 61 818 l 439 818 l 714 253 l 714 663 l 611 663 l 611 818 l 999 818 l 999 663 l 871 663 l 871 0 l 665 0 l 331 664 l 331 156 l 447 156 l 447 0 l 60 0 l 60 156 l 175 156 l 175 663 l 61 663 l 61 818 m 296 -83 l 761 -83 l 761 -196 l 296 -196 l 296 -83 z "},"Ñ":{"ha":1039,"x_min":60,"x_max":999,"o":"m 61 818 l 439 818 l 714 253 l 714 663 l 611 663 l 611 818 l 999 818 l 999 663 l 871 663 l 871 0 l 665 0 l 331 664 l 331 156 l 447 156 l 447 0 l 60 0 l 60 156 l 175 156 l 175 663 l 61 663 l 61 818 m 282 1033 q 369 1088 332 1072 q 454 1104 406 1104 q 503 1096 481 1104 q 554 1074 526 1088 q 599 1053 581 1060 q 636 1047 617 1047 q 690 1056 667 1047 q 751 1089 713 1064 l 790 996 q 711 939 749 956 q 619 922 674 922 q 579 929 599 922 q 532 950 560 936 q 442 979 479 979 q 401 973 419 979 q 360 956 383 967 q 326 940 338 946 l 282 1033 z "},"O":{"ha":944,"x_min":58,"x_max":886,"o":"m 471 849 q 688 798 594 849 q 834 648 782 747 q 886 410 886 549 q 834 172 886 271 q 689 21 782 72 q 472 -31 596 -31 q 257 21 350 -31 q 111 172 164 72 q 58 410 58 271 q 110 648 58 549 q 256 798 163 747 q 471 849 349 849 m 472 699 q 301 626 358 699 q 244 410 244 553 q 302 193 244 267 q 472 119 360 119 q 644 193 586 119 q 701 410 701 267 q 644 626 701 553 q 472 699 586 699 z "},"Ó":{"ha":944,"x_min":58,"x_max":886,"o":"m 471 849 q 688 798 594 849 q 834 648 782 747 q 886 410 886 549 q 834 172 886 271 q 689 21 782 72 q 472 -31 596 -31 q 257 21 350 -31 q 111 172 164 72 q 58 410 58 271 q 110 648 58 549 q 256 798 163 747 q 471 849 349 849 m 472 699 q 301 626 358 699 q 244 410 244 553 q 302 193 244 267 q 472 119 360 119 q 644 193 586 119 q 701 410 701 267 q 644 626 701 553 q 472 699 586 699 m 690 1113 l 729 969 l 378 919 l 353 986 l 690 1113 z "},"Ŏ":{"ha":944,"x_min":58,"x_max":886,"o":"m 471 849 q 688 798 594 849 q 834 648 782 747 q 886 410 886 549 q 834 172 886 271 q 689 21 782 72 q 472 -31 596 -31 q 257 21 350 -31 q 111 172 164 72 q 58 410 58 271 q 110 648 58 549 q 256 798 163 747 q 471 849 349 849 m 472 699 q 301 626 358 699 q 244 410 244 553 q 302 193 244 267 q 472 119 360 119 q 644 193 586 119 q 701 410 701 267 q 644 626 701 553 q 472 699 586 699 m 471 918 q 297 969 360 918 q 222 1122 233 1021 l 336 1136 q 374 1054 339 1082 q 471 1026 408 1026 q 571 1054 536 1026 q 608 1136 606 1082 l 722 1122 q 647 969 711 1021 q 471 918 583 918 z "},"Ô":{"ha":944,"x_min":58,"x_max":886,"o":"m 471 849 q 688 798 594 849 q 834 648 782 747 q 886 410 886 549 q 834 172 886 271 q 689 21 782 72 q 472 -31 596 -31 q 257 21 350 -31 q 111 172 164 72 q 58 410 58 271 q 110 648 58 549 q 256 798 163 747 q 471 849 349 849 m 472 699 q 301 626 358 699 q 244 410 244 553 q 302 193 244 267 q 472 119 360 119 q 644 193 586 119 q 701 410 701 267 q 644 626 701 553 q 472 699 586 699 m 471 1111 l 726 964 l 676 899 l 472 982 l 261 899 l 217 964 l 471 1111 z "},"Ố":{"ha":944,"x_min":58,"x_max":886,"o":"m 471 849 q 688 798 594 849 q 834 648 782 747 q 886 410 886 549 q 834 172 886 271 q 689 21 782 72 q 472 -31 596 -31 q 257 21 350 -31 q 111 172 164 72 q 58 410 58 271 q 110 648 58 549 q 256 798 163 747 q 471 849 349 849 m 472 699 q 301 626 358 699 q 244 410 244 553 q 302 193 244 267 q 472 119 360 119 q 644 193 586 119 q 701 410 701 267 q 644 626 701 553 q 472 699 586 699 m 565 1361 l 636 1242 l 349 1119 l 317 1181 l 565 1361 m 471 1111 l 726 964 l 676 899 l 472 982 l 261 899 l 217 964 l 471 1111 z "},"Ộ":{"ha":944,"x_min":58,"x_max":886,"o":"m 471 849 q 688 798 594 849 q 834 648 782 747 q 886 410 886 549 q 834 172 886 271 q 689 21 782 72 q 472 -31 596 -31 q 257 21 350 -31 q 111 172 164 72 q 58 410 58 271 q 110 648 58 549 q 256 798 163 747 q 471 849 349 849 m 472 699 q 301 626 358 699 q 244 410 244 553 q 302 193 244 267 q 472 119 360 119 q 644 193 586 119 q 701 410 701 267 q 644 626 701 553 q 472 699 586 699 m 471 -81 q 543 -108 515 -81 q 571 -181 571 -136 q 543 -252 571 -225 q 471 -279 515 -279 q 399 -252 426 -279 q 372 -181 372 -225 q 399 -108 372 -136 q 471 -81 426 -81 m 471 1111 l 726 964 l 676 899 l 472 982 l 261 899 l 217 964 l 471 1111 z "},"Ồ":{"ha":944,"x_min":58,"x_max":886,"o":"m 471 849 q 688 798 594 849 q 834 648 782 747 q 886 410 886 549 q 834 172 886 271 q 689 21 782 72 q 472 -31 596 -31 q 257 21 350 -31 q 111 172 164 72 q 58 410 58 271 q 110 648 58 549 q 256 798 163 747 q 471 849 349 849 m 472 699 q 301 626 358 699 q 244 410 244 553 q 302 193 244 267 q 472 119 360 119 q 644 193 586 119 q 701 410 701 267 q 644 626 701 553 q 472 699 586 699 m 399 1347 l 647 1167 l 615 1106 l 328 1228 l 399 1347 m 471 1111 l 726 964 l 676 899 l 472 982 l 261 899 l 217 964 l 471 1111 z "},"Ổ":{"ha":944,"x_min":58,"x_max":886,"o":"m 471 849 q 688 798 594 849 q 834 648 782 747 q 886 410 886 549 q 834 172 886 271 q 689 21 782 72 q 472 -31 596 -31 q 257 21 350 -31 q 111 172 164 72 q 58 410 58 271 q 110 648 58 549 q 256 798 163 747 q 471 849 349 849 m 472 699 q 301 626 358 699 q 244 410 244 553 q 302 193 244 267 q 472 119 360 119 q 644 193 586 119 q 701 410 701 267 q 644 626 701 553 q 472 699 586 699 m 471 1111 l 726 964 l 676 899 l 472 982 l 261 899 l 217 964 l 471 1111 m 600 1096 q 642 1140 628 1117 q 657 1185 657 1164 q 645 1214 657 1203 q 611 1225 633 1225 q 576 1215 593 1225 q 538 1183 558 1204 l 471 1257 q 551 1319 513 1300 q 632 1339 590 1339 q 731 1305 696 1339 q 767 1218 767 1271 q 739 1125 767 1172 q 657 1044 711 1078 l 600 1096 z "},"Ỗ":{"ha":944,"x_min":58,"x_max":886,"o":"m 471 849 q 688 798 594 849 q 834 648 782 747 q 886 410 886 549 q 834 172 886 271 q 689 21 782 72 q 472 -31 596 -31 q 257 21 350 -31 q 111 172 164 72 q 58 410 58 271 q 110 648 58 549 q 256 798 163 747 q 471 849 349 849 m 472 699 q 301 626 358 699 q 244 410 244 553 q 302 193 244 267 q 472 119 360 119 q 644 193 586 119 q 701 410 701 267 q 644 626 701 553 q 472 699 586 699 m 254 1244 q 327 1288 296 1275 q 399 1301 358 1301 q 448 1293 425 1301 q 499 1271 471 1285 q 544 1251 526 1257 q 581 1244 561 1244 q 634 1253 611 1244 q 696 1286 657 1261 l 710 1189 q 643 1143 674 1157 q 567 1129 613 1129 q 526 1136 546 1129 q 479 1157 507 1143 q 389 1186 426 1186 q 349 1180 367 1186 q 308 1163 331 1174 q 274 1147 285 1153 l 254 1244 m 471 1111 l 726 964 l 676 899 l 472 982 l 261 899 l 217 964 l 471 1111 z "},"Ȍ":{"ha":944,"x_min":58,"x_max":886,"o":"m 471 849 q 688 798 594 849 q 834 648 782 747 q 886 410 886 549 q 834 172 886 271 q 689 21 782 72 q 472 -31 596 -31 q 257 21 350 -31 q 111 172 164 72 q 58 410 58 271 q 110 648 58 549 q 256 798 163 747 q 471 849 349 849 m 472 699 q 301 626 358 699 q 244 410 244 553 q 302 193 244 267 q 472 119 360 119 q 644 193 586 119 q 701 410 701 267 q 644 626 701 553 q 472 699 586 699 m 463 1257 l 644 956 l 571 907 l 346 1171 l 463 1257 m 174 1228 l 411 969 l 349 907 l 78 1124 l 174 1228 z "},"Ö":{"ha":944,"x_min":58,"x_max":886,"o":"m 471 849 q 688 798 594 849 q 834 648 782 747 q 886 410 886 549 q 834 172 886 271 q 689 21 782 72 q 472 -31 596 -31 q 257 21 350 -31 q 111 172 164 72 q 58 410 58 271 q 110 648 58 549 q 256 798 163 747 q 471 849 349 849 m 472 699 q 301 626 358 699 q 244 410 244 553 q 302 193 244 267 q 472 119 360 119 q 644 193 586 119 q 701 410 701 267 q 644 626 701 553 q 472 699 586 699 m 333 1121 q 404 1090 374 1121 q 435 1019 435 1060 q 404 948 435 978 q 333 918 374 918 q 262 948 292 918 q 232 1019 232 978 q 262 1090 232 1060 q 333 1121 292 1121 m 606 1121 q 676 1090 646 1121 q 706 1019 706 1060 q 676 948 706 978 q 606 918 646 918 q 533 948 563 918 q 503 1019 503 978 q 533 1091 503 1061 q 606 1121 563 1121 z "},"Ȫ":{"ha":944,"x_min":58,"x_max":886,"o":"m 471 849 q 688 798 594 849 q 834 648 782 747 q 886 410 886 549 q 834 172 886 271 q 689 21 782 72 q 472 -31 596 -31 q 257 21 350 -31 q 111 172 164 72 q 58 410 58 271 q 110 648 58 549 q 256 798 163 747 q 471 849 349 849 m 472 699 q 301 626 358 699 q 244 410 244 553 q 302 193 244 267 q 472 119 360 119 q 644 193 586 119 q 701 410 701 267 q 644 626 701 553 q 472 699 586 699 m 333 1121 q 404 1090 374 1121 q 435 1019 435 1060 q 404 948 435 978 q 333 918 374 918 q 262 948 292 918 q 232 1019 232 978 q 262 1090 232 1060 q 333 1121 292 1121 m 606 1121 q 676 1090 646 1121 q 706 1019 706 1060 q 676 948 706 978 q 606 918 646 918 q 533 948 563 918 q 503 1019 503 978 q 533 1091 503 1061 q 606 1121 563 1121 m 231 1294 l 713 1294 l 713 1181 l 231 1181 l 231 1294 z "},"Ȱ":{"ha":944,"x_min":58,"x_max":886,"o":"m 471 849 q 688 798 594 849 q 834 648 782 747 q 886 410 886 549 q 834 172 886 271 q 689 21 782 72 q 472 -31 596 -31 q 257 21 350 -31 q 111 172 164 72 q 58 410 58 271 q 110 648 58 549 q 256 798 163 747 q 471 849 349 849 m 472 699 q 301 626 358 699 q 244 410 244 553 q 302 193 244 267 q 472 119 360 119 q 644 193 586 119 q 701 410 701 267 q 644 626 701 553 q 472 699 586 699 m 471 1121 q 543 1093 515 1121 q 571 1021 571 1065 q 543 949 571 976 q 471 922 515 922 q 399 949 426 922 q 372 1021 372 976 q 399 1093 372 1065 q 471 1121 426 1121 m 238 1283 l 719 1283 l 719 1169 l 238 1169 l 238 1283 z "},"Ọ":{"ha":944,"x_min":58,"x_max":886,"o":"m 471 849 q 688 798 594 849 q 834 648 782 747 q 886 410 886 549 q 834 172 886 271 q 689 21 782 72 q 472 -31 596 -31 q 257 21 350 -31 q 111 172 164 72 q 58 410 58 271 q 110 648 58 549 q 256 798 163 747 q 471 849 349 849 m 472 699 q 301 626 358 699 q 244 410 244 553 q 302 193 244 267 q 472 119 360 119 q 644 193 586 119 q 701 410 701 267 q 644 626 701 553 q 472 699 586 699 m 471 -81 q 543 -108 515 -81 q 571 -181 571 -136 q 543 -252 571 -225 q 471 -279 515 -279 q 399 -252 426 -279 q 372 -181 372 -225 q 399 -108 372 -136 q 471 -81 426 -81 z "},"Ò":{"ha":944,"x_min":58,"x_max":886,"o":"m 471 849 q 688 798 594 849 q 834 648 782 747 q 886 410 886 549 q 834 172 886 271 q 689 21 782 72 q 472 -31 596 -31 q 257 21 350 -31 q 111 172 164 72 q 58 410 58 271 q 110 648 58 549 q 256 798 163 747 q 471 849 349 849 m 472 699 q 301 626 358 699 q 244 410 244 553 q 302 193 244 267 q 472 119 360 119 q 644 193 586 119 q 701 410 701 267 q 644 626 701 553 q 472 699 586 699 m 238 1117 l 578 992 l 553 924 l 199 975 l 238 1117 z "},"Ỏ":{"ha":944,"x_min":58,"x_max":886,"o":"m 471 849 q 688 798 594 849 q 834 648 782 747 q 886 410 886 549 q 834 172 886 271 q 689 21 782 72 q 472 -31 596 -31 q 257 21 350 -31 q 111 172 164 72 q 58 410 58 271 q 110 648 58 549 q 256 798 163 747 q 471 849 349 849 m 472 699 q 301 626 358 699 q 244 410 244 553 q 302 193 244 267 q 472 119 360 119 q 644 193 586 119 q 701 410 701 267 q 644 626 701 553 q 472 699 586 699 m 444 931 q 487 975 472 951 q 501 1019 501 999 q 490 1049 501 1038 q 456 1060 478 1060 q 420 1049 438 1060 q 382 1018 403 1039 l 315 1092 q 396 1154 357 1135 q 476 1174 435 1174 q 576 1140 540 1174 q 611 1053 611 1106 q 583 960 611 1007 q 501 879 556 913 l 444 931 z "},"Ơ":{"ha":944,"x_min":58,"x_max":886,"o":"m 785 721 q 886 410 886 604 q 834 172 886 271 q 689 21 782 72 q 472 -31 596 -31 q 257 21 350 -31 q 111 172 164 72 q 58 410 58 271 q 110 648 58 549 q 256 798 163 747 q 471 849 349 849 q 643 818 568 849 q 705 850 683 822 q 726 928 726 878 l 868 928 q 785 721 868 783 m 472 119 q 644 193 586 119 q 701 410 701 267 q 644 626 701 553 q 472 699 586 699 q 301 626 358 699 q 244 410 244 553 q 302 193 244 267 q 472 119 360 119 z "},"Ớ":{"ha":944,"x_min":58,"x_max":886,"o":"m 785 721 q 886 410 886 604 q 834 172 886 271 q 689 21 782 72 q 472 -31 596 -31 q 257 21 350 -31 q 111 172 164 72 q 58 410 58 271 q 110 648 58 549 q 256 798 163 747 q 471 849 349 849 q 643 818 568 849 q 705 850 683 822 q 726 928 726 878 l 868 928 q 785 721 868 783 m 472 119 q 644 193 586 119 q 701 410 701 267 q 644 626 701 553 q 472 699 586 699 q 301 626 358 699 q 244 410 244 553 q 302 193 244 267 q 472 119 360 119 m 690 1113 l 729 969 l 378 919 l 353 986 l 690 1113 z "},"Ợ":{"ha":944,"x_min":58,"x_max":886,"o":"m 785 721 q 886 410 886 604 q 834 172 886 271 q 689 21 782 72 q 472 -31 596 -31 q 257 21 350 -31 q 111 172 164 72 q 58 410 58 271 q 110 648 58 549 q 256 798 163 747 q 471 849 349 849 q 643 818 568 849 q 705 850 683 822 q 726 928 726 878 l 868 928 q 785 721 868 783 m 472 119 q 644 193 586 119 q 701 410 701 267 q 644 626 701 553 q 472 699 586 699 q 301 626 358 699 q 244 410 244 553 q 302 193 244 267 q 472 119 360 119 m 471 -81 q 543 -108 515 -81 q 571 -181 571 -136 q 543 -252 571 -225 q 471 -279 515 -279 q 399 -252 426 -279 q 372 -181 372 -225 q 399 -108 372 -136 q 471 -81 426 -81 z "},"Ờ":{"ha":944,"x_min":58,"x_max":886,"o":"m 785 721 q 886 410 886 604 q 834 172 886 271 q 689 21 782 72 q 472 -31 596 -31 q 257 21 350 -31 q 111 172 164 72 q 58 410 58 271 q 110 648 58 549 q 256 798 163 747 q 471 849 349 849 q 643 818 568 849 q 705 850 683 822 q 726 928 726 878 l 868 928 q 785 721 868 783 m 472 119 q 644 193 586 119 q 701 410 701 267 q 644 626 701 553 q 472 699 586 699 q 301 626 358 699 q 244 410 244 553 q 302 193 244 267 q 472 119 360 119 m 328 1117 l 668 992 l 643 924 l 289 975 l 328 1117 z "},"Ở":{"ha":944,"x_min":58,"x_max":886,"o":"m 785 721 q 886 410 886 604 q 834 172 886 271 q 689 21 782 72 q 472 -31 596 -31 q 257 21 350 -31 q 111 172 164 72 q 58 410 58 271 q 110 648 58 549 q 256 798 163 747 q 471 849 349 849 q 643 818 568 849 q 705 850 683 822 q 726 928 726 878 l 868 928 q 785 721 868 783 m 472 119 q 644 193 586 119 q 701 410 701 267 q 644 626 701 553 q 472 699 586 699 q 301 626 358 699 q 244 410 244 553 q 302 193 244 267 q 472 119 360 119 m 444 931 q 487 975 472 951 q 501 1019 501 999 q 490 1049 501 1038 q 456 1060 478 1060 q 420 1049 438 1060 q 382 1018 403 1039 l 315 1092 q 396 1154 357 1135 q 476 1174 435 1174 q 576 1140 540 1174 q 611 1053 611 1106 q 583 960 611 1007 q 501 879 556 913 l 444 931 z "},"Ỡ":{"ha":944,"x_min":58,"x_max":886,"o":"m 785 721 q 886 410 886 604 q 834 172 886 271 q 689 21 782 72 q 472 -31 596 -31 q 257 21 350 -31 q 111 172 164 72 q 58 410 58 271 q 110 648 58 549 q 256 798 163 747 q 471 849 349 849 q 643 818 568 849 q 705 850 683 822 q 726 928 726 878 l 868 928 q 785 721 868 783 m 472 119 q 644 193 586 119 q 701 410 701 267 q 644 626 701 553 q 472 699 586 699 q 301 626 358 699 q 244 410 244 553 q 302 193 244 267 q 472 119 360 119 m 225 1033 q 312 1088 275 1072 q 397 1104 349 1104 q 447 1096 424 1104 q 497 1074 469 1088 q 542 1053 524 1060 q 579 1047 560 1047 q 633 1056 610 1047 q 694 1089 656 1064 l 733 996 q 654 939 692 956 q 563 922 617 922 q 522 929 542 922 q 475 950 503 936 q 385 979 422 979 q 344 973 363 979 q 303 956 326 967 q 269 940 281 946 l 225 1033 z "},"Ő":{"ha":944,"x_min":58,"x_max":886,"o":"m 471 849 q 688 798 594 849 q 834 648 782 747 q 886 410 886 549 q 834 172 886 271 q 689 21 782 72 q 472 -31 596 -31 q 257 21 350 -31 q 111 172 164 72 q 58 410 58 271 q 110 648 58 549 q 256 798 163 747 q 471 849 349 849 m 472 699 q 301 626 358 699 q 244 410 244 553 q 302 193 244 267 q 472 119 360 119 q 644 193 586 119 q 701 410 701 267 q 644 626 701 553 q 472 699 586 699 m 526 1169 l 615 1069 l 382 910 l 335 956 l 526 1169 m 775 1113 l 833 992 l 560 914 l 526 971 l 775 1113 z "},"Ȏ":{"ha":944,"x_min":58,"x_max":886,"o":"m 471 849 q 688 798 594 849 q 834 648 782 747 q 886 410 886 549 q 834 172 886 271 q 689 21 782 72 q 472 -31 596 -31 q 257 21 350 -31 q 111 172 164 72 q 58 410 58 271 q 110 648 58 549 q 256 798 163 747 q 471 849 349 849 m 472 699 q 301 626 358 699 q 244 410 244 553 q 302 193 244 267 q 472 119 360 119 q 644 193 586 119 q 701 410 701 267 q 644 626 701 553 q 472 699 586 699 m 471 1150 q 647 1099 583 1150 q 722 946 711 1047 l 608 932 q 571 1014 606 986 q 471 1042 536 1042 q 374 1014 408 1042 q 336 932 339 986 l 222 946 q 297 1099 233 1047 q 471 1150 360 1150 z "},"Ō":{"ha":944,"x_min":58,"x_max":886,"o":"m 471 849 q 688 798 594 849 q 834 648 782 747 q 886 410 886 549 q 834 172 886 271 q 689 21 782 72 q 472 -31 596 -31 q 257 21 350 -31 q 111 172 164 72 q 58 410 58 271 q 110 648 58 549 q 256 798 163 747 q 471 849 349 849 m 472 699 q 301 626 358 699 q 244 410 244 553 q 302 193 244 267 q 472 119 360 119 q 644 193 586 119 q 701 410 701 267 q 644 626 701 553 q 472 699 586 699 m 231 1061 l 713 1061 l 713 947 l 231 947 l 231 1061 z "},"Ṓ":{"ha":944,"x_min":58,"x_max":886,"o":"m 471 849 q 688 798 594 849 q 834 648 782 747 q 886 410 886 549 q 834 172 886 271 q 689 21 782 72 q 472 -31 596 -31 q 257 21 350 -31 q 111 172 164 72 q 58 410 58 271 q 110 648 58 549 q 256 798 163 747 q 471 849 349 849 m 472 699 q 301 626 358 699 q 244 410 244 553 q 302 193 244 267 q 472 119 360 119 q 644 193 586 119 q 701 410 701 267 q 644 626 701 553 q 472 699 586 699 m 231 1061 l 713 1061 l 713 947 l 231 947 l 231 1061 m 689 1314 l 728 1171 l 376 1121 l 351 1188 l 689 1314 z "},"Ṑ":{"ha":944,"x_min":58,"x_max":886,"o":"m 471 849 q 688 798 594 849 q 834 648 782 747 q 886 410 886 549 q 834 172 886 271 q 689 21 782 72 q 472 -31 596 -31 q 257 21 350 -31 q 111 172 164 72 q 58 410 58 271 q 110 648 58 549 q 256 798 163 747 q 471 849 349 849 m 472 699 q 301 626 358 699 q 244 410 244 553 q 302 193 244 267 q 472 119 360 119 q 644 193 586 119 q 701 410 701 267 q 644 626 701 553 q 472 699 586 699 m 231 1061 l 713 1061 l 713 947 l 231 947 l 231 1061 m 236 1318 l 576 1193 l 551 1125 l 197 1176 l 236 1318 z "},"Ǫ":{"ha":944,"x_min":58,"x_max":886,"o":"m 651 3 q 574 -63 597 -28 q 551 -139 551 -99 q 575 -189 551 -169 q 635 -208 599 -208 q 703 -193 665 -208 l 703 -299 q 574 -325 642 -325 q 438 -288 485 -325 q 390 -193 390 -251 q 467 -31 390 -101 q 253 22 346 -29 q 110 173 161 74 q 58 410 58 272 q 110 648 58 549 q 256 798 163 747 q 471 849 349 849 q 688 798 594 849 q 834 648 782 747 q 886 410 886 549 q 824 153 886 257 q 651 3 763 49 m 244 410 q 302 193 244 267 q 472 119 360 119 q 644 193 586 119 q 701 410 701 267 q 644 626 701 553 q 472 699 586 699 q 301 626 358 699 q 244 410 244 553 z "},"Ø":{"ha":944,"x_min":58,"x_max":886,"o":"m 738 765 q 847 619 808 710 q 886 410 886 529 q 834 172 886 271 q 689 21 782 72 q 472 -31 596 -31 q 365 -19 418 -31 l 331 -96 l 185 -96 l 242 29 q 106 179 154 82 q 58 410 58 276 q 110 648 58 549 q 256 798 163 747 q 471 849 349 849 q 618 828 551 849 l 654 904 l 800 904 l 738 765 m 472 699 q 301 626 358 699 q 244 410 244 553 q 319 172 244 244 l 556 686 q 472 699 518 699 m 472 119 q 644 193 586 119 q 701 410 701 267 q 657 608 701 536 l 433 122 q 472 119 458 119 z "},"Ǿ":{"ha":944,"x_min":58,"x_max":886,"o":"m 738 765 q 847 619 808 710 q 886 410 886 529 q 834 172 886 271 q 689 21 782 72 q 472 -31 596 -31 q 365 -19 418 -31 l 331 -96 l 185 -96 l 242 29 q 106 179 154 82 q 58 410 58 276 q 110 648 58 549 q 256 798 163 747 q 471 849 349 849 q 618 828 551 849 l 654 904 l 800 904 l 738 765 m 472 699 q 301 626 358 699 q 244 410 244 553 q 319 172 244 244 l 556 686 q 472 699 518 699 m 472 119 q 644 193 586 119 q 701 410 701 267 q 657 608 701 536 l 433 122 q 472 119 458 119 m 690 1113 l 729 969 l 378 919 l 353 986 l 690 1113 z "},"Õ":{"ha":944,"x_min":58,"x_max":886,"o":"m 471 849 q 688 798 594 849 q 834 648 782 747 q 886 410 886 549 q 834 172 886 271 q 689 21 782 72 q 472 -31 596 -31 q 257 21 350 -31 q 111 172 164 72 q 58 410 58 271 q 110 648 58 549 q 256 798 163 747 q 471 849 349 849 m 472 699 q 301 626 358 699 q 244 410 244 553 q 302 193 244 267 q 472 119 360 119 q 644 193 586 119 q 701 410 701 267 q 644 626 701 553 q 472 699 586 699 m 225 1033 q 312 1088 275 1072 q 397 1104 349 1104 q 447 1096 424 1104 q 497 1074 469 1088 q 542 1053 524 1060 q 579 1047 560 1047 q 633 1056 610 1047 q 694 1089 656 1064 l 733 996 q 654 939 692 956 q 563 922 617 922 q 522 929 542 922 q 475 950 503 936 q 385 979 422 979 q 344 973 363 979 q 303 956 326 967 q 269 940 281 946 l 225 1033 z "},"Ṍ":{"ha":944,"x_min":58,"x_max":886,"o":"m 471 849 q 688 798 594 849 q 834 648 782 747 q 886 410 886 549 q 834 172 886 271 q 689 21 782 72 q 472 -31 596 -31 q 257 21 350 -31 q 111 172 164 72 q 58 410 58 271 q 110 648 58 549 q 256 798 163 747 q 471 849 349 849 m 472 699 q 301 626 358 699 q 244 410 244 553 q 302 193 244 267 q 472 119 360 119 q 644 193 586 119 q 701 410 701 267 q 644 626 701 553 q 472 699 586 699 m 225 1033 q 312 1088 275 1072 q 397 1104 349 1104 q 447 1096 424 1104 q 497 1074 469 1088 q 542 1053 524 1060 q 579 1047 560 1047 q 633 1056 610 1047 q 694 1089 656 1064 l 733 996 q 654 939 692 956 q 563 922 617 922 q 522 929 542 922 q 475 950 503 936 q 385 979 422 979 q 344 973 363 979 q 303 956 326 967 q 269 940 281 946 l 225 1033 m 661 1351 l 700 1208 l 349 1158 l 324 1225 l 661 1351 z "},"Ṏ":{"ha":944,"x_min":58,"x_max":886,"o":"m 471 849 q 688 798 594 849 q 834 648 782 747 q 886 410 886 549 q 834 172 886 271 q 689 21 782 72 q 472 -31 596 -31 q 257 21 350 -31 q 111 172 164 72 q 58 410 58 271 q 110 648 58 549 q 256 798 163 747 q 471 849 349 849 m 472 699 q 301 626 358 699 q 244 410 244 553 q 302 193 244 267 q 472 119 360 119 q 644 193 586 119 q 701 410 701 267 q 644 626 701 553 q 472 699 586 699 m 225 1033 q 312 1088 275 1072 q 397 1104 349 1104 q 447 1096 424 1104 q 497 1074 469 1088 q 542 1053 524 1060 q 579 1047 560 1047 q 633 1056 610 1047 q 694 1089 656 1064 l 733 996 q 654 939 692 956 q 563 922 617 922 q 522 929 542 922 q 475 950 503 936 q 385 979 422 979 q 344 973 363 979 q 303 956 326 967 q 269 940 281 946 l 225 1033 m 304 1360 q 375 1329 344 1360 q 406 1258 406 1299 q 375 1187 406 1217 q 304 1157 344 1157 q 233 1187 263 1157 q 203 1258 203 1217 q 233 1329 203 1299 q 304 1360 263 1360 m 576 1360 q 647 1329 617 1360 q 676 1258 676 1299 q 647 1187 676 1217 q 576 1157 617 1157 q 503 1187 533 1157 q 474 1258 474 1217 q 503 1330 474 1300 q 576 1360 533 1360 z "},"Ȭ":{"ha":944,"x_min":58,"x_max":886,"o":"m 471 849 q 688 798 594 849 q 834 648 782 747 q 886 410 886 549 q 834 172 886 271 q 689 21 782 72 q 472 -31 596 -31 q 257 21 350 -31 q 111 172 164 72 q 58 410 58 271 q 110 648 58 549 q 256 798 163 747 q 471 849 349 849 m 472 699 q 301 626 358 699 q 244 410 244 553 q 302 193 244 267 q 472 119 360 119 q 644 193 586 119 q 701 410 701 267 q 644 626 701 553 q 472 699 586 699 m 225 1033 q 312 1088 275 1072 q 397 1104 349 1104 q 447 1096 424 1104 q 497 1074 469 1088 q 542 1053 524 1060 q 579 1047 560 1047 q 633 1056 610 1047 q 694 1089 656 1064 l 733 996 q 654 939 692 956 q 563 922 617 922 q 522 929 542 922 q 475 950 503 936 q 385 979 422 979 q 344 973 363 979 q 303 956 326 967 q 269 940 281 946 l 225 1033 m 201 1300 l 683 1300 l 683 1186 l 201 1186 l 201 1300 z "},"Œ":{"ha":1268,"x_min":58,"x_max":1228,"o":"m 471 0 q 168 101 278 0 q 58 418 58 201 q 168 717 58 617 q 471 818 278 818 l 1107 818 l 1193 560 l 1046 510 l 996 663 l 764 663 l 764 490 l 990 490 l 990 338 l 763 338 l 763 156 l 1032 156 l 1081 292 l 1228 240 l 1144 0 l 471 0 m 475 663 q 301 606 358 663 q 244 418 244 550 q 475 156 244 156 l 585 156 l 585 663 l 475 663 z "},"P":{"ha":786,"x_min":60,"x_max":758,"o":"m 419 818 q 672 749 585 818 q 758 547 758 679 q 672 340 758 411 q 419 268 585 268 l 350 268 l 350 156 l 481 156 l 481 0 l 60 0 l 60 156 l 171 156 l 171 663 l 60 663 l 60 818 l 419 818 m 418 406 q 574 543 574 406 q 418 663 574 663 l 351 663 l 351 406 l 418 406 z "},"Þ":{"ha":786,"x_min":60,"x_max":758,"o":"m 60 156 l 171 156 l 171 663 l 60 663 l 60 818 l 350 818 l 350 722 l 419 722 q 680 663 601 722 q 758 486 758 604 q 680 294 758 353 q 419 235 601 235 l 350 235 l 350 156 l 501 156 l 501 0 l 60 0 l 60 156 m 418 386 q 538 404 501 386 q 574 482 574 422 q 537 551 574 533 q 418 568 500 568 l 351 568 l 351 386 l 418 386 z "},"Q":{"ha":974,"x_min":58,"x_max":939,"o":"m 657 6 q 472 -31 574 -31 q 257 21 350 -31 q 111 172 164 72 q 58 410 58 271 q 110 648 58 549 q 256 798 163 747 q 471 849 349 849 q 688 798 594 849 q 834 648 782 747 q 886 410 886 549 q 782 94 886 211 l 939 3 l 826 -136 l 657 6 m 472 699 q 301 626 358 699 q 244 410 244 553 q 302 193 244 267 q 472 119 360 119 q 644 193 586 119 q 701 410 701 267 q 644 626 701 553 q 472 699 586 699 z "},"R":{"ha":879,"x_min":60,"x_max":839,"o":"m 839 156 l 839 0 l 590 0 l 446 267 l 350 267 l 350 156 l 417 156 l 417 0 l 60 0 l 60 156 l 171 156 l 171 663 l 60 663 l 60 818 l 426 818 q 685 748 613 818 q 758 542 758 678 q 611 289 758 346 l 694 156 l 839 156 m 418 421 q 540 447 506 421 q 574 542 574 474 q 535 636 574 610 q 418 663 497 663 l 351 663 l 351 421 l 418 421 z "},"Ŕ":{"ha":879,"x_min":60,"x_max":839,"o":"m 839 156 l 839 0 l 590 0 l 446 267 l 350 267 l 350 156 l 417 156 l 417 0 l 60 0 l 60 156 l 171 156 l 171 663 l 60 663 l 60 818 l 426 818 q 685 748 613 818 q 758 542 758 678 q 611 289 758 346 l 694 156 l 839 156 m 418 421 q 540 447 506 421 q 574 542 574 474 q 535 636 574 610 q 418 663 497 663 l 351 663 l 351 421 l 418 421 m 603 1113 l 642 969 l 290 919 l 265 986 l 603 1113 z "},"Ř":{"ha":879,"x_min":60,"x_max":839,"o":"m 839 156 l 839 0 l 590 0 l 446 267 l 350 267 l 350 156 l 417 156 l 417 0 l 60 0 l 60 156 l 171 156 l 171 663 l 60 663 l 60 818 l 426 818 q 685 748 613 818 q 758 542 758 678 q 611 289 758 346 l 694 156 l 839 156 m 418 421 q 540 447 506 421 q 574 542 574 474 q 535 636 574 610 q 418 663 497 663 l 351 663 l 351 421 l 418 421 m 385 894 l 144 1061 l 193 1135 l 386 1025 l 565 1135 l 621 1061 l 385 894 z "},"Ŗ":{"ha":879,"x_min":60,"x_max":839,"o":"m 839 156 l 839 0 l 590 0 l 446 267 l 350 267 l 350 156 l 417 156 l 417 0 l 60 0 l 60 156 l 171 156 l 171 663 l 60 663 l 60 818 l 426 818 q 685 748 613 818 q 758 542 758 678 q 611 289 758 346 l 694 156 l 839 156 m 418 421 q 540 447 506 421 q 574 542 574 474 q 535 636 574 610 q 418 663 497 663 l 351 663 l 351 421 l 418 421 m 339 -417 q 370 -374 347 -407 q 407 -311 393 -340 q 342 -271 363 -300 q 321 -206 321 -242 q 353 -123 321 -154 q 439 -92 386 -92 q 522 -128 485 -92 q 558 -212 558 -164 q 516 -343 558 -285 q 437 -435 474 -401 q 392 -476 400 -468 l 339 -417 z "},"Ȑ":{"ha":879,"x_min":-10,"x_max":839,"o":"m 839 156 l 839 0 l 590 0 l 446 267 l 350 267 l 350 156 l 417 156 l 417 0 l 60 0 l 60 156 l 171 156 l 171 663 l 60 663 l 60 818 l 426 818 q 685 748 613 818 q 758 542 758 678 q 611 289 758 346 l 694 156 l 839 156 m 418 421 q 540 447 506 421 q 574 542 574 474 q 535 636 574 610 q 418 663 497 663 l 351 663 l 351 421 l 418 421 m 375 1257 l 557 956 l 483 907 l 258 1171 l 375 1257 m 86 1228 l 324 969 l 261 907 l -10 1124 l 86 1228 z "},"Ṛ":{"ha":879,"x_min":60,"x_max":839,"o":"m 839 156 l 839 0 l 590 0 l 446 267 l 350 267 l 350 156 l 417 156 l 417 0 l 60 0 l 60 156 l 171 156 l 171 663 l 60 663 l 60 818 l 426 818 q 685 748 613 818 q 758 542 758 678 q 611 289 758 346 l 694 156 l 839 156 m 418 421 q 540 447 506 421 q 574 542 574 474 q 535 636 574 610 q 418 663 497 663 l 351 663 l 351 421 l 418 421 m 439 -81 q 511 -108 483 -81 q 539 -181 539 -136 q 511 -252 539 -225 q 439 -279 483 -279 q 367 -252 394 -279 q 340 -181 340 -225 q 367 -108 340 -136 q 439 -81 394 -81 z "},"Ȓ":{"ha":879,"x_min":60,"x_max":839,"o":"m 839 156 l 839 0 l 590 0 l 446 267 l 350 267 l 350 156 l 417 156 l 417 0 l 60 0 l 60 156 l 171 156 l 171 663 l 60 663 l 60 818 l 426 818 q 685 748 613 818 q 758 542 758 678 q 611 289 758 346 l 694 156 l 839 156 m 418 421 q 540 447 506 421 q 574 542 574 474 q 535 636 574 610 q 418 663 497 663 l 351 663 l 351 421 l 418 421 m 383 1150 q 560 1099 496 1150 q 635 946 624 1047 l 521 932 q 483 1014 518 986 q 383 1042 449 1042 q 286 1014 321 1042 q 249 932 251 986 l 135 946 q 209 1099 146 1047 q 383 1150 272 1150 z "},"Ṟ":{"ha":879,"x_min":60,"x_max":839,"o":"m 839 156 l 839 0 l 590 0 l 446 267 l 350 267 l 350 156 l 417 156 l 417 0 l 60 0 l 60 156 l 171 156 l 171 663 l 60 663 l 60 818 l 426 818 q 685 748 613 818 q 758 542 758 678 q 611 289 758 346 l 694 156 l 839 156 m 418 421 q 540 447 506 421 q 574 542 574 474 q 535 636 574 610 q 418 663 497 663 l 351 663 l 351 421 l 418 421 m 207 -83 l 672 -83 l 672 -196 l 207 -196 l 207 -83 z "},"S":{"ha":789,"x_min":61,"x_max":733,"o":"m 396 -31 q 86 22 219 -31 l 61 219 l 206 238 l 219 138 q 382 111 297 111 q 522 140 467 111 q 576 224 576 169 q 547 294 576 267 q 436 335 518 321 l 338 353 q 75 599 75 400 q 172 785 75 721 q 411 849 268 849 q 669 794 551 849 l 697 579 l 540 563 l 522 692 q 404 711 461 711 q 281 684 326 711 q 236 614 236 657 q 268 542 236 568 q 382 503 300 517 l 478 486 q 674 406 614 465 q 733 246 733 347 q 633 31 733 92 q 396 -31 532 -31 z "},"Ś":{"ha":789,"x_min":61,"x_max":733,"o":"m 396 -31 q 86 22 219 -31 l 61 219 l 206 238 l 219 138 q 382 111 297 111 q 522 140 467 111 q 576 224 576 169 q 547 294 576 267 q 436 335 518 321 l 338 353 q 75 599 75 400 q 172 785 75 721 q 411 849 268 849 q 669 794 551 849 l 697 579 l 540 563 l 522 692 q 404 711 461 711 q 281 684 326 711 q 236 614 236 657 q 268 542 236 568 q 382 503 300 517 l 478 486 q 674 406 614 465 q 733 246 733 347 q 633 31 733 92 q 396 -31 532 -31 m 613 1113 l 651 969 l 300 919 l 275 986 l 613 1113 z "},"Ṥ":{"ha":789,"x_min":61,"x_max":733,"o":"m 396 -31 q 86 22 219 -31 l 61 219 l 206 238 l 219 138 q 382 111 297 111 q 522 140 467 111 q 576 224 576 169 q 547 294 576 267 q 436 335 518 321 l 338 353 q 75 599 75 400 q 172 785 75 721 q 411 849 268 849 q 669 794 551 849 l 697 579 l 540 563 l 522 692 q 404 711 461 711 q 281 684 326 711 q 236 614 236 657 q 268 542 236 568 q 382 503 300 517 l 478 486 q 674 406 614 465 q 733 246 733 347 q 633 31 733 92 q 396 -31 532 -31 m 613 1113 l 651 969 l 300 919 l 275 986 l 613 1113 m 463 1332 q 535 1304 507 1332 q 563 1232 563 1276 q 535 1160 563 1188 q 463 1133 507 1133 q 391 1160 418 1133 q 364 1232 364 1188 q 391 1304 364 1276 q 463 1332 418 1332 z "},"Š":{"ha":789,"x_min":61,"x_max":733,"o":"m 396 -31 q 86 22 219 -31 l 61 219 l 206 238 l 219 138 q 382 111 297 111 q 522 140 467 111 q 576 224 576 169 q 547 294 576 267 q 436 335 518 321 l 338 353 q 75 599 75 400 q 172 785 75 721 q 411 849 268 849 q 669 794 551 849 l 697 579 l 540 563 l 522 692 q 404 711 461 711 q 281 684 326 711 q 236 614 236 657 q 268 542 236 568 q 382 503 300 517 l 478 486 q 674 406 614 465 q 733 246 733 347 q 633 31 733 92 q 396 -31 532 -31 m 394 894 l 154 1061 l 203 1135 l 396 1025 l 575 1135 l 631 1061 l 394 894 z "},"Ṧ":{"ha":789,"x_min":61,"x_max":733,"o":"m 396 -31 q 86 22 219 -31 l 61 219 l 206 238 l 219 138 q 382 111 297 111 q 522 140 467 111 q 576 224 576 169 q 547 294 576 267 q 436 335 518 321 l 338 353 q 75 599 75 400 q 172 785 75 721 q 411 849 268 849 q 669 794 551 849 l 697 579 l 540 563 l 522 692 q 404 711 461 711 q 281 684 326 711 q 236 614 236 657 q 268 542 236 568 q 382 503 300 517 l 478 486 q 674 406 614 465 q 733 246 733 347 q 633 31 733 92 q 396 -31 532 -31 m 394 894 l 154 1061 l 203 1135 l 396 1025 l 575 1135 l 631 1061 l 394 894 m 393 1351 q 465 1324 438 1351 q 493 1251 493 1296 q 465 1180 493 1207 q 393 1153 438 1153 q 322 1180 349 1153 q 294 1251 294 1207 q 322 1324 294 1296 q 393 1351 349 1351 z "},"Ş":{"ha":789,"x_min":61,"x_max":733,"o":"m 503 -65 q 642 -92 597 -62 q 688 -187 688 -121 q 634 -296 688 -260 q 500 -332 581 -332 q 402 -313 446 -332 q 317 -265 358 -294 l 367 -193 q 429 -224 400 -214 q 499 -235 458 -235 q 540 -219 526 -235 q 553 -179 553 -204 q 538 -148 553 -161 q 485 -135 522 -135 l 394 -135 l 394 -31 q 86 22 219 -31 l 61 219 l 206 238 l 219 138 q 382 111 297 111 q 522 140 467 111 q 576 224 576 169 q 547 294 576 267 q 436 335 518 321 l 338 353 q 75 599 75 400 q 172 785 75 721 q 411 849 268 849 q 669 794 551 849 l 697 579 l 540 563 l 522 692 q 404 711 461 711 q 281 684 326 711 q 236 614 236 657 q 268 542 236 568 q 382 503 300 517 l 478 486 q 674 406 614 465 q 733 246 733 347 q 669 63 733 125 q 503 -21 604 0 l 503 -65 z "},"Ŝ":{"ha":789,"x_min":61,"x_max":733,"o":"m 396 -31 q 86 22 219 -31 l 61 219 l 206 238 l 219 138 q 382 111 297 111 q 522 140 467 111 q 576 224 576 169 q 547 294 576 267 q 436 335 518 321 l 338 353 q 75 599 75 400 q 172 785 75 721 q 411 849 268 849 q 669 794 551 849 l 697 579 l 540 563 l 522 692 q 404 711 461 711 q 281 684 326 711 q 236 614 236 657 q 268 542 236 568 q 382 503 300 517 l 478 486 q 674 406 614 465 q 733 246 733 347 q 633 31 733 92 q 396 -31 532 -31 m 393 1111 l 649 964 l 599 899 l 394 982 l 183 899 l 139 964 l 393 1111 z "},"Ș":{"ha":789,"x_min":61,"x_max":733,"o":"m 396 -31 q 86 22 219 -31 l 61 219 l 206 238 l 219 138 q 382 111 297 111 q 522 140 467 111 q 576 224 576 169 q 547 294 576 267 q 436 335 518 321 l 338 353 q 75 599 75 400 q 172 785 75 721 q 411 849 268 849 q 669 794 551 849 l 697 579 l 540 563 l 522 692 q 404 711 461 711 q 281 684 326 711 q 236 614 236 657 q 268 542 236 568 q 382 503 300 517 l 478 486 q 674 406 614 465 q 733 246 733 347 q 633 31 733 92 q 396 -31 532 -31 m 293 -417 q 324 -374 301 -407 q 361 -311 347 -340 q 296 -271 317 -300 q 275 -206 275 -242 q 308 -123 275 -154 q 393 -92 340 -92 q 476 -128 439 -92 q 513 -212 513 -164 q 470 -343 513 -285 q 391 -435 428 -401 q 346 -476 354 -468 l 293 -417 z "},"Ṡ":{"ha":789,"x_min":61,"x_max":733,"o":"m 396 -31 q 86 22 219 -31 l 61 219 l 206 238 l 219 138 q 382 111 297 111 q 522 140 467 111 q 576 224 576 169 q 547 294 576 267 q 436 335 518 321 l 338 353 q 75 599 75 400 q 172 785 75 721 q 411 849 268 849 q 669 794 551 849 l 697 579 l 540 563 l 522 692 q 404 711 461 711 q 281 684 326 711 q 236 614 236 657 q 268 542 236 568 q 382 503 300 517 l 478 486 q 674 406 614 465 q 733 246 733 347 q 633 31 733 92 q 396 -31 532 -31 m 393 1121 q 465 1093 438 1121 q 493 1021 493 1065 q 465 949 493 976 q 393 922 438 922 q 322 949 349 922 q 294 1021 294 976 q 322 1093 294 1065 q 393 1121 349 1121 z "},"Ṣ":{"ha":789,"x_min":61,"x_max":733,"o":"m 396 -31 q 86 22 219 -31 l 61 219 l 206 238 l 219 138 q 382 111 297 111 q 522 140 467 111 q 576 224 576 169 q 547 294 576 267 q 436 335 518 321 l 338 353 q 75 599 75 400 q 172 785 75 721 q 411 849 268 849 q 669 794 551 849 l 697 579 l 540 563 l 522 692 q 404 711 461 711 q 281 684 326 711 q 236 614 236 657 q 268 542 236 568 q 382 503 300 517 l 478 486 q 674 406 614 465 q 733 246 733 347 q 633 31 733 92 q 396 -31 532 -31 m 393 -81 q 465 -108 438 -81 q 493 -181 493 -136 q 465 -252 493 -225 q 393 -279 438 -279 q 322 -252 349 -279 q 294 -181 294 -225 q 322 -108 294 -136 q 393 -81 349 -81 z "},"Ṩ":{"ha":789,"x_min":61,"x_max":733,"o":"m 396 -31 q 86 22 219 -31 l 61 219 l 206 238 l 219 138 q 382 111 297 111 q 522 140 467 111 q 576 224 576 169 q 547 294 576 267 q 436 335 518 321 l 338 353 q 75 599 75 400 q 172 785 75 721 q 411 849 268 849 q 669 794 551 849 l 697 579 l 540 563 l 522 692 q 404 711 461 711 q 281 684 326 711 q 236 614 236 657 q 268 542 236 568 q 382 503 300 517 l 478 486 q 674 406 614 465 q 733 246 733 347 q 633 31 733 92 q 396 -31 532 -31 m 393 -81 q 465 -108 438 -81 q 493 -181 493 -136 q 465 -252 493 -225 q 393 -279 438 -279 q 322 -252 349 -279 q 294 -181 294 -225 q 322 -108 294 -136 q 393 -81 349 -81 m 393 1121 q 465 1093 438 1121 q 493 1021 493 1065 q 465 949 493 976 q 393 922 438 922 q 322 949 349 922 q 294 1021 294 976 q 322 1093 294 1065 q 393 1121 349 1121 z "},"ẞ":{"ha":857,"x_min":63,"x_max":819,"o":"m 589 -24 q 478 -4 532 -24 q 401 46 425 15 l 379 167 l 511 193 l 524 124 q 551 110 533 115 q 588 106 568 106 q 639 123 619 106 q 658 167 658 140 q 633 221 658 194 q 561 269 608 247 q 440 349 471 313 q 408 450 408 386 q 434 540 408 506 q 508 613 460 574 q 565 664 547 643 q 582 714 582 685 q 552 774 582 753 q 468 796 522 796 q 381 760 406 796 q 356 635 356 724 l 356 0 l 63 0 l 63 156 l 179 156 l 179 476 l 63 476 l 63 631 l 179 631 l 179 682 q 461 926 179 926 q 661 868 585 926 q 738 714 738 810 q 709 617 738 653 q 631 544 681 581 q 582 504 597 521 q 567 467 567 488 q 587 419 567 439 q 660 375 607 399 q 819 181 819 299 q 756 33 819 90 q 589 -24 692 -24 z "},"Ə":{"ha":871,"x_min":42,"x_max":803,"o":"m 375 849 q 600 797 503 849 q 750 646 697 744 q 803 411 803 547 q 753 172 803 272 q 617 21 704 72 q 414 -31 529 -31 q 222 17 307 -31 q 90 156 138 64 q 42 376 42 247 l 42 449 l 629 449 q 553 635 619 572 q 374 699 488 699 q 242 676 299 699 l 217 560 l 65 593 l 100 775 q 375 849 218 849 m 410 119 q 564 172 503 119 q 625 321 625 225 l 214 321 q 267 168 214 217 q 410 119 319 119 z "},"T":{"ha":840,"x_min":39,"x_max":788,"o":"m 39 818 l 788 818 l 788 522 l 632 522 l 632 663 l 503 663 l 503 156 l 615 156 l 615 0 l 208 0 l 208 156 l 322 156 l 322 663 l 194 663 l 194 522 l 39 522 l 39 818 z "},"Ŧ":{"ha":840,"x_min":39,"x_max":788,"o":"m 788 522 l 632 522 l 632 663 l 503 663 l 503 465 l 646 465 l 646 353 l 503 353 l 503 156 l 615 156 l 615 0 l 208 0 l 208 156 l 322 156 l 322 353 l 181 353 l 181 465 l 322 465 l 322 663 l 194 663 l 194 522 l 39 522 l 39 818 l 788 818 l 788 522 z "},"Ť":{"ha":840,"x_min":39,"x_max":788,"o":"m 39 818 l 788 818 l 788 522 l 632 522 l 632 663 l 503 663 l 503 156 l 615 156 l 615 0 l 208 0 l 208 156 l 322 156 l 322 663 l 194 663 l 194 522 l 39 522 l 39 818 m 414 894 l 174 1061 l 222 1135 l 415 1025 l 594 1135 l 650 1061 l 414 894 z "},"Ţ":{"ha":840,"x_min":39,"x_max":788,"o":"m 39 818 l 788 818 l 788 522 l 632 522 l 632 663 l 503 663 l 503 156 l 615 156 l 615 0 l 208 0 l 208 156 l 322 156 l 322 663 l 194 663 l 194 522 l 39 522 l 39 818 m 519 -332 q 422 -313 465 -332 q 336 -265 378 -294 l 386 -193 q 449 -224 419 -214 q 518 -235 478 -235 q 559 -219 546 -235 q 572 -179 572 -204 q 557 -148 572 -161 q 504 -135 542 -135 l 414 -135 l 414 0 l 522 0 l 522 -65 q 662 -92 617 -62 q 707 -187 707 -121 q 653 -296 707 -260 q 519 -332 600 -332 z "},"Ț":{"ha":840,"x_min":39,"x_max":788,"o":"m 39 818 l 788 818 l 788 522 l 632 522 l 632 663 l 503 663 l 503 156 l 615 156 l 615 0 l 208 0 l 208 156 l 322 156 l 322 663 l 194 663 l 194 522 l 39 522 l 39 818 m 313 -417 q 344 -374 321 -407 q 381 -311 367 -340 q 315 -271 336 -300 q 294 -206 294 -242 q 327 -123 294 -154 q 413 -92 360 -92 q 495 -128 458 -92 q 532 -212 532 -164 q 490 -343 532 -285 q 410 -435 447 -401 q 365 -476 374 -468 l 313 -417 z "},"Ṭ":{"ha":840,"x_min":39,"x_max":788,"o":"m 39 818 l 788 818 l 788 522 l 632 522 l 632 663 l 503 663 l 503 156 l 615 156 l 615 0 l 208 0 l 208 156 l 322 156 l 322 663 l 194 663 l 194 522 l 39 522 l 39 818 m 413 -81 q 485 -108 457 -81 q 513 -181 513 -136 q 485 -252 513 -225 q 413 -279 457 -279 q 341 -252 368 -279 q 314 -181 314 -225 q 341 -108 314 -136 q 413 -81 368 -81 z "},"Ṯ":{"ha":840,"x_min":39,"x_max":788,"o":"m 39 818 l 788 818 l 788 522 l 632 522 l 632 663 l 503 663 l 503 156 l 615 156 l 615 0 l 208 0 l 208 156 l 322 156 l 322 663 l 194 663 l 194 522 l 39 522 l 39 818 m 181 -83 l 646 -83 l 646 -196 l 181 -196 l 181 -83 z "},"U":{"ha":961,"x_min":40,"x_max":921,"o":"m 807 294 q 725 52 807 135 q 482 -31 643 -31 q 236 51 319 -31 q 153 294 153 133 l 153 663 l 40 663 l 40 818 l 408 818 l 408 663 l 332 663 l 332 271 q 369 153 332 189 q 482 117 406 117 q 592 157 556 117 q 628 285 628 197 l 628 663 l 551 663 l 551 818 l 921 818 l 921 663 l 807 663 l 807 294 z "},"Ú":{"ha":961,"x_min":40,"x_max":921,"o":"m 807 294 q 725 52 807 135 q 482 -31 643 -31 q 236 51 319 -31 q 153 294 153 133 l 153 663 l 40 663 l 40 818 l 408 818 l 408 663 l 332 663 l 332 271 q 369 153 332 189 q 482 117 406 117 q 592 157 556 117 q 628 285 628 197 l 628 663 l 551 663 l 551 818 l 921 818 l 921 663 l 807 663 l 807 294 m 699 1113 l 738 969 l 386 919 l 361 986 l 699 1113 z "},"Ŭ":{"ha":961,"x_min":40,"x_max":921,"o":"m 807 294 q 725 52 807 135 q 482 -31 643 -31 q 236 51 319 -31 q 153 294 153 133 l 153 663 l 40 663 l 40 818 l 408 818 l 408 663 l 332 663 l 332 271 q 369 153 332 189 q 482 117 406 117 q 592 157 556 117 q 628 285 628 197 l 628 663 l 551 663 l 551 818 l 921 818 l 921 663 l 807 663 l 807 294 m 479 918 q 305 969 368 918 q 231 1122 242 1021 l 344 1136 q 382 1054 347 1082 q 479 1026 417 1026 q 579 1054 544 1026 q 617 1136 614 1082 l 731 1122 q 656 969 719 1021 q 479 918 592 918 z "},"Û":{"ha":961,"x_min":40,"x_max":921,"o":"m 807 294 q 725 52 807 135 q 482 -31 643 -31 q 236 51 319 -31 q 153 294 153 133 l 153 663 l 40 663 l 40 818 l 408 818 l 408 663 l 332 663 l 332 271 q 369 153 332 189 q 482 117 406 117 q 592 157 556 117 q 628 285 628 197 l 628 663 l 551 663 l 551 818 l 921 818 l 921 663 l 807 663 l 807 294 m 479 1111 l 735 964 l 685 899 l 481 982 l 269 899 l 225 964 l 479 1111 z "},"Ȕ":{"ha":961,"x_min":40,"x_max":921,"o":"m 807 294 q 725 52 807 135 q 482 -31 643 -31 q 236 51 319 -31 q 153 294 153 133 l 153 663 l 40 663 l 40 818 l 408 818 l 408 663 l 332 663 l 332 271 q 369 153 332 189 q 482 117 406 117 q 592 157 556 117 q 628 285 628 197 l 628 663 l 551 663 l 551 818 l 921 818 l 921 663 l 807 663 l 807 294 m 471 1257 l 653 956 l 579 907 l 354 1171 l 471 1257 m 182 1228 l 419 969 l 357 907 l 86 1124 l 182 1228 z "},"Ü":{"ha":961,"x_min":40,"x_max":921,"o":"m 807 294 q 725 52 807 135 q 482 -31 643 -31 q 236 51 319 -31 q 153 294 153 133 l 153 663 l 40 663 l 40 818 l 408 818 l 408 663 l 332 663 l 332 271 q 369 153 332 189 q 482 117 406 117 q 592 157 556 117 q 628 285 628 197 l 628 663 l 551 663 l 551 818 l 921 818 l 921 663 l 807 663 l 807 294 m 342 1121 q 413 1090 382 1121 q 443 1019 443 1060 q 413 948 443 978 q 342 918 382 918 q 270 948 300 918 q 240 1019 240 978 q 270 1090 240 1060 q 342 1121 300 1121 m 614 1121 q 684 1090 654 1121 q 714 1019 714 1060 q 684 948 714 978 q 614 918 654 918 q 541 948 571 918 q 511 1019 511 978 q 541 1091 511 1061 q 614 1121 571 1121 z "},"Ụ":{"ha":961,"x_min":40,"x_max":921,"o":"m 807 294 q 725 52 807 135 q 482 -31 643 -31 q 236 51 319 -31 q 153 294 153 133 l 153 663 l 40 663 l 40 818 l 408 818 l 408 663 l 332 663 l 332 271 q 369 153 332 189 q 482 117 406 117 q 592 157 556 117 q 628 285 628 197 l 628 663 l 551 663 l 551 818 l 921 818 l 921 663 l 807 663 l 807 294 m 465 -81 q 538 -108 510 -81 q 565 -181 565 -136 q 538 -252 565 -225 q 465 -279 510 -279 q 394 -252 421 -279 q 367 -181 367 -225 q 394 -108 367 -136 q 465 -81 421 -81 z "},"Ù":{"ha":961,"x_min":40,"x_max":921,"o":"m 807 294 q 725 52 807 135 q 482 -31 643 -31 q 236 51 319 -31 q 153 294 153 133 l 153 663 l 40 663 l 40 818 l 408 818 l 408 663 l 332 663 l 332 271 q 369 153 332 189 q 482 117 406 117 q 592 157 556 117 q 628 285 628 197 l 628 663 l 551 663 l 551 818 l 921 818 l 921 663 l 807 663 l 807 294 m 246 1117 l 586 992 l 561 924 l 207 975 l 246 1117 z "},"Ủ":{"ha":961,"x_min":40,"x_max":921,"o":"m 807 294 q 725 52 807 135 q 482 -31 643 -31 q 236 51 319 -31 q 153 294 153 133 l 153 663 l 40 663 l 40 818 l 408 818 l 408 663 l 332 663 l 332 271 q 369 153 332 189 q 482 117 406 117 q 592 157 556 117 q 628 285 628 197 l 628 663 l 551 663 l 551 818 l 921 818 l 921 663 l 807 663 l 807 294 m 453 931 q 495 975 481 951 q 510 1019 510 999 q 498 1049 510 1038 q 464 1060 486 1060 q 428 1049 446 1060 q 390 1018 411 1039 l 324 1092 q 404 1154 365 1135 q 485 1174 443 1174 q 584 1140 549 1174 q 619 1053 619 1106 q 592 960 619 1007 q 510 879 564 913 l 453 931 z "},"Ư":{"ha":1044,"x_min":40,"x_max":961,"o":"m 961 928 q 922 759 961 824 q 807 674 883 694 l 807 294 q 725 52 807 135 q 482 -31 643 -31 q 236 51 319 -31 q 153 294 153 133 l 153 663 l 40 663 l 40 818 l 408 818 l 408 663 l 332 663 l 332 271 q 369 153 332 189 q 482 117 406 117 q 592 157 556 117 q 628 285 628 197 l 628 663 l 551 663 l 551 818 l 724 818 q 795 846 771 818 q 819 928 819 874 l 961 928 z "},"Ứ":{"ha":1044,"x_min":40,"x_max":961,"o":"m 961 928 q 922 759 961 824 q 807 674 883 694 l 807 294 q 725 52 807 135 q 482 -31 643 -31 q 236 51 319 -31 q 153 294 153 133 l 153 663 l 40 663 l 40 818 l 408 818 l 408 663 l 332 663 l 332 271 q 369 153 332 189 q 482 117 406 117 q 592 157 556 117 q 628 285 628 197 l 628 663 l 551 663 l 551 818 l 724 818 q 795 846 771 818 q 819 928 819 874 l 961 928 m 713 1113 l 751 969 l 400 919 l 375 986 l 713 1113 z "},"Ự":{"ha":1044,"x_min":40,"x_max":961,"o":"m 961 928 q 922 759 961 824 q 807 674 883 694 l 807 294 q 725 52 807 135 q 482 -31 643 -31 q 236 51 319 -31 q 153 294 153 133 l 153 663 l 40 663 l 40 818 l 408 818 l 408 663 l 332 663 l 332 271 q 369 153 332 189 q 482 117 406 117 q 592 157 556 117 q 628 285 628 197 l 628 663 l 551 663 l 551 818 l 724 818 q 795 846 771 818 q 819 928 819 874 l 961 928 m 521 -81 q 593 -108 565 -81 q 621 -181 621 -136 q 593 -252 621 -225 q 521 -279 565 -279 q 449 -252 476 -279 q 422 -181 422 -225 q 449 -108 422 -136 q 521 -81 476 -81 z "},"Ừ":{"ha":1044,"x_min":40,"x_max":961,"o":"m 961 928 q 922 759 961 824 q 807 674 883 694 l 807 294 q 725 52 807 135 q 482 -31 643 -31 q 236 51 319 -31 q 153 294 153 133 l 153 663 l 40 663 l 40 818 l 408 818 l 408 663 l 332 663 l 332 271 q 369 153 332 189 q 482 117 406 117 q 592 157 556 117 q 628 285 628 197 l 628 663 l 551 663 l 551 818 l 724 818 q 795 846 771 818 q 819 928 819 874 l 961 928 m 260 1117 l 600 992 l 575 924 l 221 975 l 260 1117 z "},"Ử":{"ha":1044,"x_min":40,"x_max":961,"o":"m 961 928 q 922 759 961 824 q 807 674 883 694 l 807 294 q 725 52 807 135 q 482 -31 643 -31 q 236 51 319 -31 q 153 294 153 133 l 153 663 l 40 663 l 40 818 l 408 818 l 408 663 l 332 663 l 332 271 q 369 153 332 189 q 482 117 406 117 q 592 157 556 117 q 628 285 628 197 l 628 663 l 551 663 l 551 818 l 724 818 q 795 846 771 818 q 819 928 819 874 l 961 928 m 467 931 q 509 975 494 951 q 524 1019 524 999 q 512 1049 524 1038 q 478 1060 500 1060 q 442 1049 460 1060 q 404 1018 425 1039 l 338 1092 q 418 1154 379 1135 q 499 1174 457 1174 q 598 1140 563 1174 q 633 1053 633 1106 q 606 960 633 1007 q 524 879 578 913 l 467 931 z "},"Ữ":{"ha":1044,"x_min":40,"x_max":961,"o":"m 961 928 q 922 759 961 824 q 807 674 883 694 l 807 294 q 725 52 807 135 q 482 -31 643 -31 q 236 51 319 -31 q 153 294 153 133 l 153 663 l 40 663 l 40 818 l 408 818 l 408 663 l 332 663 l 332 271 q 369 153 332 189 q 482 117 406 117 q 592 157 556 117 q 628 285 628 197 l 628 663 l 551 663 l 551 818 l 724 818 q 795 846 771 818 q 819 928 819 874 l 961 928 m 247 1033 q 334 1088 297 1072 q 419 1104 371 1104 q 469 1096 446 1104 q 519 1074 492 1088 q 564 1053 546 1060 q 601 1047 582 1047 q 655 1056 632 1047 q 717 1089 678 1064 l 756 996 q 676 939 714 956 q 585 922 639 922 q 544 929 564 922 q 497 950 525 936 q 407 979 444 979 q 367 973 385 979 q 326 956 349 967 q 292 940 303 946 l 247 1033 z "},"Ű":{"ha":961,"x_min":40,"x_max":921,"o":"m 807 294 q 725 52 807 135 q 482 -31 643 -31 q 236 51 319 -31 q 153 294 153 133 l 153 663 l 40 663 l 40 818 l 408 818 l 408 663 l 332 663 l 332 271 q 369 153 332 189 q 482 117 406 117 q 592 157 556 117 q 628 285 628 197 l 628 663 l 551 663 l 551 818 l 921 818 l 921 663 l 807 663 l 807 294 m 535 1169 l 624 1069 l 390 910 l 343 956 l 535 1169 m 783 1113 l 842 992 l 568 914 l 535 971 l 783 1113 z "},"Ȗ":{"ha":961,"x_min":40,"x_max":921,"o":"m 807 294 q 725 52 807 135 q 482 -31 643 -31 q 236 51 319 -31 q 153 294 153 133 l 153 663 l 40 663 l 40 818 l 408 818 l 408 663 l 332 663 l 332 271 q 369 153 332 189 q 482 117 406 117 q 592 157 556 117 q 628 285 628 197 l 628 663 l 551 663 l 551 818 l 921 818 l 921 663 l 807 663 l 807 294 m 479 1150 q 656 1099 592 1150 q 731 946 719 1047 l 617 932 q 579 1014 614 986 q 479 1042 544 1042 q 382 1014 417 1042 q 344 932 347 986 l 231 946 q 305 1099 242 1047 q 479 1150 368 1150 z "},"Ū":{"ha":961,"x_min":40,"x_max":921,"o":"m 807 294 q 725 52 807 135 q 482 -31 643 -31 q 236 51 319 -31 q 153 294 153 133 l 153 663 l 40 663 l 40 818 l 408 818 l 408 663 l 332 663 l 332 271 q 369 153 332 189 q 482 117 406 117 q 592 157 556 117 q 628 285 628 197 l 628 663 l 551 663 l 551 818 l 921 818 l 921 663 l 807 663 l 807 294 m 239 1061 l 721 1061 l 721 947 l 239 947 l 239 1061 z "},"Ṻ":{"ha":961,"x_min":40,"x_max":921,"o":"m 807 294 q 725 52 807 135 q 482 -31 643 -31 q 236 51 319 -31 q 153 294 153 133 l 153 663 l 40 663 l 40 818 l 408 818 l 408 663 l 332 663 l 332 271 q 369 153 332 189 q 482 117 406 117 q 592 157 556 117 q 628 285 628 197 l 628 663 l 551 663 l 551 818 l 921 818 l 921 663 l 807 663 l 807 294 m 239 1061 l 721 1061 l 721 947 l 239 947 l 239 1061 m 340 1322 q 411 1292 381 1322 q 442 1221 442 1261 q 411 1149 442 1179 q 340 1119 381 1119 q 269 1149 299 1119 q 239 1221 239 1179 q 269 1292 239 1261 q 340 1322 299 1322 m 613 1322 q 683 1292 653 1322 q 713 1221 713 1261 q 683 1149 713 1179 q 613 1119 653 1119 q 540 1149 569 1119 q 510 1221 510 1179 q 540 1292 510 1263 q 613 1322 569 1322 z "},"Ų":{"ha":961,"x_min":40,"x_max":921,"o":"m 921 818 l 921 663 l 807 663 l 807 294 q 631 -7 807 58 q 547 -139 547 -61 q 571 -189 547 -169 q 631 -208 594 -208 q 699 -193 661 -208 l 699 -299 q 569 -325 638 -325 q 433 -288 481 -325 q 386 -193 386 -251 q 463 -31 386 -101 q 231 57 310 -25 q 153 294 153 139 l 153 663 l 40 663 l 40 818 l 408 818 l 408 663 l 332 663 l 332 271 q 369 153 332 189 q 482 117 406 117 q 592 157 556 117 q 628 285 628 197 l 628 663 l 551 663 l 551 818 l 921 818 z "},"Ů":{"ha":961,"x_min":40,"x_max":921,"o":"m 807 294 q 725 52 807 135 q 482 -31 643 -31 q 236 51 319 -31 q 153 294 153 133 l 153 663 l 40 663 l 40 818 l 408 818 l 408 663 l 332 663 l 332 271 q 369 153 332 189 q 482 117 406 117 q 592 157 556 117 q 628 285 628 197 l 628 663 l 551 663 l 551 818 l 921 818 l 921 663 l 807 663 l 807 294 m 479 1228 q 591 1185 549 1228 q 633 1074 633 1143 q 591 963 633 1004 q 479 921 549 921 q 368 963 410 921 q 326 1074 326 1006 q 368 1185 326 1143 q 479 1228 410 1228 m 479 1147 q 426 1127 446 1147 q 406 1074 406 1107 q 426 1022 406 1042 q 479 1001 446 1001 q 533 1022 513 1001 q 553 1074 553 1042 q 533 1127 553 1107 q 479 1147 513 1147 z "},"Ũ":{"ha":961,"x_min":40,"x_max":921,"o":"m 807 294 q 725 52 807 135 q 482 -31 643 -31 q 236 51 319 -31 q 153 294 153 133 l 153 663 l 40 663 l 40 818 l 408 818 l 408 663 l 332 663 l 332 271 q 369 153 332 189 q 482 117 406 117 q 592 157 556 117 q 628 285 628 197 l 628 663 l 551 663 l 551 818 l 921 818 l 921 663 l 807 663 l 807 294 m 233 1033 q 320 1088 283 1072 q 406 1104 357 1104 q 455 1096 432 1104 q 506 1074 478 1088 q 550 1053 532 1060 q 588 1047 568 1047 q 641 1056 618 1047 q 703 1089 664 1064 l 742 996 q 663 939 700 956 q 571 922 625 922 q 531 929 550 922 q 483 950 511 936 q 393 979 431 979 q 353 973 371 979 q 312 956 335 967 q 278 940 289 946 l 233 1033 z "},"Ṹ":{"ha":961,"x_min":40,"x_max":921,"o":"m 807 294 q 725 52 807 135 q 482 -31 643 -31 q 236 51 319 -31 q 153 294 153 133 l 153 663 l 40 663 l 40 818 l 408 818 l 408 663 l 332 663 l 332 271 q 369 153 332 189 q 482 117 406 117 q 592 157 556 117 q 628 285 628 197 l 628 663 l 551 663 l 551 818 l 921 818 l 921 663 l 807 663 l 807 294 m 233 1033 q 320 1088 283 1072 q 406 1104 357 1104 q 455 1096 432 1104 q 506 1074 478 1088 q 550 1053 532 1060 q 588 1047 568 1047 q 641 1056 618 1047 q 703 1089 664 1064 l 742 996 q 663 939 700 956 q 571 922 625 922 q 531 929 550 922 q 483 950 511 936 q 393 979 431 979 q 353 973 371 979 q 312 956 335 967 q 278 940 289 946 l 233 1033 m 669 1351 l 708 1208 l 357 1158 l 332 1225 l 669 1351 z "},"V":{"ha":931,"x_min":10,"x_max":921,"o":"m 10 818 l 399 818 l 399 663 l 311 663 l 433 356 l 482 181 l 532 357 l 646 663 l 551 663 l 551 818 l 921 818 l 921 663 l 826 663 l 572 0 l 389 0 l 117 663 l 10 663 l 10 818 z "},"W":{"ha":1307,"x_min":10,"x_max":1297,"o":"m 10 818 l 400 818 l 400 663 l 328 663 l 399 357 l 435 181 l 467 357 l 563 715 l 785 715 l 882 357 l 914 181 l 944 357 l 1014 663 l 928 663 l 928 818 l 1297 818 l 1297 663 l 1210 663 l 999 0 l 790 0 l 713 367 l 675 540 l 633 375 l 540 0 l 332 0 l 124 663 l 10 663 l 10 818 z "},"Ẃ":{"ha":1307,"x_min":10,"x_max":1297,"o":"m 10 818 l 400 818 l 400 663 l 328 663 l 399 357 l 435 181 l 467 357 l 563 715 l 785 715 l 882 357 l 914 181 l 944 357 l 1014 663 l 928 663 l 928 818 l 1297 818 l 1297 663 l 1210 663 l 999 0 l 790 0 l 713 367 l 675 540 l 633 375 l 540 0 l 332 0 l 124 663 l 10 663 l 10 818 m 893 1113 l 932 969 l 581 919 l 556 986 l 893 1113 z "},"Ŵ":{"ha":1307,"x_min":10,"x_max":1297,"o":"m 10 818 l 400 818 l 400 663 l 328 663 l 399 357 l 435 181 l 467 357 l 563 715 l 785 715 l 882 357 l 914 181 l 944 357 l 1014 663 l 928 663 l 928 818 l 1297 818 l 1297 663 l 1210 663 l 999 0 l 790 0 l 713 367 l 675 540 l 633 375 l 540 0 l 332 0 l 124 663 l 10 663 l 10 818 m 674 1111 l 929 964 l 879 899 l 675 982 l 464 899 l 419 964 l 674 1111 z "},"Ẅ":{"ha":1307,"x_min":10,"x_max":1297,"o":"m 10 818 l 400 818 l 400 663 l 328 663 l 399 357 l 435 181 l 467 357 l 563 715 l 785 715 l 882 357 l 914 181 l 944 357 l 1014 663 l 928 663 l 928 818 l 1297 818 l 1297 663 l 1210 663 l 999 0 l 790 0 l 713 367 l 675 540 l 633 375 l 540 0 l 332 0 l 124 663 l 10 663 l 10 818 m 536 1121 q 607 1090 576 1121 q 638 1019 638 1060 q 607 948 638 978 q 536 918 576 918 q 465 948 494 918 q 435 1019 435 978 q 465 1090 435 1060 q 536 1121 494 1121 m 808 1121 q 878 1090 849 1121 q 908 1019 908 1060 q 878 948 908 978 q 808 918 849 918 q 735 948 765 918 q 706 1019 706 978 q 735 1091 706 1061 q 808 1121 765 1121 z "},"Ẁ":{"ha":1307,"x_min":10,"x_max":1297,"o":"m 10 818 l 400 818 l 400 663 l 328 663 l 399 357 l 435 181 l 467 357 l 563 715 l 785 715 l 882 357 l 914 181 l 944 357 l 1014 663 l 928 663 l 928 818 l 1297 818 l 1297 663 l 1210 663 l 999 0 l 790 0 l 713 367 l 675 540 l 633 375 l 540 0 l 332 0 l 124 663 l 10 663 l 10 818 m 440 1117 l 781 992 l 756 924 l 401 975 l 440 1117 z "},"X":{"ha":989,"x_min":39,"x_max":954,"o":"m 39 0 l 39 153 l 185 153 l 389 401 l 169 663 l 54 663 l 54 818 l 436 818 l 436 663 l 360 663 l 489 508 l 625 663 l 556 663 l 556 818 l 928 818 l 928 663 l 804 663 l 594 401 l 799 153 l 954 153 l 954 0 l 538 0 l 538 153 l 613 153 l 494 293 l 369 153 l 426 153 l 426 0 l 39 0 z "},"Y":{"ha":926,"x_min":10,"x_max":917,"o":"m 10 818 l 404 818 l 404 663 l 308 663 l 475 439 l 635 663 l 547 663 l 547 818 l 917 818 l 917 663 l 815 663 l 558 321 l 558 154 l 689 154 l 689 0 l 250 0 l 250 154 l 382 154 l 382 321 l 115 663 l 10 663 l 10 818 z "},"Ý":{"ha":926,"x_min":10,"x_max":917,"o":"m 10 818 l 404 818 l 404 663 l 308 663 l 475 439 l 635 663 l 547 663 l 547 818 l 917 818 l 917 663 l 815 663 l 558 321 l 558 154 l 689 154 l 689 0 l 250 0 l 250 154 l 382 154 l 382 321 l 115 663 l 10 663 l 10 818 m 681 1113 l 719 969 l 368 919 l 343 986 l 681 1113 z "},"Ŷ":{"ha":926,"x_min":10,"x_max":917,"o":"m 10 818 l 404 818 l 404 663 l 308 663 l 475 439 l 635 663 l 547 663 l 547 818 l 917 818 l 917 663 l 815 663 l 558 321 l 558 154 l 689 154 l 689 0 l 250 0 l 250 154 l 382 154 l 382 321 l 115 663 l 10 663 l 10 818 m 461 1111 l 717 964 l 667 899 l 463 982 l 251 899 l 207 964 l 461 1111 z "},"Ÿ":{"ha":926,"x_min":10,"x_max":917,"o":"m 10 818 l 404 818 l 404 663 l 308 663 l 475 439 l 635 663 l 547 663 l 547 818 l 917 818 l 917 663 l 815 663 l 558 321 l 558 154 l 689 154 l 689 0 l 250 0 l 250 154 l 382 154 l 382 321 l 115 663 l 10 663 l 10 818 m 324 1121 q 394 1090 364 1121 q 425 1019 425 1060 q 394 948 425 978 q 324 918 364 918 q 252 948 282 918 q 222 1019 222 978 q 252 1090 222 1060 q 324 1121 282 1121 m 596 1121 q 666 1090 636 1121 q 696 1019 696 1060 q 666 948 696 978 q 596 918 636 918 q 523 948 553 918 q 493 1019 493 978 q 523 1091 493 1061 q 596 1121 553 1121 z "},"Ẏ":{"ha":926,"x_min":10,"x_max":917,"o":"m 10 818 l 404 818 l 404 663 l 308 663 l 475 439 l 635 663 l 547 663 l 547 818 l 917 818 l 917 663 l 815 663 l 558 321 l 558 154 l 689 154 l 689 0 l 250 0 l 250 154 l 382 154 l 382 321 l 115 663 l 10 663 l 10 818 m 461 1121 q 533 1093 506 1121 q 561 1021 561 1065 q 533 949 561 976 q 461 922 506 922 q 390 949 417 922 q 363 1021 363 976 q 390 1093 363 1065 q 461 1121 417 1121 z "},"Ỵ":{"ha":926,"x_min":10,"x_max":917,"o":"m 10 818 l 404 818 l 404 663 l 308 663 l 475 439 l 635 663 l 547 663 l 547 818 l 917 818 l 917 663 l 815 663 l 558 321 l 558 154 l 689 154 l 689 0 l 250 0 l 250 154 l 382 154 l 382 321 l 115 663 l 10 663 l 10 818 m 461 -81 q 533 -108 506 -81 q 561 -181 561 -136 q 533 -252 561 -225 q 461 -279 506 -279 q 390 -252 417 -279 q 363 -181 363 -225 q 390 -108 363 -136 q 461 -81 417 -81 z "},"Ỳ":{"ha":926,"x_min":10,"x_max":917,"o":"m 10 818 l 404 818 l 404 663 l 308 663 l 475 439 l 635 663 l 547 663 l 547 818 l 917 818 l 917 663 l 815 663 l 558 321 l 558 154 l 689 154 l 689 0 l 250 0 l 250 154 l 382 154 l 382 321 l 115 663 l 10 663 l 10 818 m 228 1117 l 568 992 l 543 924 l 189 975 l 228 1117 z "},"Ỷ":{"ha":926,"x_min":10,"x_max":917,"o":"m 10 818 l 404 818 l 404 663 l 308 663 l 475 439 l 635 663 l 547 663 l 547 818 l 917 818 l 917 663 l 815 663 l 558 321 l 558 154 l 689 154 l 689 0 l 250 0 l 250 154 l 382 154 l 382 321 l 115 663 l 10 663 l 10 818 m 435 931 q 477 975 463 951 q 492 1019 492 999 q 480 1049 492 1038 q 446 1060 468 1060 q 410 1049 428 1060 q 372 1018 393 1039 l 306 1092 q 386 1154 347 1135 q 467 1174 425 1174 q 566 1140 531 1174 q 601 1053 601 1106 q 574 960 601 1007 q 492 879 546 913 l 435 931 z "},"Ȳ":{"ha":926,"x_min":10,"x_max":917,"o":"m 10 818 l 404 818 l 404 663 l 308 663 l 475 439 l 635 663 l 547 663 l 547 818 l 917 818 l 917 663 l 815 663 l 558 321 l 558 154 l 689 154 l 689 0 l 250 0 l 250 154 l 382 154 l 382 321 l 115 663 l 10 663 l 10 818 m 221 1061 l 703 1061 l 703 947 l 221 947 l 221 1061 z "},"Ỹ":{"ha":926,"x_min":10,"x_max":917,"o":"m 10 818 l 404 818 l 404 663 l 308 663 l 475 439 l 635 663 l 547 663 l 547 818 l 917 818 l 917 663 l 815 663 l 558 321 l 558 154 l 689 154 l 689 0 l 250 0 l 250 154 l 382 154 l 382 321 l 115 663 l 10 663 l 10 818 m 215 1033 q 302 1088 265 1072 q 388 1104 339 1104 q 437 1096 414 1104 q 488 1074 460 1088 q 532 1053 514 1060 q 569 1047 550 1047 q 623 1056 600 1047 q 685 1089 646 1064 l 724 996 q 644 939 682 956 q 553 922 607 922 q 513 929 532 922 q 465 950 493 936 q 375 979 413 979 q 335 973 353 979 q 294 956 317 967 q 260 940 271 946 l 215 1033 z "},"Z":{"ha":804,"x_min":44,"x_max":761,"o":"m 88 818 l 719 818 l 719 707 l 306 156 l 565 156 l 613 285 l 761 235 l 681 0 l 68 0 l 68 124 l 475 663 l 225 663 l 200 543 l 44 565 l 88 818 z "},"Ź":{"ha":804,"x_min":44,"x_max":761,"o":"m 88 818 l 719 818 l 719 707 l 306 156 l 565 156 l 613 285 l 761 235 l 681 0 l 68 0 l 68 124 l 475 663 l 225 663 l 200 543 l 44 565 l 88 818 m 628 1113 l 667 969 l 315 919 l 290 986 l 628 1113 z "},"Ž":{"ha":804,"x_min":44,"x_max":761,"o":"m 88 818 l 719 818 l 719 707 l 306 156 l 565 156 l 613 285 l 761 235 l 681 0 l 68 0 l 68 124 l 475 663 l 225 663 l 200 543 l 44 565 l 88 818 m 410 894 l 169 1061 l 218 1135 l 411 1025 l 590 1135 l 646 1061 l 410 894 z "},"Ż":{"ha":804,"x_min":44,"x_max":761,"o":"m 88 818 l 719 818 l 719 707 l 306 156 l 565 156 l 613 285 l 761 235 l 681 0 l 68 0 l 68 124 l 475 663 l 225 663 l 200 543 l 44 565 l 88 818 m 408 1121 q 481 1093 453 1121 q 508 1021 508 1065 q 481 949 508 976 q 408 922 453 922 q 337 949 364 922 q 310 1021 310 976 q 337 1093 310 1065 q 408 1121 364 1121 z "},"Ẓ":{"ha":804,"x_min":44,"x_max":761,"o":"m 88 818 l 719 818 l 719 707 l 306 156 l 565 156 l 613 285 l 761 235 l 681 0 l 68 0 l 68 124 l 475 663 l 225 663 l 200 543 l 44 565 l 88 818 m 408 -81 q 481 -108 453 -81 q 508 -181 508 -136 q 481 -252 508 -225 q 408 -279 453 -279 q 337 -252 364 -279 q 310 -181 310 -225 q 337 -108 310 -136 q 408 -81 364 -81 z "},"a":{"ha":778,"x_min":51,"x_max":750,"o":"m 525 24 q 325 -28 425 -28 q 121 23 190 -28 q 51 171 51 74 q 118 319 51 269 q 315 369 185 369 l 461 369 q 428 486 461 446 q 343 526 396 526 q 236 510 286 526 l 224 444 l 78 463 l 104 618 q 350 658 218 658 q 563 585 489 658 q 638 371 638 511 l 638 144 l 750 108 l 701 -36 l 525 24 m 319 260 q 253 238 276 260 q 231 174 231 215 q 331 100 231 100 q 461 136 400 100 l 461 260 l 319 260 z "},"á":{"ha":778,"x_min":51,"x_max":750,"o":"m 525 24 q 325 -28 425 -28 q 121 23 190 -28 q 51 171 51 74 q 118 319 51 269 q 315 369 185 369 l 461 369 q 428 486 461 446 q 343 526 396 526 q 236 510 286 526 l 224 444 l 78 463 l 104 618 q 350 658 218 658 q 563 585 489 658 q 638 371 638 511 l 638 144 l 750 108 l 701 -36 l 525 24 m 319 260 q 253 238 276 260 q 231 174 231 215 q 331 100 231 100 q 461 136 400 100 l 461 260 l 319 260 m 478 1069 l 594 983 l 369 719 l 296 768 l 478 1069 z "},"ă":{"ha":778,"x_min":51,"x_max":750,"o":"m 525 24 q 325 -28 425 -28 q 121 23 190 -28 q 51 171 51 74 q 118 319 51 269 q 315 369 185 369 l 461 369 q 428 486 461 446 q 343 526 396 526 q 236 510 286 526 l 224 444 l 78 463 l 104 618 q 350 658 218 658 q 563 585 489 658 q 638 371 638 511 l 638 144 l 750 108 l 701 -36 l 525 24 m 319 260 q 253 238 276 260 q 231 174 231 215 q 331 100 231 100 q 461 136 400 100 l 461 260 l 319 260 m 350 731 q 176 782 239 731 q 101 935 113 833 l 215 949 q 253 867 218 894 q 350 839 288 839 q 450 867 415 839 q 488 949 485 894 l 601 935 q 526 782 590 833 q 350 731 463 731 z "},"ắ":{"ha":778,"x_min":51,"x_max":750,"o":"m 525 24 q 325 -28 425 -28 q 121 23 190 -28 q 51 171 51 74 q 118 319 51 269 q 315 369 185 369 l 461 369 q 428 486 461 446 q 343 526 396 526 q 236 510 286 526 l 224 444 l 78 463 l 104 618 q 350 658 218 658 q 563 585 489 658 q 638 371 638 511 l 638 144 l 750 108 l 701 -36 l 525 24 m 319 260 q 253 238 276 260 q 231 174 231 215 q 331 100 231 100 q 461 136 400 100 l 461 260 l 319 260 m 436 1194 l 553 1108 l 378 910 l 304 958 l 436 1194 m 350 731 q 176 782 239 731 q 101 935 113 833 l 215 949 q 253 867 218 894 q 350 839 288 839 q 450 867 415 839 q 488 949 485 894 l 601 935 q 526 782 590 833 q 350 731 463 731 z "},"ặ":{"ha":778,"x_min":51,"x_max":750,"o":"m 525 24 q 325 -28 425 -28 q 121 23 190 -28 q 51 171 51 74 q 118 319 51 269 q 315 369 185 369 l 461 369 q 428 486 461 446 q 343 526 396 526 q 236 510 286 526 l 224 444 l 78 463 l 104 618 q 350 658 218 658 q 563 585 489 658 q 638 371 638 511 l 638 144 l 750 108 l 701 -36 l 525 24 m 319 260 q 253 238 276 260 q 231 174 231 215 q 331 100 231 100 q 461 136 400 100 l 461 260 l 319 260 m 386 -81 q 458 -108 431 -81 q 486 -181 486 -136 q 458 -252 486 -225 q 386 -279 431 -279 q 315 -252 342 -279 q 288 -181 288 -225 q 315 -108 288 -136 q 386 -81 342 -81 m 350 731 q 176 782 239 731 q 101 935 113 833 l 215 949 q 253 867 218 894 q 350 839 288 839 q 450 867 415 839 q 488 949 485 894 l 601 935 q 526 782 590 833 q 350 731 463 731 z "},"ằ":{"ha":778,"x_min":51,"x_max":750,"o":"m 525 24 q 325 -28 425 -28 q 121 23 190 -28 q 51 171 51 74 q 118 319 51 269 q 315 369 185 369 l 461 369 q 428 486 461 446 q 343 526 396 526 q 236 510 286 526 l 224 444 l 78 463 l 104 618 q 350 658 218 658 q 563 585 489 658 q 638 371 638 511 l 638 144 l 750 108 l 701 -36 l 525 24 m 319 260 q 253 238 276 260 q 231 174 231 215 q 331 100 231 100 q 461 136 400 100 l 461 260 l 319 260 m 347 910 l 172 1108 l 289 1194 l 421 958 l 347 910 m 350 731 q 176 782 239 731 q 101 935 113 833 l 215 949 q 253 867 218 894 q 350 839 288 839 q 450 867 415 839 q 488 949 485 894 l 601 935 q 526 782 590 833 q 350 731 463 731 z "},"ẳ":{"ha":778,"x_min":51,"x_max":750,"o":"m 525 24 q 325 -28 425 -28 q 121 23 190 -28 q 51 171 51 74 q 118 319 51 269 q 315 369 185 369 l 461 369 q 428 486 461 446 q 343 526 396 526 q 236 510 286 526 l 224 444 l 78 463 l 104 618 q 350 658 218 658 q 563 585 489 658 q 638 371 638 511 l 638 144 l 750 108 l 701 -36 l 525 24 m 319 260 q 253 238 276 260 q 231 174 231 215 q 331 100 231 100 q 461 136 400 100 l 461 260 l 319 260 m 350 731 q 176 782 239 731 q 101 935 113 833 l 215 949 q 253 867 218 894 q 350 839 288 839 q 450 867 415 839 q 488 949 485 894 l 601 935 q 526 782 590 833 q 350 731 463 731 m 289 992 q 331 1036 317 1013 q 346 1081 346 1060 q 334 1110 346 1099 q 300 1121 322 1121 q 265 1110 282 1121 q 226 1079 247 1100 l 160 1153 q 240 1215 201 1196 q 321 1235 279 1235 q 420 1201 385 1235 q 456 1114 456 1167 q 428 1021 456 1068 q 346 940 400 974 l 289 992 z "},"ẵ":{"ha":778,"x_min":51,"x_max":750,"o":"m 525 24 q 325 -28 425 -28 q 121 23 190 -28 q 51 171 51 74 q 118 319 51 269 q 315 369 185 369 l 461 369 q 428 486 461 446 q 343 526 396 526 q 236 510 286 526 l 224 444 l 78 463 l 104 618 q 350 658 218 658 q 563 585 489 658 q 638 371 638 511 l 638 144 l 750 108 l 701 -36 l 525 24 m 319 260 q 253 238 276 260 q 231 174 231 215 q 331 100 231 100 q 461 136 400 100 l 461 260 l 319 260 m 114 1100 q 187 1144 156 1131 q 258 1157 218 1157 q 308 1149 285 1157 q 358 1126 331 1140 q 403 1106 386 1113 q 440 1100 421 1100 q 494 1108 471 1100 q 556 1142 517 1117 l 569 1044 q 503 999 533 1013 q 426 985 472 985 q 386 992 406 985 q 339 1013 367 999 q 249 1042 286 1042 q 208 1035 226 1042 q 167 1019 190 1029 q 133 1003 144 1008 l 114 1100 m 350 731 q 176 782 239 731 q 101 935 113 833 l 215 949 q 253 867 218 894 q 350 839 288 839 q 450 867 415 839 q 488 949 485 894 l 601 935 q 526 782 590 833 q 350 731 463 731 z "},"â":{"ha":778,"x_min":51,"x_max":750,"o":"m 525 24 q 325 -28 425 -28 q 121 23 190 -28 q 51 171 51 74 q 118 319 51 269 q 315 369 185 369 l 461 369 q 428 486 461 446 q 343 526 396 526 q 236 510 286 526 l 224 444 l 78 463 l 104 618 q 350 658 218 658 q 563 585 489 658 q 638 371 638 511 l 638 144 l 750 108 l 701 -36 l 525 24 m 319 260 q 253 238 276 260 q 231 174 231 215 q 331 100 231 100 q 461 136 400 100 l 461 260 l 319 260 m 353 960 l 589 793 l 533 719 l 354 829 l 161 719 l 113 793 l 353 960 z "},"ấ":{"ha":778,"x_min":51,"x_max":750,"o":"m 525 24 q 325 -28 425 -28 q 121 23 190 -28 q 51 171 51 74 q 118 319 51 269 q 315 369 185 369 l 461 369 q 428 486 461 446 q 343 526 396 526 q 236 510 286 526 l 224 444 l 78 463 l 104 618 q 350 658 218 658 q 563 585 489 658 q 638 371 638 511 l 638 144 l 750 108 l 701 -36 l 525 24 m 319 260 q 253 238 276 260 q 231 174 231 215 q 331 100 231 100 q 461 136 400 100 l 461 260 l 319 260 m 579 1181 l 696 1094 l 521 896 l 447 944 l 579 1181 m 353 960 l 589 793 l 533 719 l 354 829 l 161 719 l 113 793 l 353 960 z "},"ậ":{"ha":778,"x_min":51,"x_max":750,"o":"m 525 24 q 325 -28 425 -28 q 121 23 190 -28 q 51 171 51 74 q 118 319 51 269 q 315 369 185 369 l 461 369 q 428 486 461 446 q 343 526 396 526 q 236 510 286 526 l 224 444 l 78 463 l 104 618 q 350 658 218 658 q 563 585 489 658 q 638 371 638 511 l 638 144 l 750 108 l 701 -36 l 525 24 m 319 260 q 253 238 276 260 q 231 174 231 215 q 331 100 231 100 q 461 136 400 100 l 461 260 l 319 260 m 386 -81 q 458 -108 431 -81 q 486 -181 486 -136 q 458 -252 486 -225 q 386 -279 431 -279 q 315 -252 342 -279 q 288 -181 288 -225 q 315 -108 288 -136 q 386 -81 342 -81 m 353 960 l 589 793 l 533 719 l 354 829 l 161 719 l 113 793 l 353 960 z "},"ầ":{"ha":778,"x_min":51,"x_max":750,"o":"m 525 24 q 325 -28 425 -28 q 121 23 190 -28 q 51 171 51 74 q 118 319 51 269 q 315 369 185 369 l 461 369 q 428 486 461 446 q 343 526 396 526 q 236 510 286 526 l 224 444 l 78 463 l 104 618 q 350 658 218 658 q 563 585 489 658 q 638 371 638 511 l 638 144 l 750 108 l 701 -36 l 525 24 m 319 260 q 253 238 276 260 q 231 174 231 215 q 331 100 231 100 q 461 136 400 100 l 461 260 l 319 260 m 504 896 l 329 1094 l 446 1181 l 578 944 l 504 896 m 353 960 l 589 793 l 533 719 l 354 829 l 161 719 l 113 793 l 353 960 z "},"ẩ":{"ha":778,"x_min":51,"x_max":750,"o":"m 525 24 q 325 -28 425 -28 q 121 23 190 -28 q 51 171 51 74 q 118 319 51 269 q 315 369 185 369 l 461 369 q 428 486 461 446 q 343 526 396 526 q 236 510 286 526 l 224 444 l 78 463 l 104 618 q 350 658 218 658 q 563 585 489 658 q 638 371 638 511 l 638 144 l 750 108 l 701 -36 l 525 24 m 319 260 q 253 238 276 260 q 231 174 231 215 q 331 100 231 100 q 461 136 400 100 l 461 260 l 319 260 m 353 960 l 589 793 l 533 719 l 354 829 l 161 719 l 113 793 l 353 960 m 475 919 q 517 964 503 940 q 532 1008 532 988 q 520 1038 532 1026 q 486 1049 508 1049 q 451 1038 468 1049 q 413 1007 433 1028 l 346 1081 q 426 1143 388 1124 q 507 1163 465 1163 q 606 1128 571 1163 q 642 1042 642 1094 q 614 949 642 996 q 532 868 586 901 l 475 919 z "},"ẫ":{"ha":778,"x_min":51,"x_max":750,"o":"m 525 24 q 325 -28 425 -28 q 121 23 190 -28 q 51 171 51 74 q 118 319 51 269 q 315 369 185 369 l 461 369 q 428 486 461 446 q 343 526 396 526 q 236 510 286 526 l 224 444 l 78 463 l 104 618 q 350 658 218 658 q 563 585 489 658 q 638 371 638 511 l 638 144 l 750 108 l 701 -36 l 525 24 m 319 260 q 253 238 276 260 q 231 174 231 215 q 331 100 231 100 q 461 136 400 100 l 461 260 l 319 260 m 115 1106 q 188 1149 157 1136 q 260 1163 219 1163 q 309 1154 286 1163 q 360 1132 332 1146 q 405 1112 388 1118 q 442 1106 422 1106 q 495 1114 472 1106 q 557 1147 518 1122 l 571 1050 q 504 1004 535 1018 q 428 990 474 990 q 388 997 407 990 q 340 1018 368 1004 q 250 1047 288 1047 q 210 1041 228 1047 q 169 1024 192 1035 q 135 1008 146 1014 l 115 1106 m 353 960 l 589 793 l 533 719 l 354 829 l 161 719 l 113 793 l 353 960 z "},"ȁ":{"ha":778,"x_min":-43,"x_max":750,"o":"m 525 24 q 325 -28 425 -28 q 121 23 190 -28 q 51 171 51 74 q 118 319 51 269 q 315 369 185 369 l 461 369 q 428 486 461 446 q 343 526 396 526 q 236 510 286 526 l 224 444 l 78 463 l 104 618 q 350 658 218 658 q 563 585 489 658 q 638 371 638 511 l 638 144 l 750 108 l 701 -36 l 525 24 m 319 260 q 253 238 276 260 q 231 174 231 215 q 331 100 231 100 q 461 136 400 100 l 461 260 l 319 260 m 342 1069 l 524 768 l 450 719 l 225 983 l 342 1069 m 53 1040 l 290 782 l 228 719 l -43 936 l 53 1040 z "},"ä":{"ha":778,"x_min":51,"x_max":750,"o":"m 525 24 q 325 -28 425 -28 q 121 23 190 -28 q 51 171 51 74 q 118 319 51 269 q 315 369 185 369 l 461 369 q 428 486 461 446 q 343 526 396 526 q 236 510 286 526 l 224 444 l 78 463 l 104 618 q 350 658 218 658 q 563 585 489 658 q 638 371 638 511 l 638 144 l 750 108 l 701 -36 l 525 24 m 319 260 q 253 238 276 260 q 231 174 231 215 q 331 100 231 100 q 461 136 400 100 l 461 260 l 319 260 m 213 933 q 283 903 253 933 q 314 832 314 872 q 283 760 314 790 q 213 731 253 731 q 141 760 171 731 q 111 832 111 790 q 141 903 111 872 q 213 933 171 933 m 485 933 q 555 903 525 933 q 585 832 585 872 q 555 760 585 790 q 485 731 525 731 q 412 760 442 731 q 382 832 382 790 q 412 903 382 874 q 485 933 442 933 z "},"ạ":{"ha":778,"x_min":51,"x_max":750,"o":"m 525 24 q 325 -28 425 -28 q 121 23 190 -28 q 51 171 51 74 q 118 319 51 269 q 315 369 185 369 l 461 369 q 428 486 461 446 q 343 526 396 526 q 236 510 286 526 l 224 444 l 78 463 l 104 618 q 350 658 218 658 q 563 585 489 658 q 638 371 638 511 l 638 144 l 750 108 l 701 -36 l 525 24 m 319 260 q 253 238 276 260 q 231 174 231 215 q 331 100 231 100 q 461 136 400 100 l 461 260 l 319 260 m 386 -81 q 458 -108 431 -81 q 486 -181 486 -136 q 458 -252 486 -225 q 386 -279 431 -279 q 315 -252 342 -279 q 288 -181 288 -225 q 315 -108 288 -136 q 386 -81 342 -81 z "},"à":{"ha":778,"x_min":51,"x_max":750,"o":"m 525 24 q 325 -28 425 -28 q 121 23 190 -28 q 51 171 51 74 q 118 319 51 269 q 315 369 185 369 l 461 369 q 428 486 461 446 q 343 526 396 526 q 236 510 286 526 l 224 444 l 78 463 l 104 618 q 350 658 218 658 q 563 585 489 658 q 638 371 638 511 l 638 144 l 750 108 l 701 -36 l 525 24 m 319 260 q 253 238 276 260 q 231 174 231 215 q 331 100 231 100 q 461 136 400 100 l 461 260 l 319 260 m 353 719 l 128 983 l 244 1069 l 426 768 l 353 719 z "},"ả":{"ha":778,"x_min":51,"x_max":750,"o":"m 525 24 q 325 -28 425 -28 q 121 23 190 -28 q 51 171 51 74 q 118 319 51 269 q 315 369 185 369 l 461 369 q 428 486 461 446 q 343 526 396 526 q 236 510 286 526 l 224 444 l 78 463 l 104 618 q 350 658 218 658 q 563 585 489 658 q 638 371 638 511 l 638 144 l 750 108 l 701 -36 l 525 24 m 319 260 q 253 238 276 260 q 231 174 231 215 q 331 100 231 100 q 461 136 400 100 l 461 260 l 319 260 m 324 743 q 366 788 351 764 q 381 832 381 811 q 369 861 381 850 q 335 872 357 872 q 299 862 317 872 q 261 831 282 851 l 194 904 q 275 967 236 947 q 356 986 314 986 q 455 952 419 986 q 490 865 490 918 q 463 772 490 819 q 381 692 435 725 l 324 743 z "},"ȃ":{"ha":778,"x_min":51,"x_max":750,"o":"m 525 24 q 325 -28 425 -28 q 121 23 190 -28 q 51 171 51 74 q 118 319 51 269 q 315 369 185 369 l 461 369 q 428 486 461 446 q 343 526 396 526 q 236 510 286 526 l 224 444 l 78 463 l 104 618 q 350 658 218 658 q 563 585 489 658 q 638 371 638 511 l 638 144 l 750 108 l 701 -36 l 525 24 m 319 260 q 253 238 276 260 q 231 174 231 215 q 331 100 231 100 q 461 136 400 100 l 461 260 l 319 260 m 350 963 q 526 911 463 963 q 601 758 590 860 l 488 744 q 450 826 485 799 q 350 854 415 854 q 253 826 288 854 q 215 744 218 799 l 101 758 q 176 911 113 860 q 350 963 239 963 z "},"ā":{"ha":778,"x_min":51,"x_max":750,"o":"m 525 24 q 325 -28 425 -28 q 121 23 190 -28 q 51 171 51 74 q 118 319 51 269 q 315 369 185 369 l 461 369 q 428 486 461 446 q 343 526 396 526 q 236 510 286 526 l 224 444 l 78 463 l 104 618 q 350 658 218 658 q 563 585 489 658 q 638 371 638 511 l 638 144 l 750 108 l 701 -36 l 525 24 m 319 260 q 253 238 276 260 q 231 174 231 215 q 331 100 231 100 q 461 136 400 100 l 461 260 l 319 260 m 110 874 l 592 874 l 592 760 l 110 760 l 110 874 z "},"ą":{"ha":778,"x_min":51,"x_max":750,"o":"m 581 -189 q 604 -239 581 -219 q 664 -258 628 -258 q 732 -243 694 -258 l 732 -349 q 603 -375 671 -375 q 467 -338 514 -375 q 419 -243 419 -301 q 465 -112 419 -171 q 611 -6 511 -53 l 525 24 q 325 -28 425 -28 q 121 23 190 -28 q 51 171 51 74 q 118 319 51 269 q 315 369 185 369 l 461 369 q 428 486 461 446 q 343 526 396 526 q 236 510 286 526 l 224 444 l 78 463 l 104 618 q 350 658 218 658 q 563 585 489 658 q 638 371 638 511 l 638 144 l 750 108 l 701 -36 q 608 -107 636 -69 q 581 -189 581 -144 m 461 260 l 319 260 q 253 238 276 260 q 231 174 231 215 q 331 100 231 100 q 461 136 400 100 l 461 260 z "},"å":{"ha":778,"x_min":51,"x_max":750,"o":"m 525 24 q 325 -28 425 -28 q 121 23 190 -28 q 51 171 51 74 q 118 319 51 269 q 315 369 185 369 l 461 369 q 428 486 461 446 q 343 526 396 526 q 236 510 286 526 l 224 444 l 78 463 l 104 618 q 350 658 218 658 q 563 585 489 658 q 638 371 638 511 l 638 144 l 750 108 l 701 -36 l 525 24 m 319 260 q 253 238 276 260 q 231 174 231 215 q 331 100 231 100 q 461 136 400 100 l 461 260 l 319 260 m 350 1040 q 462 998 419 1040 q 504 886 504 956 q 462 775 504 817 q 350 733 419 733 q 239 776 281 733 q 197 886 197 818 q 239 998 197 956 q 350 1040 281 1040 m 350 960 q 297 940 317 960 q 276 886 276 919 q 297 834 276 854 q 350 814 317 814 q 403 834 383 814 q 424 886 424 854 q 403 940 424 919 q 350 960 383 960 z "},"ǻ":{"ha":778,"x_min":51,"x_max":750,"o":"m 525 24 q 325 -28 425 -28 q 121 23 190 -28 q 51 171 51 74 q 118 319 51 269 q 315 369 185 369 l 461 369 q 428 486 461 446 q 343 526 396 526 q 236 510 286 526 l 224 444 l 78 463 l 104 618 q 350 658 218 658 q 563 585 489 658 q 638 371 638 511 l 638 144 l 750 108 l 701 -36 l 525 24 m 319 260 q 253 238 276 260 q 231 174 231 215 q 331 100 231 100 q 461 136 400 100 l 461 260 l 319 260 m 350 1040 q 462 998 419 1040 q 504 886 504 956 q 462 775 504 817 q 350 733 419 733 q 239 776 281 733 q 197 886 197 818 q 239 998 197 956 q 350 1040 281 1040 m 350 960 q 297 940 317 960 q 276 886 276 919 q 297 834 276 854 q 350 814 317 814 q 403 834 383 814 q 424 886 424 854 q 403 940 424 919 q 350 960 383 960 m 478 1479 l 594 1393 l 369 1129 l 296 1178 l 478 1479 z "},"ã":{"ha":778,"x_min":51,"x_max":750,"o":"m 525 24 q 325 -28 425 -28 q 121 23 190 -28 q 51 171 51 74 q 118 319 51 269 q 315 369 185 369 l 461 369 q 428 486 461 446 q 343 526 396 526 q 236 510 286 526 l 224 444 l 78 463 l 104 618 q 350 658 218 658 q 563 585 489 658 q 638 371 638 511 l 638 144 l 750 108 l 701 -36 l 525 24 m 319 260 q 253 238 276 260 q 231 174 231 215 q 331 100 231 100 q 461 136 400 100 l 461 260 l 319 260 m 104 846 q 191 901 154 885 q 276 917 228 917 q 326 908 303 917 q 376 886 349 900 q 421 866 403 872 q 458 860 439 860 q 512 868 489 860 q 574 901 535 876 l 613 808 q 533 751 571 768 q 442 735 496 735 q 401 742 421 735 q 354 763 382 749 q 264 792 301 792 q 224 785 242 792 q 183 769 206 779 q 149 753 160 758 l 104 846 z "},"æ":{"ha":1125,"x_min":53,"x_max":1075,"o":"m 104 596 q 216 631 163 618 q 331 643 269 643 q 485 610 425 643 q 564 524 544 578 q 671 612 610 581 q 796 643 732 643 q 938 600 876 643 q 1031 486 999 557 q 1064 335 1064 415 q 1056 257 1064 297 l 629 257 q 686 148 640 188 q 797 108 732 108 q 915 126 868 108 q 1000 172 961 144 l 1075 75 q 1037 41 1071 67 q 941 -8 1003 15 q 796 -31 879 -31 q 667 -13 724 -31 q 565 44 610 4 q 455 -8 524 14 q 326 -31 386 -31 q 126 23 199 -31 q 53 171 53 76 q 125 331 53 279 q 317 382 197 382 l 476 382 q 450 460 476 432 q 338 488 424 488 q 238 479 299 488 l 226 413 l 78 440 l 104 596 m 917 385 q 884 468 917 436 q 783 500 851 500 q 686 470 725 500 q 633 385 647 440 l 917 385 m 321 254 q 257 235 282 254 q 232 174 232 217 q 260 126 232 142 q 332 110 289 110 q 422 124 372 110 q 497 154 472 139 q 476 254 478 215 l 321 254 z "},"ǽ":{"ha":1125,"x_min":53,"x_max":1075,"o":"m 104 596 q 216 631 163 618 q 331 643 269 643 q 485 610 425 643 q 564 524 544 578 q 671 612 610 581 q 796 643 732 643 q 938 600 876 643 q 1031 486 999 557 q 1064 335 1064 415 q 1056 257 1064 297 l 629 257 q 686 148 640 188 q 797 108 732 108 q 915 126 868 108 q 1000 172 961 144 l 1075 75 q 1037 41 1071 67 q 941 -8 1003 15 q 796 -31 879 -31 q 667 -13 724 -31 q 565 44 610 4 q 455 -8 524 14 q 326 -31 386 -31 q 126 23 199 -31 q 53 171 53 76 q 125 331 53 279 q 317 382 197 382 l 476 382 q 450 460 476 432 q 338 488 424 488 q 238 479 299 488 l 226 413 l 78 440 l 104 596 m 917 385 q 884 468 917 436 q 783 500 851 500 q 686 470 725 500 q 633 385 647 440 l 917 385 m 321 254 q 257 235 282 254 q 232 174 232 217 q 260 126 232 142 q 332 110 289 110 q 422 124 372 110 q 497 154 472 139 q 476 254 478 215 l 321 254 m 703 1069 l 819 983 l 594 719 l 521 768 l 703 1069 z "},"b":{"ha":778,"x_min":-50,"x_max":722,"o":"m 386 -28 q 90 50 214 -28 l 90 746 l -50 794 l 1 944 l 265 854 l 265 618 q 413 658 331 658 q 644 572 565 658 q 722 318 722 486 q 637 60 722 147 q 386 -28 551 -28 m 385 113 q 503 165 463 113 q 543 318 543 217 q 510 465 543 415 q 411 515 476 515 q 265 471 318 515 l 265 131 q 385 113 314 113 z "},"c":{"ha":704,"x_min":54,"x_max":660,"o":"m 482 513 q 400 525 436 525 q 276 470 318 525 q 233 308 233 415 q 278 166 233 219 q 393 113 324 113 q 589 185 489 113 l 660 81 q 527 -1 588 25 q 392 -28 467 -28 q 144 58 233 -28 q 54 308 54 144 q 141 570 54 481 q 397 660 228 660 q 613 619 507 660 l 651 429 l 503 397 l 482 513 z "},"ć":{"ha":704,"x_min":54,"x_max":660,"o":"m 482 513 q 400 525 436 525 q 276 470 318 525 q 233 308 233 415 q 278 166 233 219 q 393 113 324 113 q 589 185 489 113 l 660 81 q 527 -1 588 25 q 392 -28 467 -28 q 144 58 233 -28 q 54 308 54 144 q 141 570 54 481 q 397 660 228 660 q 613 619 507 660 l 651 429 l 503 397 l 482 513 m 524 1069 l 640 983 l 415 719 l 342 768 l 524 1069 z "},"č":{"ha":704,"x_min":54,"x_max":660,"o":"m 482 513 q 400 525 436 525 q 276 470 318 525 q 233 308 233 415 q 278 166 233 219 q 393 113 324 113 q 589 185 489 113 l 660 81 q 527 -1 588 25 q 392 -28 467 -28 q 144 58 233 -28 q 54 308 54 144 q 141 570 54 481 q 397 660 228 660 q 613 619 507 660 l 651 429 l 503 397 l 482 513 m 397 707 l 157 874 l 206 947 l 399 838 l 578 947 l 633 874 l 397 707 z "},"ç":{"ha":704,"x_min":54,"x_max":660,"o":"m 436 -65 q 576 -92 531 -62 q 621 -187 621 -121 q 567 -296 621 -260 q 433 -332 514 -332 q 335 -313 379 -332 q 250 -265 292 -294 l 300 -193 q 363 -224 333 -214 q 432 -235 392 -235 q 473 -219 460 -235 q 486 -179 486 -204 q 471 -148 486 -161 q 418 -135 456 -135 l 328 -135 l 328 -24 q 126 78 197 -7 q 54 308 54 163 q 141 570 54 481 q 397 660 228 660 q 613 619 507 660 l 651 429 l 503 397 l 482 513 q 400 525 436 525 q 276 470 318 525 q 233 308 233 415 q 278 166 233 219 q 393 113 324 113 q 589 185 489 113 l 660 81 q 547 8 599 33 q 436 -25 496 -18 l 436 -65 z "},"ḉ":{"ha":704,"x_min":54,"x_max":660,"o":"m 640 983 l 415 719 l 342 768 l 524 1069 l 640 983 m 436 -65 q 576 -92 531 -62 q 621 -187 621 -121 q 567 -296 621 -260 q 433 -332 514 -332 q 335 -313 379 -332 q 250 -265 292 -294 l 300 -193 q 363 -224 333 -214 q 432 -235 392 -235 q 473 -219 460 -235 q 486 -179 486 -204 q 471 -148 486 -161 q 418 -135 456 -135 l 328 -135 l 328 -24 q 126 78 197 -7 q 54 308 54 163 q 141 570 54 481 q 397 660 228 660 q 613 619 507 660 l 651 429 l 503 397 l 482 513 q 400 525 436 525 q 276 470 318 525 q 233 308 233 415 q 278 166 233 219 q 393 113 324 113 q 589 185 489 113 l 660 81 q 547 8 599 33 q 436 -25 496 -18 l 436 -65 z "},"ĉ":{"ha":704,"x_min":54,"x_max":660,"o":"m 482 513 q 400 525 436 525 q 276 470 318 525 q 233 308 233 415 q 278 166 233 219 q 393 113 324 113 q 589 185 489 113 l 660 81 q 527 -1 588 25 q 392 -28 467 -28 q 144 58 233 -28 q 54 308 54 144 q 141 570 54 481 q 397 660 228 660 q 613 619 507 660 l 651 429 l 503 397 l 482 513 m 399 960 l 635 793 l 579 719 l 400 829 l 207 719 l 158 793 l 399 960 z "},"ċ":{"ha":704,"x_min":54,"x_max":660,"o":"m 482 513 q 400 525 436 525 q 276 470 318 525 q 233 308 233 415 q 278 166 233 219 q 393 113 324 113 q 589 185 489 113 l 660 81 q 527 -1 588 25 q 392 -28 467 -28 q 144 58 233 -28 q 54 308 54 144 q 141 570 54 481 q 397 660 228 660 q 613 619 507 660 l 651 429 l 503 397 l 482 513 m 396 933 q 468 906 440 933 q 496 833 496 878 q 468 762 496 789 q 396 735 440 735 q 324 762 351 735 q 297 833 297 789 q 324 906 297 878 q 396 933 351 933 z "},"d":{"ha":829,"x_min":54,"x_max":801,"o":"m 578 24 q 492 -14 542 0 q 392 -28 443 -28 q 143 63 232 -28 q 54 318 54 154 q 143 569 54 479 q 392 658 232 658 q 511 638 444 658 l 511 746 l 372 794 l 422 944 l 688 854 l 688 154 l 801 115 l 753 -36 l 578 24 m 393 113 q 454 120 422 113 q 511 142 486 128 l 511 490 q 456 508 489 501 q 393 515 424 515 q 277 461 321 515 q 233 318 233 407 q 277 169 233 225 q 393 113 321 113 z "},"ð":{"ha":785,"x_min":49,"x_max":725,"o":"m 454 818 q 653 625 582 743 q 725 365 725 507 q 632 65 725 161 q 386 -31 539 -31 q 144 51 239 -31 q 49 308 49 133 q 95 460 49 394 q 213 560 142 525 q 356 596 285 596 q 515 564 467 596 q 364 719 460 657 l 306 656 l 214 738 l 253 782 q 143 828 210 803 l 175 933 q 340 878 290 900 l 406 950 l 496 865 l 454 818 m 397 475 q 272 428 317 475 q 228 296 228 382 q 388 113 228 113 q 508 180 467 113 q 550 347 550 247 q 540 442 550 399 q 476 466 514 457 q 397 475 438 475 z "},"ď":{"ha":829,"x_min":54,"x_max":825,"o":"m 578 24 q 492 -14 542 0 q 392 -28 443 -28 q 143 63 232 -28 q 54 318 54 154 q 143 569 54 479 q 392 658 232 658 q 511 638 444 658 l 511 746 l 372 794 l 422 944 l 688 854 l 688 154 l 801 115 l 753 -36 l 578 24 m 393 113 q 454 120 422 113 q 511 142 486 128 l 511 490 q 456 508 489 501 q 393 515 424 515 q 277 461 321 515 q 233 318 233 407 q 277 169 233 225 q 393 113 321 113 m 589 958 l 349 1125 l 397 1199 l 590 1089 l 769 1199 l 825 1125 l 589 958 z "},"đ":{"ha":829,"x_min":54,"x_max":801,"o":"m 801 115 l 753 -36 l 578 24 q 492 -14 542 0 q 392 -28 443 -28 q 143 56 232 -28 q 54 290 54 140 q 143 520 54 438 q 392 603 232 603 q 511 582 444 603 l 511 640 l 335 640 l 335 725 l 511 725 l 511 746 l 372 794 l 422 944 l 688 854 l 688 725 l 800 725 l 800 640 l 688 640 l 688 154 l 801 115 m 511 435 q 456 453 489 446 q 393 460 424 460 q 277 413 321 460 q 233 290 233 367 q 277 161 233 210 q 393 113 321 113 q 454 120 422 113 q 511 142 486 128 l 511 435 z "},"ḍ":{"ha":829,"x_min":54,"x_max":801,"o":"m 578 24 q 492 -14 542 0 q 392 -28 443 -28 q 143 63 232 -28 q 54 318 54 154 q 143 569 54 479 q 392 658 232 658 q 511 638 444 658 l 511 746 l 372 794 l 422 944 l 688 854 l 688 154 l 801 115 l 753 -36 l 578 24 m 393 113 q 454 120 422 113 q 511 142 486 128 l 511 490 q 456 508 489 501 q 393 515 424 515 q 277 461 321 515 q 233 318 233 407 q 277 169 233 225 q 393 113 321 113 m 425 -81 q 497 -108 469 -81 q 525 -181 525 -136 q 497 -252 525 -225 q 425 -279 469 -279 q 353 -252 381 -279 q 326 -181 326 -225 q 353 -108 326 -136 q 425 -81 381 -81 z "},"ḏ":{"ha":829,"x_min":54,"x_max":801,"o":"m 578 24 q 492 -14 542 0 q 392 -28 443 -28 q 143 63 232 -28 q 54 318 54 154 q 143 569 54 479 q 392 658 232 658 q 511 638 444 658 l 511 746 l 372 794 l 422 944 l 688 854 l 688 154 l 801 115 l 753 -36 l 578 24 m 393 113 q 454 120 422 113 q 511 142 486 128 l 511 490 q 456 508 489 501 q 393 515 424 515 q 277 461 321 515 q 233 318 233 407 q 277 169 233 225 q 393 113 321 113 m 193 -83 l 658 -83 l 658 -196 l 193 -196 l 193 -83 z "},"e":{"ha":739,"x_min":47,"x_max":707,"o":"m 672 78 q 541 -1 610 25 q 404 -28 472 -28 q 216 15 297 -28 q 91 136 135 58 q 47 313 47 214 q 88 494 47 415 q 204 615 129 572 q 375 658 279 658 q 550 619 475 658 q 666 506 625 579 q 707 338 707 433 q 699 251 707 293 l 215 251 q 275 146 222 182 q 404 110 328 110 q 615 183 519 110 l 672 78 m 532 368 q 491 474 532 433 q 381 515 450 515 q 269 474 315 515 q 219 368 222 432 l 532 368 z "},"é":{"ha":739,"x_min":47,"x_max":707,"o":"m 672 78 q 541 -1 610 25 q 404 -28 472 -28 q 216 15 297 -28 q 91 136 135 58 q 47 313 47 214 q 88 494 47 415 q 204 615 129 572 q 375 658 279 658 q 550 619 475 658 q 666 506 625 579 q 707 338 707 433 q 699 251 707 293 l 215 251 q 275 146 222 182 q 404 110 328 110 q 615 183 519 110 l 672 78 m 532 368 q 491 474 532 433 q 381 515 450 515 q 269 474 315 515 q 219 368 222 432 l 532 368 m 497 1069 l 614 983 l 389 719 l 315 768 l 497 1069 z "},"ĕ":{"ha":739,"x_min":47,"x_max":707,"o":"m 672 78 q 541 -1 610 25 q 404 -28 472 -28 q 216 15 297 -28 q 91 136 135 58 q 47 313 47 214 q 88 494 47 415 q 204 615 129 572 q 375 658 279 658 q 550 619 475 658 q 666 506 625 579 q 707 338 707 433 q 699 251 707 293 l 215 251 q 275 146 222 182 q 404 110 328 110 q 615 183 519 110 l 672 78 m 532 368 q 491 474 532 433 q 381 515 450 515 q 269 474 315 515 q 219 368 222 432 l 532 368 m 369 731 q 195 782 258 731 q 121 935 132 833 l 235 949 q 272 867 238 894 q 369 839 307 839 q 469 867 435 839 q 507 949 504 894 l 621 935 q 546 782 610 833 q 369 731 482 731 z "},"ě":{"ha":739,"x_min":47,"x_max":707,"o":"m 672 78 q 541 -1 610 25 q 404 -28 472 -28 q 216 15 297 -28 q 91 136 135 58 q 47 313 47 214 q 88 494 47 415 q 204 615 129 572 q 375 658 279 658 q 550 619 475 658 q 666 506 625 579 q 707 338 707 433 q 699 251 707 293 l 215 251 q 275 146 222 182 q 404 110 328 110 q 615 183 519 110 l 672 78 m 532 368 q 491 474 532 433 q 381 515 450 515 q 269 474 315 515 q 219 368 222 432 l 532 368 m 371 707 l 131 874 l 179 947 l 372 838 l 551 947 l 607 874 l 371 707 z "},"ḝ":{"ha":739,"x_min":47,"x_max":707,"o":"m 369 731 q 195 782 258 731 q 121 935 132 833 l 235 949 q 272 867 238 894 q 369 839 307 839 q 469 867 435 839 q 507 949 504 894 l 621 935 q 546 782 610 833 q 369 731 482 731 m 707 338 q 699 251 707 293 l 215 251 q 275 146 222 182 q 404 110 328 110 q 615 183 519 110 l 672 78 q 476 -21 582 1 l 476 -65 q 616 -92 571 -62 q 661 -187 661 -121 q 608 -296 661 -260 q 474 -332 554 -332 q 376 -313 419 -332 q 290 -265 332 -294 l 340 -193 q 403 -224 374 -214 q 472 -235 432 -235 q 513 -219 500 -235 q 526 -179 526 -204 q 511 -148 526 -161 q 458 -135 496 -135 l 368 -135 l 368 -26 q 198 26 271 -19 q 86 145 125 71 q 47 313 47 219 q 88 494 47 415 q 204 615 129 572 q 375 658 279 658 q 550 619 475 658 q 666 506 625 579 q 707 338 707 433 m 532 368 q 491 474 532 433 q 381 515 450 515 q 269 474 315 515 q 219 368 222 432 l 532 368 z "},"ê":{"ha":739,"x_min":47,"x_max":707,"o":"m 672 78 q 541 -1 610 25 q 404 -28 472 -28 q 216 15 297 -28 q 91 136 135 58 q 47 313 47 214 q 88 494 47 415 q 204 615 129 572 q 375 658 279 658 q 550 619 475 658 q 666 506 625 579 q 707 338 707 433 q 699 251 707 293 l 215 251 q 275 146 222 182 q 404 110 328 110 q 615 183 519 110 l 672 78 m 532 368 q 491 474 532 433 q 381 515 450 515 q 269 474 315 515 q 219 368 222 432 l 532 368 m 372 960 l 608 793 l 553 719 l 374 829 l 181 719 l 132 793 l 372 960 z "},"ế":{"ha":739,"x_min":47,"x_max":715,"o":"m 672 78 q 541 -1 610 25 q 404 -28 472 -28 q 216 15 297 -28 q 91 136 135 58 q 47 313 47 214 q 88 494 47 415 q 204 615 129 572 q 375 658 279 658 q 550 619 475 658 q 666 506 625 579 q 707 338 707 433 q 699 251 707 293 l 215 251 q 275 146 222 182 q 404 110 328 110 q 615 183 519 110 l 672 78 m 532 368 q 491 474 532 433 q 381 515 450 515 q 269 474 315 515 q 219 368 222 432 l 532 368 m 599 1181 l 715 1094 l 540 896 l 467 944 l 599 1181 m 372 960 l 608 793 l 553 719 l 374 829 l 181 719 l 132 793 l 372 960 z "},"ệ":{"ha":739,"x_min":47,"x_max":707,"o":"m 672 78 q 541 -1 610 25 q 404 -28 472 -28 q 216 15 297 -28 q 91 136 135 58 q 47 313 47 214 q 88 494 47 415 q 204 615 129 572 q 375 658 279 658 q 550 619 475 658 q 666 506 625 579 q 707 338 707 433 q 699 251 707 293 l 215 251 q 275 146 222 182 q 404 110 328 110 q 615 183 519 110 l 672 78 m 532 368 q 491 474 532 433 q 381 515 450 515 q 269 474 315 515 q 219 368 222 432 l 532 368 m 367 -81 q 439 -108 411 -81 q 467 -181 467 -136 q 439 -252 467 -225 q 367 -279 411 -279 q 295 -252 322 -279 q 268 -181 268 -225 q 295 -108 268 -136 q 367 -81 322 -81 m 372 960 l 608 793 l 553 719 l 374 829 l 181 719 l 132 793 l 372 960 z "},"ề":{"ha":739,"x_min":47,"x_max":707,"o":"m 672 78 q 541 -1 610 25 q 404 -28 472 -28 q 216 15 297 -28 q 91 136 135 58 q 47 313 47 214 q 88 494 47 415 q 204 615 129 572 q 375 658 279 658 q 550 619 475 658 q 666 506 625 579 q 707 338 707 433 q 699 251 707 293 l 215 251 q 275 146 222 182 q 404 110 328 110 q 615 183 519 110 l 672 78 m 532 368 q 491 474 532 433 q 381 515 450 515 q 269 474 315 515 q 219 368 222 432 l 532 368 m 524 896 l 349 1094 l 465 1181 l 597 944 l 524 896 m 372 960 l 608 793 l 553 719 l 374 829 l 181 719 l 132 793 l 372 960 z "},"ể":{"ha":739,"x_min":47,"x_max":707,"o":"m 672 78 q 541 -1 610 25 q 404 -28 472 -28 q 216 15 297 -28 q 91 136 135 58 q 47 313 47 214 q 88 494 47 415 q 204 615 129 572 q 375 658 279 658 q 550 619 475 658 q 666 506 625 579 q 707 338 707 433 q 699 251 707 293 l 215 251 q 275 146 222 182 q 404 110 328 110 q 615 183 519 110 l 672 78 m 532 368 q 491 474 532 433 q 381 515 450 515 q 269 474 315 515 q 219 368 222 432 l 532 368 m 372 960 l 608 793 l 553 719 l 374 829 l 181 719 l 132 793 l 372 960 m 494 919 q 537 964 522 940 q 551 1008 551 988 q 540 1038 551 1026 q 506 1049 528 1049 q 470 1038 488 1049 q 432 1007 453 1028 l 365 1081 q 446 1143 407 1124 q 526 1163 485 1163 q 626 1128 590 1163 q 661 1042 661 1094 q 633 949 661 996 q 551 868 606 901 l 494 919 z "},"ễ":{"ha":739,"x_min":47,"x_max":707,"o":"m 672 78 q 541 -1 610 25 q 404 -28 472 -28 q 216 15 297 -28 q 91 136 135 58 q 47 313 47 214 q 88 494 47 415 q 204 615 129 572 q 375 658 279 658 q 550 619 475 658 q 666 506 625 579 q 707 338 707 433 q 699 251 707 293 l 215 251 q 275 146 222 182 q 404 110 328 110 q 615 183 519 110 l 672 78 m 532 368 q 491 474 532 433 q 381 515 450 515 q 269 474 315 515 q 219 368 222 432 l 532 368 m 135 1106 q 208 1149 176 1136 q 279 1163 239 1163 q 328 1154 306 1163 q 379 1132 351 1146 q 424 1112 407 1118 q 461 1106 442 1106 q 515 1114 492 1106 q 576 1147 538 1122 l 590 1050 q 524 1004 554 1018 q 447 990 493 990 q 407 997 426 990 q 360 1018 388 1004 q 269 1047 307 1047 q 229 1041 247 1047 q 188 1024 211 1035 q 154 1008 165 1014 l 135 1106 m 372 960 l 608 793 l 553 719 l 374 829 l 181 719 l 132 793 l 372 960 z "},"ȅ":{"ha":739,"x_min":-24,"x_max":707,"o":"m 672 78 q 541 -1 610 25 q 404 -28 472 -28 q 216 15 297 -28 q 91 136 135 58 q 47 313 47 214 q 88 494 47 415 q 204 615 129 572 q 375 658 279 658 q 550 619 475 658 q 666 506 625 579 q 707 338 707 433 q 699 251 707 293 l 215 251 q 275 146 222 182 q 404 110 328 110 q 615 183 519 110 l 672 78 m 532 368 q 491 474 532 433 q 381 515 450 515 q 269 474 315 515 q 219 368 222 432 l 532 368 m 361 1069 l 543 768 l 469 719 l 244 983 l 361 1069 m 72 1040 l 310 782 l 247 719 l -24 936 l 72 1040 z "},"ë":{"ha":739,"x_min":47,"x_max":707,"o":"m 672 78 q 541 -1 610 25 q 404 -28 472 -28 q 216 15 297 -28 q 91 136 135 58 q 47 313 47 214 q 88 494 47 415 q 204 615 129 572 q 375 658 279 658 q 550 619 475 658 q 666 506 625 579 q 707 338 707 433 q 699 251 707 293 l 215 251 q 275 146 222 182 q 404 110 328 110 q 615 183 519 110 l 672 78 m 532 368 q 491 474 532 433 q 381 515 450 515 q 269 474 315 515 q 219 368 222 432 l 532 368 m 232 933 q 303 903 272 933 q 333 832 333 872 q 303 760 333 790 q 232 731 272 731 q 160 760 190 731 q 131 832 131 790 q 160 903 131 872 q 232 933 190 933 m 504 933 q 574 903 544 933 q 604 832 604 872 q 574 760 604 790 q 504 731 544 731 q 431 760 461 731 q 401 832 401 790 q 431 903 401 874 q 504 933 461 933 z "},"ė":{"ha":739,"x_min":47,"x_max":707,"o":"m 672 78 q 541 -1 610 25 q 404 -28 472 -28 q 216 15 297 -28 q 91 136 135 58 q 47 313 47 214 q 88 494 47 415 q 204 615 129 572 q 375 658 279 658 q 550 619 475 658 q 666 506 625 579 q 707 338 707 433 q 699 251 707 293 l 215 251 q 275 146 222 182 q 404 110 328 110 q 615 183 519 110 l 672 78 m 532 368 q 491 474 532 433 q 381 515 450 515 q 269 474 315 515 q 219 368 222 432 l 532 368 m 369 933 q 442 906 414 933 q 469 833 469 878 q 442 762 469 789 q 369 735 414 735 q 298 762 325 735 q 271 833 271 789 q 298 906 271 878 q 369 933 325 933 z "},"ẹ":{"ha":739,"x_min":47,"x_max":707,"o":"m 672 78 q 541 -1 610 25 q 404 -28 472 -28 q 216 15 297 -28 q 91 136 135 58 q 47 313 47 214 q 88 494 47 415 q 204 615 129 572 q 375 658 279 658 q 550 619 475 658 q 666 506 625 579 q 707 338 707 433 q 699 251 707 293 l 215 251 q 275 146 222 182 q 404 110 328 110 q 615 183 519 110 l 672 78 m 532 368 q 491 474 532 433 q 381 515 450 515 q 269 474 315 515 q 219 368 222 432 l 532 368 m 367 -81 q 439 -108 411 -81 q 467 -181 467 -136 q 439 -252 467 -225 q 367 -279 411 -279 q 295 -252 322 -279 q 268 -181 268 -225 q 295 -108 268 -136 q 367 -81 322 -81 z "},"è":{"ha":739,"x_min":47,"x_max":707,"o":"m 672 78 q 541 -1 610 25 q 404 -28 472 -28 q 216 15 297 -28 q 91 136 135 58 q 47 313 47 214 q 88 494 47 415 q 204 615 129 572 q 375 658 279 658 q 550 619 475 658 q 666 506 625 579 q 707 338 707 433 q 699 251 707 293 l 215 251 q 275 146 222 182 q 404 110 328 110 q 615 183 519 110 l 672 78 m 532 368 q 491 474 532 433 q 381 515 450 515 q 269 474 315 515 q 219 368 222 432 l 532 368 m 372 719 l 147 983 l 264 1069 l 446 768 l 372 719 z "},"ẻ":{"ha":739,"x_min":47,"x_max":707,"o":"m 672 78 q 541 -1 610 25 q 404 -28 472 -28 q 216 15 297 -28 q 91 136 135 58 q 47 313 47 214 q 88 494 47 415 q 204 615 129 572 q 375 658 279 658 q 550 619 475 658 q 666 506 625 579 q 707 338 707 433 q 699 251 707 293 l 215 251 q 275 146 222 182 q 404 110 328 110 q 615 183 519 110 l 672 78 m 532 368 q 491 474 532 433 q 381 515 450 515 q 269 474 315 515 q 219 368 222 432 l 532 368 m 343 743 q 385 788 371 764 q 400 832 400 811 q 388 861 400 850 q 354 872 376 872 q 319 862 336 872 q 281 831 301 851 l 214 904 q 294 967 256 947 q 375 986 333 986 q 474 952 439 986 q 510 865 510 918 q 482 772 510 819 q 400 692 454 725 l 343 743 z "},"ȇ":{"ha":739,"x_min":47,"x_max":707,"o":"m 672 78 q 541 -1 610 25 q 404 -28 472 -28 q 216 15 297 -28 q 91 136 135 58 q 47 313 47 214 q 88 494 47 415 q 204 615 129 572 q 375 658 279 658 q 550 619 475 658 q 666 506 625 579 q 707 338 707 433 q 699 251 707 293 l 215 251 q 275 146 222 182 q 404 110 328 110 q 615 183 519 110 l 672 78 m 532 368 q 491 474 532 433 q 381 515 450 515 q 269 474 315 515 q 219 368 222 432 l 532 368 m 369 963 q 546 911 482 963 q 621 758 610 860 l 507 744 q 469 826 504 799 q 369 854 435 854 q 272 826 307 854 q 235 744 238 799 l 121 758 q 195 911 132 860 q 369 963 258 963 z "},"ē":{"ha":739,"x_min":47,"x_max":707,"o":"m 672 78 q 541 -1 610 25 q 404 -28 472 -28 q 216 15 297 -28 q 91 136 135 58 q 47 313 47 214 q 88 494 47 415 q 204 615 129 572 q 375 658 279 658 q 550 619 475 658 q 666 506 625 579 q 707 338 707 433 q 699 251 707 293 l 215 251 q 275 146 222 182 q 404 110 328 110 q 615 183 519 110 l 672 78 m 532 368 q 491 474 532 433 q 381 515 450 515 q 269 474 315 515 q 219 368 222 432 l 532 368 m 129 874 l 611 874 l 611 760 l 129 760 l 129 874 z "},"ḗ":{"ha":739,"x_min":47,"x_max":707,"o":"m 672 78 q 541 -1 610 25 q 404 -28 472 -28 q 216 15 297 -28 q 91 136 135 58 q 47 313 47 214 q 88 494 47 415 q 204 615 129 572 q 375 658 279 658 q 550 619 475 658 q 666 506 625 579 q 707 338 707 433 q 699 251 707 293 l 215 251 q 275 146 222 182 q 404 110 328 110 q 615 183 519 110 l 672 78 m 532 368 q 491 474 532 433 q 381 515 450 515 q 269 474 315 515 q 219 368 222 432 l 532 368 m 129 874 l 611 874 l 611 760 l 129 760 l 129 874 m 496 1271 l 613 1185 l 388 921 l 314 969 l 496 1271 z "},"ḕ":{"ha":739,"x_min":47,"x_max":707,"o":"m 672 78 q 541 -1 610 25 q 404 -28 472 -28 q 216 15 297 -28 q 91 136 135 58 q 47 313 47 214 q 88 494 47 415 q 204 615 129 572 q 375 658 279 658 q 550 619 475 658 q 666 506 625 579 q 707 338 707 433 q 699 251 707 293 l 215 251 q 275 146 222 182 q 404 110 328 110 q 615 183 519 110 l 672 78 m 532 368 q 491 474 532 433 q 381 515 450 515 q 269 474 315 515 q 219 368 222 432 l 532 368 m 129 874 l 611 874 l 611 760 l 129 760 l 129 874 m 371 921 l 146 1185 l 263 1271 l 444 969 l 371 921 z "},"ę":{"ha":739,"x_min":47,"x_max":707,"o":"m 707 338 q 699 251 707 293 l 215 251 q 275 146 222 182 q 404 110 328 110 q 615 183 519 110 l 672 78 q 571 11 626 38 q 489 -119 489 -43 q 513 -169 489 -150 q 572 -189 536 -189 q 640 -174 603 -189 l 640 -279 q 511 -306 579 -306 q 375 -269 422 -306 q 328 -174 328 -232 q 388 -28 328 -92 q 208 19 285 -25 q 89 140 131 64 q 47 313 47 217 q 88 494 47 415 q 204 615 129 572 q 375 658 279 658 q 550 619 475 658 q 666 506 625 579 q 707 338 707 433 m 532 368 q 491 474 532 433 q 381 515 450 515 q 269 474 315 515 q 219 368 222 432 l 532 368 z "},"ẽ":{"ha":739,"x_min":47,"x_max":707,"o":"m 672 78 q 541 -1 610 25 q 404 -28 472 -28 q 216 15 297 -28 q 91 136 135 58 q 47 313 47 214 q 88 494 47 415 q 204 615 129 572 q 375 658 279 658 q 550 619 475 658 q 666 506 625 579 q 707 338 707 433 q 699 251 707 293 l 215 251 q 275 146 222 182 q 404 110 328 110 q 615 183 519 110 l 672 78 m 532 368 q 491 474 532 433 q 381 515 450 515 q 269 474 315 515 q 219 368 222 432 l 532 368 m 124 846 q 210 901 174 885 q 296 917 247 917 q 345 908 322 917 q 396 886 368 900 q 440 866 422 872 q 478 860 458 860 q 531 868 508 860 q 593 901 554 876 l 632 808 q 553 751 590 768 q 461 735 515 735 q 421 742 440 735 q 374 763 401 749 q 283 792 321 792 q 243 785 261 792 q 202 769 225 779 q 168 753 179 758 l 124 846 z "},"ə":{"ha":739,"x_min":32,"x_max":692,"o":"m 67 553 q 198 632 129 606 q 335 658 267 658 q 523 615 442 658 q 648 494 604 572 q 692 318 692 417 q 651 137 692 215 q 535 15 610 58 q 364 -28 460 -28 q 189 12 264 -28 q 73 124 114 51 q 32 293 32 197 q 40 379 32 338 l 524 379 q 464 485 517 449 q 335 521 411 521 q 124 447 219 521 l 67 553 m 207 263 q 248 156 207 197 q 358 115 289 115 q 470 157 424 115 q 519 263 517 199 l 207 263 z "},"f":{"ha":567,"x_min":65,"x_max":644,"o":"m 182 681 q 444 949 182 949 q 644 890 572 949 l 586 768 q 468 804 518 804 q 351 683 351 804 l 351 631 l 524 631 l 524 490 l 351 490 l 351 140 l 476 140 l 476 0 l 65 0 l 65 140 l 182 140 l 182 490 l 65 490 l 65 631 l 182 631 l 182 681 z "},"g":{"ha":817,"x_min":35,"x_max":792,"o":"m 435 83 q 626 29 561 83 q 690 -124 690 -25 q 597 -290 690 -236 q 361 -344 503 -344 q 35 -271 171 -344 l 97 -132 q 234 -178 175 -164 q 361 -193 293 -193 q 485 -172 449 -193 q 521 -122 521 -151 q 501 -79 521 -94 q 419 -64 481 -64 l 193 -64 l 193 182 q 82 262 121 208 q 43 393 43 315 q 127 587 43 515 q 351 658 211 658 q 447 651 407 658 q 524 622 486 643 l 738 696 l 792 540 l 621 518 q 651 463 642 496 q 661 401 661 431 q 574 217 661 275 q 350 158 486 158 l 326 158 l 326 83 l 435 83 m 353 528 q 245 496 283 528 q 207 404 207 464 q 246 318 207 350 q 353 286 285 286 q 460 318 421 286 q 499 404 499 350 q 460 496 499 464 q 353 528 422 528 z "},"ğ":{"ha":817,"x_min":35,"x_max":792,"o":"m 435 83 q 626 29 561 83 q 690 -124 690 -25 q 597 -290 690 -236 q 361 -344 503 -344 q 35 -271 171 -344 l 97 -132 q 234 -178 175 -164 q 361 -193 293 -193 q 485 -172 449 -193 q 521 -122 521 -151 q 501 -79 521 -94 q 419 -64 481 -64 l 193 -64 l 193 182 q 82 262 121 208 q 43 393 43 315 q 127 587 43 515 q 351 658 211 658 q 447 651 407 658 q 524 622 486 643 l 738 696 l 792 540 l 621 518 q 651 463 642 496 q 661 401 661 431 q 574 217 661 275 q 350 158 486 158 l 326 158 l 326 83 l 435 83 m 353 528 q 245 496 283 528 q 207 404 207 464 q 246 318 207 350 q 353 286 285 286 q 460 318 421 286 q 499 404 499 350 q 460 496 499 464 q 353 528 422 528 m 350 731 q 176 782 239 731 q 101 935 113 833 l 215 949 q 253 867 218 894 q 350 839 288 839 q 450 867 415 839 q 488 949 485 894 l 601 935 q 526 782 590 833 q 350 731 463 731 z "},"ǧ":{"ha":817,"x_min":35,"x_max":792,"o":"m 435 83 q 626 29 561 83 q 690 -124 690 -25 q 597 -290 690 -236 q 361 -344 503 -344 q 35 -271 171 -344 l 97 -132 q 234 -178 175 -164 q 361 -193 293 -193 q 485 -172 449 -193 q 521 -122 521 -151 q 501 -79 521 -94 q 419 -64 481 -64 l 193 -64 l 193 182 q 82 262 121 208 q 43 393 43 315 q 127 587 43 515 q 351 658 211 658 q 447 651 407 658 q 524 622 486 643 l 738 696 l 792 540 l 621 518 q 651 463 642 496 q 661 401 661 431 q 574 217 661 275 q 350 158 486 158 l 326 158 l 326 83 l 435 83 m 353 528 q 245 496 283 528 q 207 404 207 464 q 246 318 207 350 q 353 286 285 286 q 460 318 421 286 q 499 404 499 350 q 460 496 499 464 q 353 528 422 528 m 351 707 l 111 874 l 160 947 l 353 838 l 532 947 l 588 874 l 351 707 z "},"ĝ":{"ha":817,"x_min":35,"x_max":792,"o":"m 435 83 q 626 29 561 83 q 690 -124 690 -25 q 597 -290 690 -236 q 361 -344 503 -344 q 35 -271 171 -344 l 97 -132 q 234 -178 175 -164 q 361 -193 293 -193 q 485 -172 449 -193 q 521 -122 521 -151 q 501 -79 521 -94 q 419 -64 481 -64 l 193 -64 l 193 182 q 82 262 121 208 q 43 393 43 315 q 127 587 43 515 q 351 658 211 658 q 447 651 407 658 q 524 622 486 643 l 738 696 l 792 540 l 621 518 q 651 463 642 496 q 661 401 661 431 q 574 217 661 275 q 350 158 486 158 l 326 158 l 326 83 l 435 83 m 353 528 q 245 496 283 528 q 207 404 207 464 q 246 318 207 350 q 353 286 285 286 q 460 318 421 286 q 499 404 499 350 q 460 496 499 464 q 353 528 422 528 m 353 960 l 589 793 l 533 719 l 354 829 l 161 719 l 113 793 l 353 960 z "},"ģ":{"ha":817,"x_min":35,"x_max":792,"o":"m 435 83 q 626 29 561 83 q 690 -124 690 -25 q 597 -290 690 -236 q 361 -344 503 -344 q 35 -271 171 -344 l 97 -132 q 234 -178 175 -164 q 361 -193 293 -193 q 485 -172 449 -193 q 521 -122 521 -151 q 501 -79 521 -94 q 419 -64 481 -64 l 193 -64 l 193 182 q 82 262 121 208 q 43 393 43 315 q 127 587 43 515 q 351 658 211 658 q 447 651 407 658 q 524 622 486 643 l 738 696 l 792 540 l 621 518 q 651 463 642 496 q 661 401 661 431 q 574 217 661 275 q 350 158 486 158 l 326 158 l 326 83 l 435 83 m 353 528 q 245 496 283 528 q 207 404 207 464 q 246 318 207 350 q 353 286 285 286 q 460 318 421 286 q 499 404 499 350 q 460 496 499 464 q 353 528 422 528 m 451 1047 q 420 1004 443 1038 q 383 942 397 971 q 449 901 428 931 q 469 836 469 872 q 437 753 469 785 q 351 722 404 722 q 269 758 306 722 q 232 843 232 794 q 274 974 232 915 q 353 1065 317 1032 q 399 1107 390 1099 l 451 1047 z "},"ġ":{"ha":817,"x_min":35,"x_max":792,"o":"m 435 83 q 626 29 561 83 q 690 -124 690 -25 q 597 -290 690 -236 q 361 -344 503 -344 q 35 -271 171 -344 l 97 -132 q 234 -178 175 -164 q 361 -193 293 -193 q 485 -172 449 -193 q 521 -122 521 -151 q 501 -79 521 -94 q 419 -64 481 -64 l 193 -64 l 193 182 q 82 262 121 208 q 43 393 43 315 q 127 587 43 515 q 351 658 211 658 q 447 651 407 658 q 524 622 486 643 l 738 696 l 792 540 l 621 518 q 651 463 642 496 q 661 401 661 431 q 574 217 661 275 q 350 158 486 158 l 326 158 l 326 83 l 435 83 m 353 528 q 245 496 283 528 q 207 404 207 464 q 246 318 207 350 q 353 286 285 286 q 460 318 421 286 q 499 404 499 350 q 460 496 499 464 q 353 528 422 528 m 350 933 q 422 906 394 933 q 450 833 450 878 q 422 762 450 789 q 350 735 394 735 q 278 762 306 735 q 251 833 251 789 q 278 906 251 878 q 350 933 306 933 z "},"ḡ":{"ha":817,"x_min":35,"x_max":792,"o":"m 435 83 q 626 29 561 83 q 690 -124 690 -25 q 597 -290 690 -236 q 361 -344 503 -344 q 35 -271 171 -344 l 97 -132 q 234 -178 175 -164 q 361 -193 293 -193 q 485 -172 449 -193 q 521 -122 521 -151 q 501 -79 521 -94 q 419 -64 481 -64 l 193 -64 l 193 182 q 82 262 121 208 q 43 393 43 315 q 127 587 43 515 q 351 658 211 658 q 447 651 407 658 q 524 622 486 643 l 738 696 l 792 540 l 621 518 q 651 463 642 496 q 661 401 661 431 q 574 217 661 275 q 350 158 486 158 l 326 158 l 326 83 l 435 83 m 353 528 q 245 496 283 528 q 207 404 207 464 q 246 318 207 350 q 353 286 285 286 q 460 318 421 286 q 499 404 499 350 q 460 496 499 464 q 353 528 422 528 m 110 874 l 592 874 l 592 760 l 110 760 l 110 874 z "},"h":{"ha":906,"x_min":14,"x_max":871,"o":"m 31 140 l 146 140 l 146 757 l 14 801 l 60 943 l 322 854 l 322 608 q 418 645 364 632 q 529 658 472 658 q 695 590 636 658 q 754 397 754 522 l 754 140 l 871 140 l 871 0 l 522 0 l 522 140 l 578 140 l 578 375 q 551 477 578 444 q 465 510 524 510 q 399 501 439 510 q 324 476 360 492 l 324 140 l 379 140 l 379 0 l 31 0 l 31 140 z "},"ħ":{"ha":906,"x_min":14,"x_max":871,"o":"m 871 140 l 871 0 l 522 0 l 522 140 l 578 140 l 578 292 q 551 394 578 361 q 465 426 524 426 q 399 417 439 426 q 324 393 360 408 l 324 140 l 379 140 l 379 0 l 31 0 l 31 140 l 146 140 l 146 640 l 22 640 l 22 725 l 146 725 l 146 757 l 14 801 l 60 943 l 322 854 l 322 725 l 474 725 l 474 640 l 322 640 l 322 525 q 418 562 364 549 q 529 575 472 575 q 695 507 636 575 q 754 314 754 439 l 754 140 l 871 140 z "},"ḫ":{"ha":906,"x_min":14,"x_max":871,"o":"m 31 140 l 146 140 l 146 757 l 14 801 l 60 943 l 322 854 l 322 608 q 418 645 364 632 q 529 658 472 658 q 695 590 636 658 q 754 397 754 522 l 754 140 l 871 140 l 871 0 l 522 0 l 522 140 l 578 140 l 578 375 q 551 477 578 444 q 465 510 524 510 q 399 501 439 510 q 324 476 360 492 l 324 140 l 379 140 l 379 0 l 31 0 l 31 140 m 443 -297 q 269 -246 332 -297 q 194 -93 206 -194 l 308 -79 q 346 -161 311 -133 q 443 -189 381 -189 q 543 -161 508 -189 q 581 -79 578 -133 l 694 -93 q 619 -246 683 -194 q 443 -297 556 -297 z "},"ĥ":{"ha":906,"x_min":-86,"x_max":871,"o":"m 31 140 l 146 140 l 146 757 l 14 801 l 60 943 l 322 854 l 322 608 q 418 645 364 632 q 529 658 472 658 q 695 590 636 658 q 754 397 754 522 l 754 140 l 871 140 l 871 0 l 522 0 l 522 140 l 578 140 l 578 375 q 551 477 578 444 q 465 510 524 510 q 399 501 439 510 q 324 476 360 492 l 324 140 l 379 140 l 379 0 l 31 0 l 31 140 m 168 1160 l 424 1013 l 374 947 l 169 1031 l -42 947 l -86 1013 l 168 1160 z "},"ḥ":{"ha":906,"x_min":14,"x_max":871,"o":"m 31 140 l 146 140 l 146 757 l 14 801 l 60 943 l 322 854 l 322 608 q 418 645 364 632 q 529 658 472 658 q 695 590 636 658 q 754 397 754 522 l 754 140 l 871 140 l 871 0 l 522 0 l 522 140 l 578 140 l 578 375 q 551 477 578 444 q 465 510 524 510 q 399 501 439 510 q 324 476 360 492 l 324 140 l 379 140 l 379 0 l 31 0 l 31 140 m 443 -81 q 515 -108 488 -81 q 543 -181 543 -136 q 515 -252 543 -225 q 443 -279 488 -279 q 372 -252 399 -279 q 344 -181 344 -225 q 372 -108 344 -136 q 443 -81 399 -81 z "},"i":{"ha":500,"x_min":58,"x_max":465,"o":"m 58 631 l 350 631 l 350 140 l 465 140 l 465 0 l 58 0 l 58 140 l 174 140 l 174 490 l 58 490 l 58 631 m 247 933 q 319 906 292 933 q 347 833 347 878 q 319 762 347 789 q 247 735 292 735 q 176 762 203 735 q 149 833 149 789 q 176 906 149 878 q 247 933 203 933 z "},"ı":{"ha":500,"x_min":58,"x_max":465,"o":"m 58 631 l 350 631 l 350 140 l 465 140 l 465 0 l 58 0 l 58 140 l 174 140 l 174 490 l 58 490 l 58 631 z "},"í":{"ha":500,"x_min":58,"x_max":492,"o":"m 58 631 l 350 631 l 350 140 l 465 140 l 465 0 l 58 0 l 58 140 l 174 140 l 174 490 l 58 490 l 58 631 m 375 1069 l 492 983 l 267 719 l 193 768 l 375 1069 z "},"ĭ":{"ha":500,"x_min":26,"x_max":471,"o":"m 58 631 l 350 631 l 350 140 l 465 140 l 465 0 l 58 0 l 58 140 l 174 140 l 174 490 l 58 490 l 58 631 m 247 731 q 26 935 50 731 l 140 949 q 247 839 147 839 q 357 949 350 839 l 471 935 q 247 731 447 731 z "},"î":{"ha":500,"x_min":10,"x_max":486,"o":"m 58 631 l 350 631 l 350 140 l 465 140 l 465 0 l 58 0 l 58 140 l 174 140 l 174 490 l 58 490 l 58 631 m 250 960 l 486 793 l 431 719 l 251 829 l 58 719 l 10 793 l 250 960 z "},"ȉ":{"ha":500,"x_min":-146,"x_max":465,"o":"m 58 631 l 350 631 l 350 140 l 465 140 l 465 0 l 58 0 l 58 140 l 174 140 l 174 490 l 58 490 l 58 631 m 239 1069 l 421 768 l 347 719 l 122 983 l 239 1069 m -50 1040 l 188 782 l 125 719 l -146 936 l -50 1040 z "},"ï":{"ha":500,"x_min":8,"x_max":482,"o":"m 58 631 l 350 631 l 350 140 l 465 140 l 465 0 l 58 0 l 58 140 l 174 140 l 174 490 l 58 490 l 58 631 m 110 933 q 181 903 150 933 q 211 832 211 872 q 181 760 211 790 q 110 731 150 731 q 38 760 68 731 q 8 832 8 790 q 38 903 8 872 q 110 933 68 933 m 382 933 q 452 903 422 933 q 482 832 482 872 q 452 760 482 790 q 382 731 422 731 q 309 760 339 731 q 279 832 279 790 q 309 903 279 874 q 382 933 339 933 z "},"ḯ":{"ha":500,"x_min":8,"x_max":492,"o":"m 58 631 l 350 631 l 350 140 l 465 140 l 465 0 l 58 0 l 58 140 l 174 140 l 174 490 l 58 490 l 58 631 m 110 933 q 181 903 150 933 q 211 832 211 872 q 181 760 211 790 q 110 731 150 731 q 38 760 68 731 q 8 832 8 790 q 38 903 8 872 q 110 933 68 933 m 382 933 q 452 903 422 933 q 482 832 482 872 q 452 760 482 790 q 382 731 422 731 q 309 760 339 731 q 279 832 279 790 q 309 903 279 874 q 382 933 339 933 m 375 1303 l 492 1217 l 267 953 l 193 1001 l 375 1303 z "},"ị":{"ha":500,"x_min":58,"x_max":465,"o":"m 58 631 l 350 631 l 350 140 l 465 140 l 465 0 l 58 0 l 58 140 l 174 140 l 174 490 l 58 490 l 58 631 m 247 933 q 319 906 292 933 q 347 833 347 878 q 319 762 347 789 q 247 735 292 735 q 176 762 203 735 q 149 833 149 789 q 176 906 149 878 q 247 933 203 933 m 331 -81 q 403 -108 375 -81 q 431 -181 431 -136 q 403 -252 431 -225 q 331 -279 375 -279 q 259 -252 286 -279 q 232 -181 232 -225 q 259 -108 232 -136 q 331 -81 286 -81 z "},"ì":{"ha":500,"x_min":25,"x_max":465,"o":"m 58 631 l 350 631 l 350 140 l 465 140 l 465 0 l 58 0 l 58 140 l 174 140 l 174 490 l 58 490 l 58 631 m 250 719 l 25 983 l 142 1069 l 324 768 l 250 719 z "},"ỉ":{"ha":500,"x_min":58,"x_max":465,"o":"m 58 631 l 350 631 l 350 140 l 465 140 l 465 0 l 58 0 l 58 140 l 174 140 l 174 490 l 58 490 l 58 631 m 221 743 q 263 788 249 764 q 278 832 278 811 q 266 861 278 850 q 232 872 254 872 q 197 862 214 872 q 158 831 179 851 l 92 904 q 172 967 133 947 q 253 986 211 986 q 352 952 317 986 q 388 865 388 918 q 360 772 388 819 q 278 692 332 725 l 221 743 z "},"ȋ":{"ha":500,"x_min":33,"x_max":465,"o":"m 58 631 l 350 631 l 350 140 l 465 140 l 465 0 l 58 0 l 58 140 l 174 140 l 174 490 l 58 490 l 58 631 m 247 963 q 403 911 347 963 q 464 758 458 860 l 361 744 q 247 854 358 854 q 165 826 193 854 q 136 744 136 799 l 33 758 q 94 910 39 858 q 247 963 149 963 z "},"ī":{"ha":500,"x_min":49,"x_max":465,"o":"m 58 631 l 350 631 l 350 140 l 465 140 l 465 0 l 58 0 l 58 140 l 174 140 l 174 490 l 58 490 l 58 631 m 49 874 l 447 874 l 447 760 l 49 760 l 49 874 z "},"į":{"ha":500,"x_min":58,"x_max":465,"o":"m 247 735 q 176 762 203 735 q 149 833 149 789 q 176 906 149 878 q 247 933 203 933 q 319 906 292 933 q 347 833 347 878 q 319 762 347 789 q 247 735 292 735 m 394 0 q 301 -71 329 -33 q 274 -153 274 -108 q 297 -203 274 -183 q 357 -222 321 -222 q 425 -207 388 -222 l 425 -312 q 296 -339 364 -339 q 160 -302 207 -339 q 113 -207 113 -265 q 247 0 113 -83 l 58 0 l 58 140 l 174 140 l 174 490 l 58 490 l 58 631 l 350 631 l 350 140 l 465 140 l 465 0 l 394 0 z "},"ĩ":{"ha":500,"x_min":22,"x_max":469,"o":"m 58 631 l 350 631 l 350 140 l 465 140 l 465 0 l 58 0 l 58 140 l 174 140 l 174 490 l 58 490 l 58 631 m 22 846 q 99 901 65 885 q 174 917 132 917 q 212 910 194 917 q 256 888 229 903 q 295 867 279 874 q 329 860 311 860 q 379 868 357 860 q 436 901 401 876 l 469 808 q 401 751 435 768 q 313 735 368 735 q 278 742 294 735 q 236 763 263 749 q 157 792 192 792 q 126 785 142 792 q 92 768 111 779 q 65 753 74 757 l 22 846 z "},"j":{"ha":404,"x_min":-57,"x_max":328,"o":"m 328 -50 q 315 -199 328 -140 q 243 -301 301 -258 q 61 -344 185 -344 q -12 -337 24 -344 q -57 -328 -49 -329 l -39 -189 q 44 -196 0 -196 q 117 -178 93 -196 q 146 -135 140 -161 q 151 -71 151 -110 l 151 490 l 35 490 l 35 631 l 328 631 l 328 -50 m 228 933 q 300 906 272 933 q 328 833 328 878 q 300 762 328 789 q 228 735 272 735 q 156 762 183 735 q 129 833 129 789 q 156 906 129 878 q 228 933 183 933 z "},"ȷ":{"ha":404,"x_min":-57,"x_max":328,"o":"m 328 -50 q 315 -199 328 -140 q 243 -301 301 -258 q 61 -344 185 -344 q -12 -337 24 -344 q -57 -328 -49 -329 l -39 -189 q 44 -196 0 -196 q 117 -178 93 -196 q 146 -135 140 -161 q 151 -71 151 -110 l 151 490 l 35 490 l 35 631 l 328 631 l 328 -50 z "},"ĵ":{"ha":404,"x_min":-57,"x_max":467,"o":"m 328 -50 q 315 -199 328 -140 q 243 -301 301 -258 q 61 -344 185 -344 q -12 -337 24 -344 q -57 -328 -49 -329 l -39 -189 q 44 -196 0 -196 q 117 -178 93 -196 q 146 -135 140 -161 q 151 -71 151 -110 l 151 490 l 35 490 l 35 631 l 328 631 l 328 -50 m 231 960 l 467 793 l 411 719 l 232 829 l 39 719 l -10 793 l 231 960 z "},"k":{"ha":832,"x_min":19,"x_max":778,"o":"m 65 943 l 328 854 l 328 379 l 419 379 l 485 490 l 415 490 l 415 631 l 765 631 l 765 490 l 664 490 l 542 313 l 664 140 l 778 140 l 778 0 l 579 0 l 426 240 l 328 240 l 328 140 l 368 140 l 368 0 l 35 0 l 35 140 l 151 140 l 151 757 l 19 801 l 65 943 z "},"ķ":{"ha":832,"x_min":19,"x_max":778,"o":"m 65 943 l 328 854 l 328 379 l 419 379 l 485 490 l 415 490 l 415 631 l 765 631 l 765 490 l 664 490 l 542 313 l 664 140 l 778 140 l 778 0 l 579 0 l 426 240 l 328 240 l 328 140 l 368 140 l 368 0 l 35 0 l 35 140 l 151 140 l 151 757 l 19 801 l 65 943 m 328 -417 q 359 -374 336 -407 q 396 -311 382 -340 q 331 -271 351 -300 q 310 -206 310 -242 q 342 -123 310 -154 q 428 -92 375 -92 q 510 -128 474 -92 q 547 -212 547 -164 q 505 -343 547 -285 q 426 -435 463 -401 q 381 -476 389 -468 l 328 -417 z "},"ĸ":{"ha":878,"x_min":67,"x_max":824,"o":"m 67 631 l 400 631 l 400 490 l 360 490 l 360 379 l 458 379 l 538 490 l 467 490 l 467 631 l 817 631 l 817 490 l 715 490 l 581 313 l 708 140 l 824 140 l 824 0 l 611 0 l 438 240 l 360 240 l 360 140 l 400 140 l 400 0 l 67 0 l 67 140 l 183 140 l 183 490 l 67 490 l 67 631 z "},"l":{"ha":488,"x_min":28,"x_max":453,"o":"m 43 0 l 43 140 l 160 140 l 160 757 l 28 801 l 74 943 l 336 854 l 336 140 l 453 140 l 453 0 l 43 0 z "},"ĺ":{"ha":488,"x_min":28,"x_max":481,"o":"m 43 0 l 43 140 l 160 140 l 160 757 l 28 801 l 74 943 l 336 854 l 336 140 l 453 140 l 453 0 l 43 0 m 442 1178 l 481 1035 l 129 985 l 104 1051 l 442 1178 z "},"ľ":{"ha":488,"x_min":-22,"x_max":468,"o":"m 47 1072 l 224 988 l 406 1072 l 468 993 l 224 832 l -22 993 l 47 1072 m 43 0 l 43 140 l 160 140 l 160 632 l 28 676 l 74 818 l 336 729 l 336 140 l 453 140 l 453 0 l 43 0 z "},"ļ":{"ha":488,"x_min":28,"x_max":453,"o":"m 43 0 l 43 140 l 160 140 l 160 757 l 28 801 l 74 943 l 336 854 l 336 140 l 453 140 l 453 0 l 43 0 m 136 -417 q 167 -374 144 -407 q 204 -311 190 -340 q 139 -271 160 -300 q 118 -206 118 -242 q 151 -123 118 -154 q 236 -92 183 -92 q 319 -128 282 -92 q 356 -212 356 -164 q 313 -343 356 -285 q 234 -435 271 -401 q 189 -476 197 -468 l 136 -417 z "},"ŀ":{"ha":649,"x_min":28,"x_max":621,"o":"m 43 0 l 43 140 l 160 140 l 160 757 l 28 801 l 74 943 l 336 854 l 336 140 l 453 140 l 453 0 l 43 0 m 501 526 q 585 490 550 526 q 621 406 621 454 q 585 321 621 356 q 501 286 550 286 q 416 321 451 286 q 381 406 381 356 q 416 490 381 454 q 501 526 451 526 z "},"ḷ":{"ha":488,"x_min":28,"x_max":453,"o":"m 43 0 l 43 140 l 160 140 l 160 757 l 28 801 l 74 943 l 336 854 l 336 140 l 453 140 l 453 0 l 43 0 m 236 -81 q 308 -108 281 -81 q 336 -181 336 -136 q 308 -252 336 -225 q 236 -279 281 -279 q 165 -252 192 -279 q 138 -181 138 -225 q 165 -108 138 -136 q 236 -81 192 -81 z "},"ḻ":{"ha":488,"x_min":4,"x_max":469,"o":"m 43 0 l 43 140 l 160 140 l 160 757 l 28 801 l 74 943 l 336 854 l 336 140 l 453 140 l 453 0 l 43 0 m 4 -83 l 469 -83 l 469 -196 l 4 -196 l 4 -83 z "},"ł":{"ha":488,"x_min":28,"x_max":453,"o":"m 336 140 l 453 140 l 453 0 l 43 0 l 43 140 l 160 140 l 160 328 l 60 239 l 60 379 l 160 468 l 160 757 l 28 801 l 74 943 l 336 854 l 336 625 l 446 722 l 446 582 l 336 485 l 336 140 z "},"m":{"ha":1301,"x_min":47,"x_max":1267,"o":"m 64 142 l 179 142 l 179 463 l 47 503 l 93 644 l 296 581 q 395 638 340 618 q 506 658 450 658 q 608 638 560 658 q 688 578 656 618 q 897 658 793 658 q 1090 593 1031 658 q 1149 375 1149 528 l 1149 142 l 1267 142 l 1267 0 l 921 0 l 921 142 l 972 142 l 972 371 q 949 475 972 444 q 869 506 925 506 q 810 492 843 506 q 753 460 776 479 l 753 142 l 804 142 l 804 0 l 522 0 l 522 142 l 576 142 l 576 371 q 553 475 576 444 q 474 506 529 506 q 415 492 447 506 q 356 460 382 479 l 356 142 l 411 142 l 411 0 l 64 0 l 64 142 z "},"ṃ":{"ha":1301,"x_min":47,"x_max":1267,"o":"m 64 142 l 179 142 l 179 463 l 47 503 l 93 644 l 296 581 q 395 638 340 618 q 506 658 450 658 q 608 638 560 658 q 688 578 656 618 q 897 658 793 658 q 1090 593 1031 658 q 1149 375 1149 528 l 1149 142 l 1267 142 l 1267 0 l 921 0 l 921 142 l 972 142 l 972 371 q 949 475 972 444 q 869 506 925 506 q 810 492 843 506 q 753 460 776 479 l 753 142 l 804 142 l 804 0 l 522 0 l 522 142 l 576 142 l 576 371 q 553 475 576 444 q 474 506 529 506 q 415 492 447 506 q 356 460 382 479 l 356 142 l 411 142 l 411 0 l 64 0 l 64 142 m 660 -81 q 732 -108 704 -81 q 760 -181 760 -136 q 732 -252 760 -225 q 660 -279 704 -279 q 588 -252 615 -279 q 561 -181 561 -225 q 588 -108 561 -136 q 660 -81 615 -81 z "},"n":{"ha":938,"x_min":49,"x_max":901,"o":"m 64 140 l 182 140 l 182 456 l 49 501 l 94 643 l 290 576 q 408 638 353 618 q 543 658 463 658 q 728 585 671 658 q 786 390 786 511 l 786 140 l 901 140 l 901 0 l 554 0 l 554 140 l 611 140 l 611 369 q 585 468 611 433 q 499 503 560 503 q 421 489 460 503 q 357 456 382 475 l 357 140 l 413 140 l 413 0 l 64 0 l 64 140 z "},"ń":{"ha":938,"x_min":49,"x_max":901,"o":"m 64 140 l 182 140 l 182 456 l 49 501 l 94 643 l 290 576 q 408 638 353 618 q 543 658 463 658 q 728 585 671 658 q 786 390 786 511 l 786 140 l 901 140 l 901 0 l 554 0 l 554 140 l 611 140 l 611 369 q 585 468 611 433 q 499 503 560 503 q 421 489 460 503 q 357 456 382 475 l 357 140 l 413 140 l 413 0 l 64 0 l 64 140 m 604 1069 l 721 983 l 496 719 l 422 768 l 604 1069 z "},"ň":{"ha":938,"x_min":49,"x_max":901,"o":"m 64 140 l 182 140 l 182 456 l 49 501 l 94 643 l 290 576 q 408 638 353 618 q 543 658 463 658 q 728 585 671 658 q 786 390 786 511 l 786 140 l 901 140 l 901 0 l 554 0 l 554 140 l 611 140 l 611 369 q 585 468 611 433 q 499 503 560 503 q 421 489 460 503 q 357 456 382 475 l 357 140 l 413 140 l 413 0 l 64 0 l 64 140 m 478 707 l 238 874 l 286 947 l 479 838 l 658 947 l 714 874 l 478 707 z "},"ņ":{"ha":938,"x_min":49,"x_max":901,"o":"m 64 140 l 182 140 l 182 456 l 49 501 l 94 643 l 290 576 q 408 638 353 618 q 543 658 463 658 q 728 585 671 658 q 786 390 786 511 l 786 140 l 901 140 l 901 0 l 554 0 l 554 140 l 611 140 l 611 369 q 585 468 611 433 q 499 503 560 503 q 421 489 460 503 q 357 456 382 475 l 357 140 l 413 140 l 413 0 l 64 0 l 64 140 m 376 -417 q 408 -374 385 -407 q 444 -311 431 -340 q 379 -271 400 -300 q 358 -206 358 -242 q 391 -123 358 -154 q 476 -92 424 -92 q 559 -128 522 -92 q 596 -212 596 -164 q 553 -343 596 -285 q 474 -435 511 -401 q 429 -476 438 -468 l 376 -417 z "},"ṅ":{"ha":938,"x_min":49,"x_max":901,"o":"m 64 140 l 182 140 l 182 456 l 49 501 l 94 643 l 290 576 q 408 638 353 618 q 543 658 463 658 q 728 585 671 658 q 786 390 786 511 l 786 140 l 901 140 l 901 0 l 554 0 l 554 140 l 611 140 l 611 369 q 585 468 611 433 q 499 503 560 503 q 421 489 460 503 q 357 456 382 475 l 357 140 l 413 140 l 413 0 l 64 0 l 64 140 m 476 933 q 549 906 521 933 q 576 833 576 878 q 549 762 576 789 q 476 735 521 735 q 405 762 432 735 q 378 833 378 789 q 405 906 378 878 q 476 933 432 933 z "},"ṇ":{"ha":938,"x_min":49,"x_max":901,"o":"m 64 140 l 182 140 l 182 456 l 49 501 l 94 643 l 290 576 q 408 638 353 618 q 543 658 463 658 q 728 585 671 658 q 786 390 786 511 l 786 140 l 901 140 l 901 0 l 554 0 l 554 140 l 611 140 l 611 369 q 585 468 611 433 q 499 503 560 503 q 421 489 460 503 q 357 456 382 475 l 357 140 l 413 140 l 413 0 l 64 0 l 64 140 m 476 -81 q 549 -108 521 -81 q 576 -181 576 -136 q 549 -252 576 -225 q 476 -279 521 -279 q 405 -252 432 -279 q 378 -181 378 -225 q 405 -108 378 -136 q 476 -81 432 -81 z "},"ŋ":{"ha":856,"x_min":49,"x_max":786,"o":"m 543 658 q 724 590 661 658 q 786 390 786 521 l 786 -12 q 713 -259 786 -174 q 510 -344 640 -344 q 390 -335 443 -344 q 282 -301 338 -325 l 326 -178 q 469 -206 397 -206 q 573 -162 535 -206 q 611 -40 611 -118 l 611 369 q 583 470 611 438 q 499 503 556 503 q 424 490 464 503 q 357 456 385 476 l 357 140 l 413 140 l 413 0 l 64 0 l 64 140 l 182 140 l 182 456 l 49 501 l 94 643 l 290 576 q 413 640 357 622 q 543 658 469 658 z "},"ṉ":{"ha":938,"x_min":49,"x_max":901,"o":"m 64 140 l 182 140 l 182 456 l 49 501 l 94 643 l 290 576 q 408 638 353 618 q 543 658 463 658 q 728 585 671 658 q 786 390 786 511 l 786 140 l 901 140 l 901 0 l 554 0 l 554 140 l 611 140 l 611 369 q 585 468 611 433 q 499 503 560 503 q 421 489 460 503 q 357 456 382 475 l 357 140 l 413 140 l 413 0 l 64 0 l 64 140 m 244 -83 l 710 -83 l 710 -196 l 244 -196 l 244 -83 z "},"ñ":{"ha":938,"x_min":49,"x_max":901,"o":"m 64 140 l 182 140 l 182 456 l 49 501 l 94 643 l 290 576 q 408 638 353 618 q 543 658 463 658 q 728 585 671 658 q 786 390 786 511 l 786 140 l 901 140 l 901 0 l 554 0 l 554 140 l 611 140 l 611 369 q 585 468 611 433 q 499 503 560 503 q 421 489 460 503 q 357 456 382 475 l 357 140 l 413 140 l 413 0 l 64 0 l 64 140 m 231 846 q 317 901 281 885 q 403 917 354 917 q 452 908 429 917 q 503 886 475 900 q 547 866 529 872 q 585 860 565 860 q 638 868 615 860 q 700 901 661 876 l 739 808 q 660 751 697 768 q 568 735 622 735 q 528 742 547 735 q 481 763 508 749 q 390 792 428 792 q 350 785 368 792 q 309 769 332 779 q 275 753 286 758 l 231 846 z "},"o":{"ha":788,"x_min":61,"x_max":728,"o":"m 392 658 q 640 568 553 658 q 728 314 728 478 q 640 62 728 151 q 392 -28 553 -28 q 147 62 233 -28 q 61 314 61 151 q 147 568 61 478 q 392 658 233 658 m 393 515 q 274 464 314 515 q 233 314 233 413 q 274 164 233 215 q 393 113 314 113 q 515 164 474 113 q 556 314 556 215 q 515 464 556 413 q 393 515 474 515 z "},"ó":{"ha":788,"x_min":61,"x_max":728,"o":"m 392 658 q 640 568 553 658 q 728 314 728 478 q 640 62 728 151 q 392 -28 553 -28 q 147 62 233 -28 q 61 314 61 151 q 147 568 61 478 q 392 658 233 658 m 393 515 q 274 464 314 515 q 233 314 233 413 q 274 164 233 215 q 393 113 314 113 q 515 164 474 113 q 556 314 556 215 q 515 464 556 413 q 393 515 474 515 m 521 1069 l 638 983 l 413 719 l 339 768 l 521 1069 z "},"ŏ":{"ha":788,"x_min":61,"x_max":728,"o":"m 392 658 q 640 568 553 658 q 728 314 728 478 q 640 62 728 151 q 392 -28 553 -28 q 147 62 233 -28 q 61 314 61 151 q 147 568 61 478 q 392 658 233 658 m 393 515 q 274 464 314 515 q 233 314 233 413 q 274 164 233 215 q 393 113 314 113 q 515 164 474 113 q 556 314 556 215 q 515 464 556 413 q 393 515 474 515 m 393 731 q 219 782 282 731 q 144 935 156 833 l 258 949 q 296 867 261 894 q 393 839 331 839 q 493 867 458 839 q 531 949 528 894 l 644 935 q 569 782 633 833 q 393 731 506 731 z "},"ô":{"ha":788,"x_min":61,"x_max":728,"o":"m 392 658 q 640 568 553 658 q 728 314 728 478 q 640 62 728 151 q 392 -28 553 -28 q 147 62 233 -28 q 61 314 61 151 q 147 568 61 478 q 392 658 233 658 m 393 515 q 274 464 314 515 q 233 314 233 413 q 274 164 233 215 q 393 113 314 113 q 515 164 474 113 q 556 314 556 215 q 515 464 556 413 q 393 515 474 515 m 396 960 l 632 793 l 576 719 l 397 829 l 204 719 l 156 793 l 396 960 z "},"ố":{"ha":788,"x_min":61,"x_max":739,"o":"m 392 658 q 640 568 553 658 q 728 314 728 478 q 640 62 728 151 q 392 -28 553 -28 q 147 62 233 -28 q 61 314 61 151 q 147 568 61 478 q 392 658 233 658 m 393 515 q 274 464 314 515 q 233 314 233 413 q 274 164 233 215 q 393 113 314 113 q 515 164 474 113 q 556 314 556 215 q 515 464 556 413 q 393 515 474 515 m 622 1181 l 739 1094 l 564 896 l 490 944 l 622 1181 m 396 960 l 632 793 l 576 719 l 397 829 l 204 719 l 156 793 l 396 960 z "},"ộ":{"ha":788,"x_min":61,"x_max":728,"o":"m 392 658 q 640 568 553 658 q 728 314 728 478 q 640 62 728 151 q 392 -28 553 -28 q 147 62 233 -28 q 61 314 61 151 q 147 568 61 478 q 392 658 233 658 m 393 515 q 274 464 314 515 q 233 314 233 413 q 274 164 233 215 q 393 113 314 113 q 515 164 474 113 q 556 314 556 215 q 515 464 556 413 q 393 515 474 515 m 393 -81 q 465 -108 438 -81 q 493 -181 493 -136 q 465 -252 493 -225 q 393 -279 438 -279 q 322 -252 349 -279 q 294 -181 294 -225 q 322 -108 294 -136 q 393 -81 349 -81 m 396 960 l 632 793 l 576 719 l 397 829 l 204 719 l 156 793 l 396 960 z "},"ồ":{"ha":788,"x_min":61,"x_max":728,"o":"m 392 658 q 640 568 553 658 q 728 314 728 478 q 640 62 728 151 q 392 -28 553 -28 q 147 62 233 -28 q 61 314 61 151 q 147 568 61 478 q 392 658 233 658 m 393 515 q 274 464 314 515 q 233 314 233 413 q 274 164 233 215 q 393 113 314 113 q 515 164 474 113 q 556 314 556 215 q 515 464 556 413 q 393 515 474 515 m 547 896 l 372 1094 l 489 1181 l 621 944 l 547 896 m 396 960 l 632 793 l 576 719 l 397 829 l 204 719 l 156 793 l 396 960 z "},"ổ":{"ha":788,"x_min":61,"x_max":728,"o":"m 392 658 q 640 568 553 658 q 728 314 728 478 q 640 62 728 151 q 392 -28 553 -28 q 147 62 233 -28 q 61 314 61 151 q 147 568 61 478 q 392 658 233 658 m 393 515 q 274 464 314 515 q 233 314 233 413 q 274 164 233 215 q 393 113 314 113 q 515 164 474 113 q 556 314 556 215 q 515 464 556 413 q 393 515 474 515 m 396 960 l 632 793 l 576 719 l 397 829 l 204 719 l 156 793 l 396 960 m 518 919 q 560 964 546 940 q 575 1008 575 988 q 563 1038 575 1026 q 529 1049 551 1049 q 494 1038 511 1049 q 456 1007 476 1028 l 389 1081 q 469 1143 431 1124 q 550 1163 508 1163 q 649 1128 614 1163 q 685 1042 685 1094 q 657 949 685 996 q 575 868 629 901 l 518 919 z "},"ỗ":{"ha":788,"x_min":61,"x_max":728,"o":"m 392 658 q 640 568 553 658 q 728 314 728 478 q 640 62 728 151 q 392 -28 553 -28 q 147 62 233 -28 q 61 314 61 151 q 147 568 61 478 q 392 658 233 658 m 393 515 q 274 464 314 515 q 233 314 233 413 q 274 164 233 215 q 393 113 314 113 q 515 164 474 113 q 556 314 556 215 q 515 464 556 413 q 393 515 474 515 m 158 1106 q 231 1149 200 1136 q 303 1163 263 1163 q 352 1154 329 1163 q 403 1132 375 1146 q 448 1112 431 1118 q 485 1106 465 1106 q 538 1114 515 1106 q 600 1147 561 1122 l 614 1050 q 547 1004 578 1018 q 471 990 517 990 q 431 997 450 990 q 383 1018 411 1004 q 293 1047 331 1047 q 253 1041 271 1047 q 212 1024 235 1035 q 178 1008 189 1014 l 158 1106 m 396 960 l 632 793 l 576 719 l 397 829 l 204 719 l 156 793 l 396 960 z "},"ȍ":{"ha":788,"x_min":0,"x_max":728,"o":"m 392 658 q 640 568 553 658 q 728 314 728 478 q 640 62 728 151 q 392 -28 553 -28 q 147 62 233 -28 q 61 314 61 151 q 147 568 61 478 q 392 658 233 658 m 393 515 q 274 464 314 515 q 233 314 233 413 q 274 164 233 215 q 393 113 314 113 q 515 164 474 113 q 556 314 556 215 q 515 464 556 413 q 393 515 474 515 m 385 1069 l 567 768 l 493 719 l 268 983 l 385 1069 m 96 1040 l 333 782 l 271 719 l 0 936 l 96 1040 z "},"ö":{"ha":788,"x_min":61,"x_max":728,"o":"m 392 658 q 640 568 553 658 q 728 314 728 478 q 640 62 728 151 q 392 -28 553 -28 q 147 62 233 -28 q 61 314 61 151 q 147 568 61 478 q 392 658 233 658 m 393 515 q 274 464 314 515 q 233 314 233 413 q 274 164 233 215 q 393 113 314 113 q 515 164 474 113 q 556 314 556 215 q 515 464 556 413 q 393 515 474 515 m 256 933 q 326 903 296 933 q 357 832 357 872 q 326 760 357 790 q 256 731 296 731 q 184 760 214 731 q 154 832 154 790 q 184 903 154 872 q 256 933 214 933 m 528 933 q 598 903 568 933 q 628 832 628 872 q 598 760 628 790 q 528 731 568 731 q 455 760 485 731 q 425 832 425 790 q 455 903 425 874 q 528 933 485 933 z "},"ȫ":{"ha":788,"x_min":61,"x_max":728,"o":"m 392 658 q 640 568 553 658 q 728 314 728 478 q 640 62 728 151 q 392 -28 553 -28 q 147 62 233 -28 q 61 314 61 151 q 147 568 61 478 q 392 658 233 658 m 393 515 q 274 464 314 515 q 233 314 233 413 q 274 164 233 215 q 393 113 314 113 q 515 164 474 113 q 556 314 556 215 q 515 464 556 413 q 393 515 474 515 m 256 933 q 326 903 296 933 q 357 832 357 872 q 326 760 357 790 q 256 731 296 731 q 184 760 214 731 q 154 832 154 790 q 184 903 154 872 q 256 933 214 933 m 528 933 q 598 903 568 933 q 628 832 628 872 q 598 760 628 790 q 528 731 568 731 q 455 760 485 731 q 425 832 425 790 q 455 903 425 874 q 528 933 485 933 m 153 1107 l 635 1107 l 635 993 l 153 993 l 153 1107 z "},"ȱ":{"ha":788,"x_min":61,"x_max":728,"o":"m 392 658 q 640 568 553 658 q 728 314 728 478 q 640 62 728 151 q 392 -28 553 -28 q 147 62 233 -28 q 61 314 61 151 q 147 568 61 478 q 392 658 233 658 m 393 515 q 274 464 314 515 q 233 314 233 413 q 274 164 233 215 q 393 113 314 113 q 515 164 474 113 q 556 314 556 215 q 515 464 556 413 q 393 515 474 515 m 393 933 q 465 906 438 933 q 493 833 493 878 q 465 762 493 789 q 393 735 438 735 q 322 762 349 735 q 294 833 294 789 q 322 906 294 878 q 393 933 349 933 m 151 1096 l 633 1096 l 633 982 l 151 982 l 151 1096 z "},"ọ":{"ha":788,"x_min":61,"x_max":728,"o":"m 392 658 q 640 568 553 658 q 728 314 728 478 q 640 62 728 151 q 392 -28 553 -28 q 147 62 233 -28 q 61 314 61 151 q 147 568 61 478 q 392 658 233 658 m 393 515 q 274 464 314 515 q 233 314 233 413 q 274 164 233 215 q 393 113 314 113 q 515 164 474 113 q 556 314 556 215 q 515 464 556 413 q 393 515 474 515 m 393 -81 q 465 -108 438 -81 q 493 -181 493 -136 q 465 -252 493 -225 q 393 -279 438 -279 q 322 -252 349 -279 q 294 -181 294 -225 q 322 -108 294 -136 q 393 -81 349 -81 z "},"ò":{"ha":788,"x_min":61,"x_max":728,"o":"m 392 658 q 640 568 553 658 q 728 314 728 478 q 640 62 728 151 q 392 -28 553 -28 q 147 62 233 -28 q 61 314 61 151 q 147 568 61 478 q 392 658 233 658 m 393 515 q 274 464 314 515 q 233 314 233 413 q 274 164 233 215 q 393 113 314 113 q 515 164 474 113 q 556 314 556 215 q 515 464 556 413 q 393 515 474 515 m 396 719 l 171 983 l 288 1069 l 469 768 l 396 719 z "},"ỏ":{"ha":788,"x_min":61,"x_max":728,"o":"m 392 658 q 640 568 553 658 q 728 314 728 478 q 640 62 728 151 q 392 -28 553 -28 q 147 62 233 -28 q 61 314 61 151 q 147 568 61 478 q 392 658 233 658 m 393 515 q 274 464 314 515 q 233 314 233 413 q 274 164 233 215 q 393 113 314 113 q 515 164 474 113 q 556 314 556 215 q 515 464 556 413 q 393 515 474 515 m 367 743 q 409 788 394 764 q 424 832 424 811 q 412 861 424 850 q 378 872 400 872 q 342 862 360 872 q 304 831 325 851 l 238 904 q 318 967 279 947 q 399 986 357 986 q 498 952 463 986 q 533 865 533 918 q 506 772 533 819 q 424 692 478 725 l 367 743 z "},"ơ":{"ha":788,"x_min":61,"x_max":756,"o":"m 756 740 q 669 532 756 593 q 728 314 728 447 q 640 62 728 151 q 392 -28 553 -28 q 147 62 233 -28 q 61 314 61 151 q 147 568 61 478 q 392 658 233 658 q 542 632 479 658 q 614 740 614 647 l 756 740 m 393 113 q 515 164 474 113 q 556 314 556 215 q 515 464 556 413 q 393 515 474 515 q 274 464 314 515 q 233 314 233 413 q 274 164 233 215 q 393 113 314 113 z "},"ớ":{"ha":788,"x_min":61,"x_max":756,"o":"m 756 740 q 669 532 756 593 q 728 314 728 447 q 640 62 728 151 q 392 -28 553 -28 q 147 62 233 -28 q 61 314 61 151 q 147 568 61 478 q 392 658 233 658 q 542 632 479 658 q 614 740 614 647 l 756 740 m 393 113 q 515 164 474 113 q 556 314 556 215 q 515 464 556 413 q 393 515 474 515 q 274 464 314 515 q 233 314 233 413 q 274 164 233 215 q 393 113 314 113 m 521 1069 l 638 983 l 413 719 l 339 768 l 521 1069 z "},"ợ":{"ha":788,"x_min":61,"x_max":756,"o":"m 756 740 q 669 532 756 593 q 728 314 728 447 q 640 62 728 151 q 392 -28 553 -28 q 147 62 233 -28 q 61 314 61 151 q 147 568 61 478 q 392 658 233 658 q 542 632 479 658 q 614 740 614 647 l 756 740 m 393 113 q 515 164 474 113 q 556 314 556 215 q 515 464 556 413 q 393 515 474 515 q 274 464 314 515 q 233 314 233 413 q 274 164 233 215 q 393 113 314 113 m 393 -81 q 465 -108 438 -81 q 493 -181 493 -136 q 465 -252 493 -225 q 393 -279 438 -279 q 322 -252 349 -279 q 294 -181 294 -225 q 322 -108 294 -136 q 393 -81 349 -81 z "},"ờ":{"ha":788,"x_min":61,"x_max":756,"o":"m 756 740 q 669 532 756 593 q 728 314 728 447 q 640 62 728 151 q 392 -28 553 -28 q 147 62 233 -28 q 61 314 61 151 q 147 568 61 478 q 392 658 233 658 q 542 632 479 658 q 614 740 614 647 l 756 740 m 393 113 q 515 164 474 113 q 556 314 556 215 q 515 464 556 413 q 393 515 474 515 q 274 464 314 515 q 233 314 233 413 q 274 164 233 215 q 393 113 314 113 m 396 719 l 171 983 l 288 1069 l 469 768 l 396 719 z "},"ở":{"ha":788,"x_min":61,"x_max":756,"o":"m 756 740 q 669 532 756 593 q 728 314 728 447 q 640 62 728 151 q 392 -28 553 -28 q 147 62 233 -28 q 61 314 61 151 q 147 568 61 478 q 392 658 233 658 q 542 632 479 658 q 614 740 614 647 l 756 740 m 393 113 q 515 164 474 113 q 556 314 556 215 q 515 464 556 413 q 393 515 474 515 q 274 464 314 515 q 233 314 233 413 q 274 164 233 215 q 393 113 314 113 m 367 743 q 409 788 394 764 q 424 832 424 811 q 412 861 424 850 q 378 872 400 872 q 342 862 360 872 q 304 831 325 851 l 238 904 q 318 967 279 947 q 399 986 357 986 q 498 952 463 986 q 533 865 533 918 q 506 772 533 819 q 424 692 478 725 l 367 743 z "},"ỡ":{"ha":788,"x_min":61,"x_max":756,"o":"m 756 740 q 669 532 756 593 q 728 314 728 447 q 640 62 728 151 q 392 -28 553 -28 q 147 62 233 -28 q 61 314 61 151 q 147 568 61 478 q 392 658 233 658 q 542 632 479 658 q 614 740 614 647 l 756 740 m 393 113 q 515 164 474 113 q 556 314 556 215 q 515 464 556 413 q 393 515 474 515 q 274 464 314 515 q 233 314 233 413 q 274 164 233 215 q 393 113 314 113 m 147 846 q 234 901 197 885 q 319 917 271 917 q 369 908 346 917 q 419 886 392 900 q 464 866 446 872 q 501 860 482 860 q 555 868 532 860 q 617 901 578 876 l 656 808 q 576 751 614 768 q 485 735 539 735 q 444 742 464 735 q 397 763 425 749 q 307 792 344 792 q 267 785 285 792 q 226 769 249 779 q 192 753 203 758 l 147 846 z "},"ő":{"ha":788,"x_min":61,"x_max":767,"o":"m 392 658 q 640 568 553 658 q 728 314 728 478 q 640 62 728 151 q 392 -28 553 -28 q 147 62 233 -28 q 61 314 61 151 q 147 568 61 478 q 392 658 233 658 m 393 515 q 274 464 314 515 q 233 314 233 413 q 274 164 233 215 q 393 113 314 113 q 515 164 474 113 q 556 314 556 215 q 515 464 556 413 q 393 515 474 515 m 382 1069 l 499 983 l 274 719 l 200 768 l 382 1069 m 671 1040 l 767 936 l 496 719 l 433 782 l 671 1040 z "},"ȏ":{"ha":788,"x_min":61,"x_max":728,"o":"m 392 658 q 640 568 553 658 q 728 314 728 478 q 640 62 728 151 q 392 -28 553 -28 q 147 62 233 -28 q 61 314 61 151 q 147 568 61 478 q 392 658 233 658 m 393 515 q 274 464 314 515 q 233 314 233 413 q 274 164 233 215 q 393 113 314 113 q 515 164 474 113 q 556 314 556 215 q 515 464 556 413 q 393 515 474 515 m 393 963 q 569 911 506 963 q 644 758 633 860 l 531 744 q 493 826 528 799 q 393 854 458 854 q 296 826 331 854 q 258 744 261 799 l 144 758 q 219 911 156 860 q 393 963 282 963 z "},"ō":{"ha":788,"x_min":61,"x_max":728,"o":"m 392 658 q 640 568 553 658 q 728 314 728 478 q 640 62 728 151 q 392 -28 553 -28 q 147 62 233 -28 q 61 314 61 151 q 147 568 61 478 q 392 658 233 658 m 393 515 q 274 464 314 515 q 233 314 233 413 q 274 164 233 215 q 393 113 314 113 q 515 164 474 113 q 556 314 556 215 q 515 464 556 413 q 393 515 474 515 m 153 874 l 635 874 l 635 760 l 153 760 l 153 874 z "},"ṓ":{"ha":788,"x_min":61,"x_max":728,"o":"m 392 658 q 640 568 553 658 q 728 314 728 478 q 640 62 728 151 q 392 -28 553 -28 q 147 62 233 -28 q 61 314 61 151 q 147 568 61 478 q 392 658 233 658 m 393 515 q 274 464 314 515 q 233 314 233 413 q 274 164 233 215 q 393 113 314 113 q 515 164 474 113 q 556 314 556 215 q 515 464 556 413 q 393 515 474 515 m 153 874 l 635 874 l 635 760 l 153 760 l 153 874 m 519 1271 l 636 1185 l 411 921 l 338 969 l 519 1271 z "},"ṑ":{"ha":788,"x_min":61,"x_max":728,"o":"m 392 658 q 640 568 553 658 q 728 314 728 478 q 640 62 728 151 q 392 -28 553 -28 q 147 62 233 -28 q 61 314 61 151 q 147 568 61 478 q 392 658 233 658 m 393 515 q 274 464 314 515 q 233 314 233 413 q 274 164 233 215 q 393 113 314 113 q 515 164 474 113 q 556 314 556 215 q 515 464 556 413 q 393 515 474 515 m 153 874 l 635 874 l 635 760 l 153 760 l 153 874 m 394 921 l 169 1185 l 286 1271 l 468 969 l 394 921 z "},"ǫ":{"ha":788,"x_min":61,"x_max":728,"o":"m 728 314 q 692 138 728 213 q 589 21 657 63 l 585 18 q 567 8 569 11 q 468 -132 468 -47 q 492 -182 468 -162 q 551 -201 515 -201 q 619 -186 582 -201 l 619 -292 q 490 -318 558 -318 q 354 -281 401 -318 q 307 -186 307 -244 q 378 -28 307 -97 q 143 66 225 -24 q 61 314 61 156 q 147 568 61 478 q 392 658 233 658 q 640 568 553 658 q 728 314 728 478 m 233 314 q 274 164 233 215 q 393 113 314 113 q 515 164 474 113 q 556 314 556 215 q 515 464 556 413 q 393 515 474 515 q 274 464 314 515 q 233 314 233 413 z "},"ø":{"ha":788,"x_min":61,"x_max":728,"o":"m 568 621 q 687 503 646 582 q 728 314 728 425 q 640 62 728 151 q 392 -28 553 -28 q 289 -17 340 -28 l 249 -108 l 158 -108 l 211 13 q 99 130 138 53 q 61 314 61 207 q 147 568 61 478 q 392 658 233 658 q 490 649 447 658 l 521 719 l 611 719 l 568 621 m 233 314 q 276 161 233 210 l 431 513 q 393 515 406 515 q 274 464 314 515 q 233 314 233 413 m 393 113 q 515 164 474 113 q 556 314 556 215 q 504 475 556 425 l 347 118 q 393 113 365 113 z "},"ǿ":{"ha":788,"x_min":61,"x_max":728,"o":"m 568 621 q 687 503 646 582 q 728 314 728 425 q 640 62 728 151 q 392 -28 553 -28 q 289 -17 340 -28 l 249 -108 l 158 -108 l 211 13 q 99 130 138 53 q 61 314 61 207 q 147 568 61 478 q 392 658 233 658 q 490 649 447 658 l 521 719 l 611 719 l 568 621 m 233 314 q 276 161 233 210 l 431 513 q 393 515 406 515 q 274 464 314 515 q 233 314 233 413 m 393 113 q 515 164 474 113 q 556 314 556 215 q 504 475 556 425 l 347 118 q 393 113 365 113 m 521 1069 l 638 983 l 413 719 l 339 768 l 521 1069 z "},"õ":{"ha":788,"x_min":61,"x_max":728,"o":"m 392 658 q 640 568 553 658 q 728 314 728 478 q 640 62 728 151 q 392 -28 553 -28 q 147 62 233 -28 q 61 314 61 151 q 147 568 61 478 q 392 658 233 658 m 393 515 q 274 464 314 515 q 233 314 233 413 q 274 164 233 215 q 393 113 314 113 q 515 164 474 113 q 556 314 556 215 q 515 464 556 413 q 393 515 474 515 m 147 846 q 234 901 197 885 q 319 917 271 917 q 369 908 346 917 q 419 886 392 900 q 464 866 446 872 q 501 860 482 860 q 555 868 532 860 q 617 901 578 876 l 656 808 q 576 751 614 768 q 485 735 539 735 q 444 742 464 735 q 397 763 425 749 q 307 792 344 792 q 267 785 285 792 q 226 769 249 779 q 192 753 203 758 l 147 846 z "},"ṍ":{"ha":788,"x_min":61,"x_max":728,"o":"m 392 658 q 640 568 553 658 q 728 314 728 478 q 640 62 728 151 q 392 -28 553 -28 q 147 62 233 -28 q 61 314 61 151 q 147 568 61 478 q 392 658 233 658 m 393 515 q 274 464 314 515 q 233 314 233 413 q 274 164 233 215 q 393 113 314 113 q 515 164 474 113 q 556 314 556 215 q 515 464 556 413 q 393 515 474 515 m 147 846 q 234 901 197 885 q 319 917 271 917 q 369 908 346 917 q 419 886 392 900 q 464 866 446 872 q 501 860 482 860 q 555 868 532 860 q 617 901 578 876 l 656 808 q 576 751 614 768 q 485 735 539 735 q 444 742 464 735 q 397 763 425 749 q 307 792 344 792 q 267 785 285 792 q 226 769 249 779 q 192 753 203 758 l 147 846 m 492 1308 l 608 1222 l 383 958 l 310 1007 l 492 1308 z "},"ṏ":{"ha":788,"x_min":61,"x_max":728,"o":"m 392 658 q 640 568 553 658 q 728 314 728 478 q 640 62 728 151 q 392 -28 553 -28 q 147 62 233 -28 q 61 314 61 151 q 147 568 61 478 q 392 658 233 658 m 393 515 q 274 464 314 515 q 233 314 233 413 q 274 164 233 215 q 393 113 314 113 q 515 164 474 113 q 556 314 556 215 q 515 464 556 413 q 393 515 474 515 m 147 846 q 234 901 197 885 q 319 917 271 917 q 369 908 346 917 q 419 886 392 900 q 464 866 446 872 q 501 860 482 860 q 555 868 532 860 q 617 901 578 876 l 656 808 q 576 751 614 768 q 485 735 539 735 q 444 742 464 735 q 397 763 425 749 q 307 792 344 792 q 267 785 285 792 q 226 769 249 779 q 192 753 203 758 l 147 846 m 226 1172 q 297 1142 267 1172 q 328 1071 328 1111 q 297 999 328 1029 q 226 969 267 969 q 155 999 185 969 q 125 1071 125 1029 q 155 1142 125 1111 q 226 1172 185 1172 m 499 1172 q 569 1142 539 1172 q 599 1071 599 1111 q 569 999 599 1029 q 499 969 539 969 q 426 999 456 969 q 396 1071 396 1029 q 426 1142 396 1113 q 499 1172 456 1172 z "},"ȭ":{"ha":788,"x_min":61,"x_max":728,"o":"m 392 658 q 640 568 553 658 q 728 314 728 478 q 640 62 728 151 q 392 -28 553 -28 q 147 62 233 -28 q 61 314 61 151 q 147 568 61 478 q 392 658 233 658 m 393 515 q 274 464 314 515 q 233 314 233 413 q 274 164 233 215 q 393 113 314 113 q 515 164 474 113 q 556 314 556 215 q 515 464 556 413 q 393 515 474 515 m 147 846 q 234 901 197 885 q 319 917 271 917 q 369 908 346 917 q 419 886 392 900 q 464 866 446 872 q 501 860 482 860 q 555 868 532 860 q 617 901 578 876 l 656 808 q 576 751 614 768 q 485 735 539 735 q 444 742 464 735 q 397 763 425 749 q 307 792 344 792 q 267 785 285 792 q 226 769 249 779 q 192 753 203 758 l 147 846 m 124 1113 l 606 1113 l 606 999 l 124 999 l 124 1113 z "},"œ":{"ha":1088,"x_min":53,"x_max":1033,"o":"m 1019 75 q 978 39 1011 64 q 884 -8 946 14 q 739 -31 822 -31 q 582 18 656 -31 q 497 -17 546 -4 q 390 -31 447 -31 q 144 56 236 -31 q 53 304 53 143 q 145 554 53 465 q 390 643 238 643 q 500 628 449 643 q 586 589 551 613 q 746 643 664 643 q 960 564 886 643 q 1033 331 1033 485 q 1025 243 1033 274 l 593 243 q 740 108 617 108 q 858 126 811 108 q 943 172 906 144 l 1019 75 m 392 500 q 273 449 314 500 q 232 304 232 399 q 272 159 232 210 q 392 108 313 108 q 483 128 442 108 q 443 306 443 199 q 486 481 443 408 q 392 500 444 500 m 875 385 q 842 468 876 436 q 740 500 808 500 q 597 385 628 500 l 875 385 z "},"p":{"ha":846,"x_min":28,"x_max":792,"o":"m 43 -172 l 160 -172 l 160 467 l 28 511 l 74 653 l 274 585 q 374 639 321 619 q 475 658 428 658 q 707 567 622 658 q 792 317 792 476 q 751 133 792 211 q 633 12 710 54 q 456 -31 557 -31 q 336 -17 388 -31 l 336 -172 l 453 -172 l 453 -311 l 43 -311 l 43 -172 m 453 110 q 570 163 529 110 q 611 314 611 215 q 573 463 611 410 q 465 515 535 515 q 394 502 428 515 q 333 465 360 489 l 333 131 q 453 110 386 110 z "},"þ":{"ha":781,"x_min":-46,"x_max":728,"o":"m 269 618 q 332 641 296 632 q 404 650 368 650 q 642 561 556 650 q 728 317 728 472 q 686 133 728 211 q 568 12 644 54 q 390 -31 492 -31 q 271 -17 325 -31 l 271 -172 l 388 -172 l 388 -311 l -22 -311 l -22 -172 l 94 -172 l 94 746 l -46 794 l 6 944 l 269 854 l 269 618 m 269 131 q 388 110 322 110 q 506 163 464 110 q 547 314 547 215 q 507 456 547 406 q 393 507 467 507 q 332 495 367 507 q 269 465 297 483 l 269 131 z "},"q":{"ha":778,"x_min":54,"x_max":781,"o":"m 369 -172 l 511 -172 l 511 0 q 371 -28 456 -28 q 138 66 222 -28 q 54 326 54 160 q 147 571 54 483 q 406 658 240 658 q 543 638 468 658 q 689 581 618 617 l 689 -172 l 781 -172 l 781 -311 l 369 -311 l 369 -172 m 386 113 q 451 118 417 113 q 511 133 485 124 l 511 481 q 458 506 492 496 q 388 515 424 515 q 276 464 318 515 q 233 326 233 413 q 276 172 233 231 q 386 113 318 113 z "},"r":{"ha":683,"x_min":47,"x_max":663,"o":"m 306 575 q 421 635 368 615 q 524 654 474 654 q 639 631 576 654 l 663 449 l 517 418 l 503 493 q 357 442 407 483 l 356 140 l 492 140 l 492 0 l 64 0 l 64 140 l 181 140 l 181 458 l 47 503 l 93 644 l 306 575 z "},"ŕ":{"ha":683,"x_min":47,"x_max":663,"o":"m 306 575 q 421 635 368 615 q 524 654 474 654 q 639 631 576 654 l 663 449 l 517 418 l 503 493 q 357 442 407 483 l 356 140 l 492 140 l 492 0 l 64 0 l 64 140 l 181 140 l 181 458 l 47 503 l 93 644 l 306 575 m 451 1069 l 568 983 l 343 719 l 269 768 l 451 1069 z "},"ř":{"ha":683,"x_min":47,"x_max":663,"o":"m 306 575 q 421 635 368 615 q 524 654 474 654 q 639 631 576 654 l 663 449 l 517 418 l 503 493 q 357 442 407 483 l 356 140 l 492 140 l 492 0 l 64 0 l 64 140 l 181 140 l 181 458 l 47 503 l 93 644 l 306 575 m 325 707 l 85 874 l 133 947 l 326 838 l 506 947 l 561 874 l 325 707 z "},"ŗ":{"ha":683,"x_min":47,"x_max":663,"o":"m 306 575 q 421 635 368 615 q 524 654 474 654 q 639 631 576 654 l 663 449 l 517 418 l 503 493 q 357 442 407 483 l 356 140 l 492 140 l 492 0 l 64 0 l 64 140 l 181 140 l 181 458 l 47 503 l 93 644 l 306 575 m 153 -417 q 184 -374 161 -407 q 221 -311 207 -340 q 156 -271 176 -300 q 135 -206 135 -242 q 167 -123 135 -154 q 253 -92 200 -92 q 335 -128 299 -92 q 372 -212 372 -164 q 330 -343 372 -285 q 251 -435 288 -401 q 206 -476 214 -468 l 153 -417 z "},"ȑ":{"ha":683,"x_min":-69,"x_max":663,"o":"m 306 575 q 421 635 368 615 q 524 654 474 654 q 639 631 576 654 l 663 449 l 517 418 l 503 493 q 357 442 407 483 l 356 140 l 492 140 l 492 0 l 64 0 l 64 140 l 181 140 l 181 458 l 47 503 l 93 644 l 306 575 m 315 1069 l 497 768 l 424 719 l 199 983 l 315 1069 m 26 1040 l 264 782 l 201 719 l -69 936 l 26 1040 z "},"ṛ":{"ha":683,"x_min":47,"x_max":663,"o":"m 306 575 q 421 635 368 615 q 524 654 474 654 q 639 631 576 654 l 663 449 l 517 418 l 503 493 q 357 442 407 483 l 356 140 l 492 140 l 492 0 l 64 0 l 64 140 l 181 140 l 181 458 l 47 503 l 93 644 l 306 575 m 253 -81 q 325 -108 297 -81 q 353 -181 353 -136 q 325 -252 353 -225 q 253 -279 297 -279 q 181 -252 208 -279 q 154 -181 154 -225 q 181 -108 154 -136 q 253 -81 208 -81 z "},"ȓ":{"ha":683,"x_min":47,"x_max":663,"o":"m 306 575 q 421 635 368 615 q 524 654 474 654 q 639 631 576 654 l 663 449 l 517 418 l 503 493 q 357 442 407 483 l 356 140 l 492 140 l 492 0 l 64 0 l 64 140 l 181 140 l 181 458 l 47 503 l 93 644 l 306 575 m 324 963 q 500 911 436 963 q 575 758 564 860 l 461 744 q 424 826 458 799 q 324 854 389 854 q 226 826 261 854 q 189 744 192 799 l 75 758 q 149 911 86 860 q 324 963 213 963 z "},"ṟ":{"ha":683,"x_min":21,"x_max":663,"o":"m 306 575 q 421 635 368 615 q 524 654 474 654 q 639 631 576 654 l 663 449 l 517 418 l 503 493 q 357 442 407 483 l 356 140 l 492 140 l 492 0 l 64 0 l 64 140 l 181 140 l 181 458 l 47 503 l 93 644 l 306 575 m 21 -83 l 486 -83 l 486 -196 l 21 -196 l 21 -83 z "},"s":{"ha":654,"x_min":51,"x_max":613,"o":"m 432 515 q 335 531 383 531 q 249 513 283 531 q 215 463 215 496 q 235 414 215 431 q 314 389 254 397 l 407 375 q 563 314 513 360 q 613 186 613 268 q 531 25 613 79 q 332 -29 450 -29 q 192 -14 253 -29 q 76 33 131 1 l 51 181 l 196 203 l 208 135 q 322 110 267 110 q 419 128 381 110 q 457 182 457 147 q 437 226 457 210 q 360 250 417 243 l 275 264 q 116 328 172 281 q 60 454 60 376 q 133 601 60 546 q 332 657 207 657 q 558 590 467 657 l 583 456 l 454 433 l 432 515 z "},"ś":{"ha":654,"x_min":51,"x_max":613,"o":"m 432 515 q 335 531 383 531 q 249 513 283 531 q 215 463 215 496 q 235 414 215 431 q 314 389 254 397 l 407 375 q 563 314 513 360 q 613 186 613 268 q 531 25 613 79 q 332 -29 450 -29 q 192 -14 253 -29 q 76 33 131 1 l 51 181 l 196 203 l 208 135 q 322 110 267 110 q 419 128 381 110 q 457 182 457 147 q 437 226 457 210 q 360 250 417 243 l 275 264 q 116 328 172 281 q 60 454 60 376 q 133 601 60 546 q 332 657 207 657 q 558 590 467 657 l 583 456 l 454 433 l 432 515 m 450 1069 l 567 983 l 342 719 l 268 768 l 450 1069 z "},"ṥ":{"ha":654,"x_min":51,"x_max":613,"o":"m 432 515 q 335 531 383 531 q 249 513 283 531 q 215 463 215 496 q 235 414 215 431 q 314 389 254 397 l 407 375 q 563 314 513 360 q 613 186 613 268 q 531 25 613 79 q 332 -29 450 -29 q 192 -14 253 -29 q 76 33 131 1 l 51 181 l 196 203 l 208 135 q 322 110 267 110 q 419 128 381 110 q 457 182 457 147 q 437 226 457 210 q 360 250 417 243 l 275 264 q 116 328 172 281 q 60 454 60 376 q 133 601 60 546 q 332 657 207 657 q 558 590 467 657 l 583 456 l 454 433 l 432 515 m 450 1069 l 567 983 l 342 719 l 268 768 l 450 1069 m 450 1304 q 522 1276 494 1304 q 550 1204 550 1249 q 522 1133 550 1160 q 450 1106 494 1106 q 378 1133 406 1106 q 351 1204 351 1160 q 378 1276 351 1249 q 450 1304 406 1304 z "},"š":{"ha":654,"x_min":51,"x_max":613,"o":"m 432 515 q 335 531 383 531 q 249 513 283 531 q 215 463 215 496 q 235 414 215 431 q 314 389 254 397 l 407 375 q 563 314 513 360 q 613 186 613 268 q 531 25 613 79 q 332 -29 450 -29 q 192 -14 253 -29 q 76 33 131 1 l 51 181 l 196 203 l 208 135 q 322 110 267 110 q 419 128 381 110 q 457 182 457 147 q 437 226 457 210 q 360 250 417 243 l 275 264 q 116 328 172 281 q 60 454 60 376 q 133 601 60 546 q 332 657 207 657 q 558 590 467 657 l 583 456 l 454 433 l 432 515 m 324 707 l 83 874 l 132 947 l 325 838 l 504 947 l 560 874 l 324 707 z "},"ṧ":{"ha":654,"x_min":51,"x_max":613,"o":"m 432 515 q 335 531 383 531 q 249 513 283 531 q 215 463 215 496 q 235 414 215 431 q 314 389 254 397 l 407 375 q 563 314 513 360 q 613 186 613 268 q 531 25 613 79 q 332 -29 450 -29 q 192 -14 253 -29 q 76 33 131 1 l 51 181 l 196 203 l 208 135 q 322 110 267 110 q 419 128 381 110 q 457 182 457 147 q 437 226 457 210 q 360 250 417 243 l 275 264 q 116 328 172 281 q 60 454 60 376 q 133 601 60 546 q 332 657 207 657 q 558 590 467 657 l 583 456 l 454 433 l 432 515 m 324 707 l 83 874 l 132 947 l 325 838 l 504 947 l 560 874 l 324 707 m 322 1164 q 394 1136 367 1164 q 422 1064 422 1108 q 394 992 422 1019 q 322 965 367 965 q 251 992 278 965 q 224 1064 224 1019 q 251 1136 224 1108 q 322 1164 278 1164 z "}}}
